<?xml version="1.0" encoding="utf-8"?>
<!-- Generator: Adobe Illustrator 16.0.0, SVG Export Plug-In . SVG Version: 6.00 Build 0)  -->
<!DOCTYPE svg PUBLIC "-//W3C//DTD SVG 1.1//EN" "http://www.w3.org/Graphics/SVG/1.1/DTD/svg11.dtd">
<svg version="1.1" id="Layer_1" xmlns="http://www.w3.org/2000/svg" xmlns:xlink="http://www.w3.org/1999/xlink" x="0px" y="0px"
	 width="148.658px" height="131.905px" viewBox="0 0 148.658 131.905" enable-background="new 0 0 148.658 131.905"
	 xml:space="preserve">
<g id="layer1">
    <path id="path3564-8" fill="{{color}}" d="M10.423,0.726C7.876,0.723,6.046,1.391,3.856,1.809c-2.75,0.933-4.423,3.021-3.682,7.732
    		c-0.502,2.497,0.596,4.447,1.529,6.456c0.75,3.645-2.31,2.521,5.119,15.086c0.793,1.342,1.875,2.478,1.7,4.039
    		c-2.719,3.849-2.517,7.455-0.938,10.949c-4.291,8.669,4.476,14.975,11.035,16.1l14.436-0.328
    		C20.329,65.454,12.085,69.746,7.753,75.67c-1.631,2.227-3.713,8.528-0.197,8.713l0.273,4.97c-1.752,2.249-1.442,4.479,1.777,6.7
    		l0.027,4.864c-0.398,1.996-1.258,3.658,2.521,5.081c0.478,2.627,0.963,4.121,0.795,7.075c-1.082,3.919,0.777,5.354,3.635,5.952
    		c1.38,1.771,3.164,2.923,3.636,6.073c-0.212,1.834,1.505,3.144,6.746,3.456l3.493,2.458c1.57,1.38,3.057,1.124,6.707-0.528
    		c14.796-6.701,27.289-17.36,35.137-36.062c0.383,4.107,1.102,6.237,2.516,6.251c1.428,0.013,2.109-2.171,2.426-6.386
    		c8.057,18.688,20.717,29.222,35.619,35.77c3.67,1.613,5.174,1.867,6.729,0.472l3.467-2.515c5.234-0.372,6.924-1.686,6.689-3.516
    		c0.438-3.157,2.225-4.328,3.582-6.115c2.852-0.631,4.693-2.087,3.568-5.992c-0.201-2.953,0.268-4.468,0.713-7.101
    		c3.764-1.465,2.871-3.117,2.451-5.108l-0.027-4.848c3.193-2.258,3.48-4.508,1.701-6.736l0.232-4.973
    		c3.514-0.225,1.346-6.501-0.311-8.711c-4.4-5.873-12.676-10.072-25.441-13.54l14.424,0.181c6.545-1.199,15.238-7.618,10.852-16.237
    		c1.539-3.513,1.715-7.12-1.047-10.938c-0.191-1.559,0.877-2.707,1.654-4.058c7.287-12.647,4.24-11.49,4.947-15.144
    		c0.912-2.02,1.988-3.98,1.457-6.473c0.689-4.721-1.008-6.791-3.768-7.69c-2.508-0.451-4.553-1.234-7.717-0.957
    		c-33.838,2.979-46.773,28.349-59.139,54.667c-0.088-3.742-0.822-5.373-3.445-5.291c-2.357,0.074-3.078,1.664-3.188,5.222
    		C58.606,28.516,45.384,3.36,11.562,0.765C11.167,0.735,10.786,0.727,10.423,0.726L10.423,0.726z"/>
</g>
</svg>
