<?xml version="1.0" encoding="utf-8"?>
<!-- Generator: Adobe Illustrator 16.0.0, SVG Export Plug-In . SVG Version: 6.00 Build 0)  -->
<!DOCTYPE svg PUBLIC "-//W3C//DTD SVG 1.1//EN" "http://www.w3.org/Graphics/SVG/1.1/DTD/svg11.dtd">
<svg version="1.1" id="Layer_1" xmlns="http://www.w3.org/2000/svg" xmlns:xlink="http://www.w3.org/1999/xlink" x="0px" y="0px"
	 width="117.275px" height="87.962px" viewBox="0 0 117.275 87.962" enable-background="new 0 0 117.275 87.962"
	 xml:space="preserve">
<g>
	<polygon fill="{{color-beak}}" points="1.043,14.154 22.499,18.028 18.458,22.652 	"/>
	<g>
		<line fill="none" stroke="#CA9E67" stroke-width="2" stroke-miterlimit="10" x1="71.483" y1="70.292" x2="63.483" y2="87.542"/>
		<line fill="none" stroke="#CA9E67" stroke-width="2" stroke-miterlimit="10" x1="65.247" y1="83.74" x2="57.608" y2="84.042"/>
		<line fill="none" stroke="#CA9E67" stroke-width="2" stroke-miterlimit="10" x1="65.247" y1="83.74" x2="60.233" y2="81.042"/>
		<line fill="none" stroke="#CA9E67" stroke-width="2" stroke-miterlimit="10" x1="54.483" y1="84.042" x2="58.983" y2="70.292"/>
		<line fill="none" stroke="#CA9E67" stroke-width="2" stroke-miterlimit="10" x1="55.465" y1="81.042" x2="47.775" y2="81.042"/>
		<line fill="none" stroke="#CA9E67" stroke-width="2" stroke-miterlimit="10" x1="55.465" y1="81.042" x2="49.942" y2="78.167"/>
	</g>
	<polygon fill="{{color-beak}}" points="0,25.12 19.221,22.333 20.075,29.331 	"/>
	<path fill="{{color-bird}}" d="M44.108,0c16.5,0,24.833,12.5,34.833,25.333s13.167,18.333,38.334,21.5c-8,9.5-30.909,27.87-54,26.166
		C38.441,71.167,20.274,60,16.941,39.167c-1.37-8.562-0.065-16.701,3.195-23.319C24.812,6.361,33.506,0,44.108,0z"/>
	<ellipse fill="#FFFFFF" cx="36.358" cy="22.333" rx="7.75" ry="6.833"/>
	<ellipse fill="{{color-eye}}" cx="34.775" cy="21.452" rx="3.667" ry="3.048"/>
	<path fill="{{color-wing}}" d="M76.01,59.773c0.429-2.591-0.48-5.083-2.21-6.723c2.167-0.999,3.824-3.062,4.253-5.653
		c0.679-4.084-1.97-7.92-5.906-8.57c-6.446-1.063-18.934,8.046-22.261,10.278c2.319,3.098,11.332,15.82,17.776,16.884
		C71.598,66.636,75.338,63.855,76.01,59.773z"/>
    {{if accessories=doctor}}
    <path fill="#EDEDED" d="M89.891,21.406c-5.399,0.546-11.228,0.844-17.308,0.844c-6.115,0-11.976-0.302-17.4-0.854
   		c-2.01,1.561-3.899,3.35-5.721,5.299c6.93,0.991,14.786,1.555,23.121,1.555c7.941,0,15.451-0.51,22.137-1.415
   		C93.312,24.801,91.695,22.977,89.891,21.406z"/>
   	<path fill="#EDEDED" d="M95.917,14.333c0,0,0.033,10.667-2.983,11.25s-2.351-1.417-2.351-1.417S95.189,26,94.72,14.333
   		S95.917,14.333,95.917,14.333z"/>
   	<ellipse fill="#92D4F6" cx="95.559" cy="9.75" rx="2.625" ry="9.75"/>
    {{/if}}
</g>
</svg>
