<?xml version="1.0" encoding="utf-8"?>
<!-- Generator: Adobe Illustrator 16.0.0, SVG Export Plug-In . SVG Version: 6.00 Build 0)  -->
<!DOCTYPE svg PUBLIC "-//W3C//DTD SVG 1.1//EN" "http://www.w3.org/Graphics/SVG/1.1/DTD/svg11.dtd">
<svg version="1.1" id="Layer_1" xmlns="http://www.w3.org/2000/svg" xmlns:xlink="http://www.w3.org/1999/xlink" x="0px" y="0px"
	 width="117.275px" height="87.962px" viewBox="0 0 117.275 87.962" enable-background="new 0 0 117.275 87.962"
	 xml:space="preserve">
<g>
	<polygon fill="{{color-beak}}" points="1.043,14.154 22.499,18.028 18.458,22.652 	"/>
	<g>
		<line fill="none" stroke="#CA9E67" stroke-width="2" stroke-miterlimit="10" x1="71.483" y1="70.292" x2="63.483" y2="87.542"/>
		<line fill="none" stroke="#CA9E67" stroke-width="2" stroke-miterlimit="10" x1="65.247" y1="83.74" x2="57.608" y2="84.042"/>
		<line fill="none" stroke="#CA9E67" stroke-width="2" stroke-miterlimit="10" x1="65.247" y1="83.74" x2="60.233" y2="81.042"/>
		<line fill="none" stroke="#CA9E67" stroke-width="2" stroke-miterlimit="10" x1="54.483" y1="84.042" x2="58.983" y2="70.292"/>
		<line fill="none" stroke="#CA9E67" stroke-width="2" stroke-miterlimit="10" x1="55.465" y1="81.042" x2="47.775" y2="81.042"/>
		<line fill="none" stroke="#CA9E67" stroke-width="2" stroke-miterlimit="10" x1="55.465" y1="81.042" x2="49.942" y2="78.167"/>
	</g>
	<polygon fill="{{color-beak}}" points="0,25.12 19.221,22.333 20.075,29.331 	"/>
	<path fill="{{color-bird}}" d="M44.108,0c16.5,0,24.833,12.5,34.833,25.333s13.167,18.333,38.334,21.5c-8,9.5-30.909,27.87-54,26.166
		C38.441,71.167,20.274,60,16.941,39.167c-1.37-8.562-0.065-16.701,3.195-23.319C24.812,6.361,33.506,0,44.108,0z"/>
	<ellipse fill="#FFFFFF" cx="36.358" cy="22.333" rx="7.75" ry="6.833"/>
	<ellipse fill="{{color-eye}}" cx="34.775" cy="21.452" rx="3.667" ry="3.048"/>
	<path fill="{{color-wing}}" d="M76.01,59.773c0.429-2.591-0.48-5.083-2.21-6.723c2.167-0.999,3.824-3.062,4.253-5.653
		c0.679-4.084-1.97-7.92-5.906-8.57c-6.446-1.063-18.934,8.046-22.261,10.278c2.319,3.098,11.332,15.82,17.776,16.884
		C71.598,66.636,75.338,63.855,76.01,59.773z"/>
    {{if accessories=doctor}}
    <g>
        <path fill="#EDEDED" d="M89.891,21.406c-5.399,0.546-11.228,0.844-17.308,0.844c-6.115,0-11.976-0.302-17.4-0.854
            c-2.01,1.561-3.899,3.35-5.721,5.299c6.93,0.991,14.786,1.555,23.121,1.555c7.941,0,15.451-0.51,22.137-1.415
            C93.312,24.801,91.695,22.977,89.891,21.406z"/>
        <path fill="#EDEDED" d="M95.917,14.333c0,0,0.033,10.667-2.983,11.25s-2.351-1.417-2.351-1.417S95.189,26,94.72,14.333
            S95.917,14.333,95.917,14.333z"/>
        <ellipse fill="#92D4F6" cx="95.559" cy="9.75" rx="2.625" ry="9.75"/>
    </g>
    {{/if}}
    {{if accessories=halo}}
    <g>
        <path fill="#FDEB1A" d="M65.599,11.506c-9.41,2.202-23.683,4.312-24.435,1.096c-0.752-3.215,12.974-7.657,22.383-9.859
            c9.409-2.202,23.681-4.311,24.433-1.096S75.007,9.304,65.599,11.506z M64.216,4.469c-12.066,2.824-19.349,6.403-19.062,7.627
            c0.287,1.225,8.402,1.201,20.468-1.623C77.687,7.65,84.97,4.07,84.683,2.846C84.396,1.622,76.28,1.646,64.216,4.469z"/>
    </g>
    {{/if}}
    {{if accessories=black_pete}}
    <g>
        <path d="M47.551,25.478c0.221,0.174,0.457,0.313,0.701,0.431c-0.556,1.479-0.143,3.204,1.164,4.235
            c1.285,1.014,3.022,1.033,4.325,0.192c0.055,0.048,0.098,0.104,0.156,0.15c1.602,1.264,3.915,1.001,5.199-0.576
            c-0.081,2.016,1.453,3.741,3.477,3.873c0.675,0.044,1.31-0.109,1.875-0.387c0.432,1.455,1.721,2.561,3.322,2.665
            c1.426,0.093,2.703-0.641,3.404-1.777c0.184,0.041,0.367,0.082,0.561,0.094c2.057,0.134,3.83-1.425,3.965-3.479
            c1.365,0.089,2.595-0.579,3.312-1.635c0.553,0.409,1.219,0.678,1.957,0.726c1.426,0.093,2.703-0.64,3.404-1.777
            c0.184,0.041,0.367,0.081,0.561,0.095c2.057,0.133,3.83-1.426,3.965-3.48c2.055,0.133,3.828-1.425,3.963-3.479
            c0.115-1.79-1.053-3.364-2.713-3.831c0.002-0.028,0.013-0.055,0.015-0.082c0.134-2.056-1.425-3.83-3.479-3.963
            c-0.361-0.023-0.707,0.021-1.045,0.097c-0.299-1.646-1.673-2.945-3.418-3.059c-1.176-0.076-2.246,0.411-2.979,1.222
            c-0.085-1.278-0.813-2.479-2.048-3.087c-1.465-0.727-3.168-0.386-4.27,0.706c-0.349-0.508-0.812-0.945-1.404-1.237
            c-1.846-0.914-4.082-0.158-4.996,1.688c-0.069,0.142-0.127,0.285-0.174,0.432c-0.138,0.018-0.272,0.038-0.406,0.066
            c-0.299-1.646-1.674-2.944-3.418-3.058c-1.633-0.106-3.073,0.864-3.669,2.294c-0.518-0.334-1.113-0.56-1.772-0.603
            c-2.055-0.134-3.83,1.425-3.963,3.479c-0.018,0.281,0.001,0.555,0.043,0.823c-0.251,0.062-0.489,0.158-0.718,0.269
            c-1.375-0.34-2.881,0.112-3.816,1.296c-1.013,1.284-1.033,3.021-0.192,4.324c-0.569,0.236-1.093,0.6-1.502,1.117
            C45.657,21.856,45.934,24.202,47.551,25.478z"/>
        <path fill="#95C11F" d="M71.647,15.167c0,0,15.394,3.729,19.487,0.697c4.095-3.032,4.11-14.146-2.469-15.554
            c-7-1.5-13.763,2.912-19.649,3.167C61.294,3.811,48.238,2.371,46.162,5.1c-2.076,2.729-3.82,14.673,1.061,15.752
            C52.104,21.931,64.545,17.242,71.647,15.167z"/>
        <path d="M55.007,19.677c-0.132,0-0.259,0.021-0.386,0.039c0-0.014,0.004-0.025,0.004-0.039c0-1.473-1.194-2.667-2.667-2.667
            s-2.666,1.194-2.666,2.667c0,0.009,0.002,0.017,0.002,0.025c-0.082-0.008-0.162-0.025-0.246-0.025
            c-1.473,0-2.667,1.194-2.667,2.667c0,1.474,1.194,2.668,2.667,2.668c1.473,0,2.667-1.194,2.667-2.668
            c0-0.008-0.002-0.016-0.002-0.023c0.082,0.008,0.161,0.025,0.245,0.025c0.132,0,0.259-0.021,0.387-0.039
            c0,0.013-0.004,0.024-0.004,0.039c0,1.473,1.193,2.667,2.666,2.667c1.473,0,2.667-1.194,2.667-2.667
            C57.674,20.872,56.48,19.677,55.007,19.677z"/>
        <path d="M74.28,14.677c-0.133,0-0.258,0.021-0.385,0.039c0-0.014,0.004-0.025,0.004-0.039c0-1.473-1.195-2.667-2.668-2.667
            c-1.474,0-2.666,1.194-2.666,2.667c0,0.009,0.002,0.017,0.002,0.025c-0.082-0.008-0.16-0.025-0.246-0.025
            c-1.473,0-2.666,1.194-2.666,2.667c0,1.474,1.193,2.668,2.666,2.668c1.475,0,2.668-1.194,2.668-2.668
            c0-0.008-0.002-0.016-0.002-0.023c0.082,0.008,0.16,0.025,0.244,0.025c0.133,0,0.26-0.021,0.387-0.039
            c0,0.013-0.004,0.024-0.004,0.039c0,1.473,1.193,2.667,2.666,2.667s2.668-1.194,2.668-2.667
            C76.948,15.872,75.753,14.677,74.28,14.677z"/>
        <path d="M60.517,17.602c-0.129,0.032-0.246,0.084-0.363,0.133c-0.004-0.013-0.004-0.026-0.006-0.039
            c-0.367-1.427-1.82-2.287-3.248-1.921c-1.427,0.366-2.286,1.817-1.921,3.245c0.002,0.008,0.007,0.015,0.009,0.022
            c-0.082,0.014-0.162,0.017-0.245,0.037c-1.426,0.366-2.287,1.819-1.921,3.246c0.366,1.427,1.819,2.287,3.246,1.921
            c1.427-0.366,2.287-1.819,1.921-3.246c-0.002-0.008-0.006-0.015-0.008-0.022c0.081-0.014,0.161-0.017,0.242-0.037
            c0.129-0.033,0.247-0.084,0.365-0.134c0.003,0.013,0.003,0.024,0.006,0.039c0.365,1.427,1.818,2.286,3.244,1.921
            c1.427-0.366,2.288-1.819,1.923-3.246C63.396,18.096,61.94,17.236,60.517,17.602z"/>
        <path d="M66.979,17.772c-0.129-0.019-0.258-0.017-0.385-0.016c0.002-0.014,0.006-0.024,0.008-0.038
            c0.205-1.458-0.812-2.807-2.271-3.012s-2.808,0.812-3.013,2.271c0,0.008,0.002,0.016,0,0.024c-0.079-0.019-0.155-0.047-0.239-0.059
            c-1.459-0.205-2.808,0.811-3.012,2.269c-0.205,1.459,0.811,2.809,2.27,3.013c1.459,0.205,2.808-0.812,3.013-2.271
            c0-0.008,0-0.016,0.002-0.023c0.08,0.02,0.154,0.047,0.237,0.059c0.132,0.019,0.261,0.016,0.388,0.015
            c0,0.014-0.006,0.025-0.008,0.038c-0.205,1.459,0.811,2.808,2.268,3.013c1.459,0.204,2.81-0.812,3.015-2.271
            C69.457,19.326,68.438,17.977,66.979,17.772z"/>
        <path d="M79.849,14.602c-0.127,0.032-0.244,0.084-0.363,0.133c-0.004-0.013-0.002-0.026-0.006-0.039
            c-0.365-1.427-1.819-2.287-3.246-1.921c-1.426,0.366-2.285,1.817-1.92,3.245c0.002,0.008,0.006,0.015,0.008,0.022
            c-0.08,0.014-0.161,0.017-0.244,0.037c-1.426,0.366-2.287,1.819-1.922,3.246c0.367,1.427,1.82,2.287,3.246,1.921
            c1.428-0.366,2.287-1.819,1.922-3.246c-0.002-0.008-0.006-0.015-0.008-0.022c0.08-0.014,0.16-0.017,0.242-0.037
            c0.129-0.033,0.246-0.084,0.364-0.134c0.003,0.013,0.003,0.024,0.007,0.039c0.364,1.427,1.817,2.286,3.243,1.921
            c1.427-0.366,2.288-1.819,1.923-3.246C82.729,15.096,81.274,14.236,79.849,14.602z"/>
        <path d="M89.487,17.772c-0.131-0.019-0.258-0.017-0.387-0.016c0.002-0.014,0.008-0.024,0.01-0.038
            c0.205-1.458-0.812-2.807-2.271-3.012s-2.807,0.812-3.012,2.271c-0.001,0.008,0.001,0.016,0,0.024
            c-0.08-0.019-0.156-0.047-0.24-0.059c-1.459-0.205-2.809,0.811-3.012,2.269c-0.205,1.459,0.811,2.809,2.27,3.013
            c1.459,0.205,2.807-0.812,3.012-2.271c0.002-0.008,0-0.016,0.002-0.023c0.08,0.02,0.156,0.047,0.238,0.059
            c0.131,0.019,0.26,0.016,0.389,0.015c-0.002,0.014-0.008,0.025-0.01,0.038c-0.205,1.459,0.812,2.808,2.27,3.013
            c1.459,0.204,2.809-0.812,3.014-2.271C91.964,19.326,90.946,17.977,89.487,17.772z"/>
        <g>
            <path fill="#FFFFFF" stroke="#EDEDED" stroke-miterlimit="10" d="M31.663,2.58c0,0,16.163-3.229,29.626,5.062
                C49.515,9.674,45.583,8.924,31.663,2.58z"/>
            <path fill="none" stroke="#EDEDED" stroke-miterlimit="10" d="M44.833,4.817l19.814,3.439c0,0,1.381-0.019,5.564,1.306"/>
        </g>
    </g>
    {{/if}}
</g>
</svg>
