<?xml version="1.0" encoding="utf-8"?>
<!-- Generator: Adobe Illustrator 16.0.0, SVG Export Plug-In . SVG Version: 6.00 Build 0)  -->
<!DOCTYPE svg PUBLIC "-//W3C//DTD SVG 1.1//EN" "http://www.w3.org/Graphics/SVG/1.1/DTD/svg11.dtd">
<svg version="1.1" id="Layer_1" xmlns="http://www.w3.org/2000/svg" xmlns:xlink="http://www.w3.org/1999/xlink" x="0px" y="0px"
	 width="117.275px" height="107.843px" viewBox="0 -19.881 117.275 107.843" enable-background="new 0 -19.881 117.275 107.843"
	 xml:space="preserve">
<g>
	<polygon fill="{{color-beak}}" points="1.043,14.154 22.499,18.028 18.458,22.652 	"/>
	<g>
		<line fill="none" stroke="#CA9E67" stroke-width="2" stroke-miterlimit="10" x1="71.483" y1="70.292" x2="63.483" y2="87.542"/>
		<line fill="none" stroke="#CA9E67" stroke-width="2" stroke-miterlimit="10" x1="65.247" y1="83.74" x2="57.608" y2="84.042"/>
		<line fill="none" stroke="#CA9E67" stroke-width="2" stroke-miterlimit="10" x1="65.247" y1="83.74" x2="60.233" y2="81.042"/>
		<line fill="none" stroke="#CA9E67" stroke-width="2" stroke-miterlimit="10" x1="54.483" y1="84.042" x2="58.983" y2="70.292"/>
		<line fill="none" stroke="#CA9E67" stroke-width="2" stroke-miterlimit="10" x1="55.465" y1="81.042" x2="47.775" y2="81.042"/>
		<line fill="none" stroke="#CA9E67" stroke-width="2" stroke-miterlimit="10" x1="55.465" y1="81.042" x2="49.942" y2="78.167"/>
	</g>
	<polygon fill="{{color-beak}}" points="0,25.12 19.221,22.333 20.075,29.331 	"/>
	<path fill="{{color-bird}}" d="M44.108,0c16.5,0,24.833,12.5,34.833,25.333s13.167,18.333,38.334,21.5c-8,9.5-30.909,27.87-54,26.166
		C38.441,71.167,20.274,60,16.941,39.167c-1.37-8.562-0.065-16.701,3.195-23.319C24.812,6.361,33.506,0,44.108,0z"/>
	<ellipse fill="#FFFFFF" cx="36.358" cy="22.333" rx="7.75" ry="6.833"/>
	<ellipse fill="{{color-eye}}" cx="34.775" cy="21.452" rx="3.667" ry="3.048"/>
	<path fill="{{color-wing}}" d="M76.01,59.773c0.429-2.591-0.48-5.083-2.21-6.723c2.167-0.999,3.824-3.062,4.253-5.653
		c0.679-4.084-1.97-7.92-5.906-8.57c-6.446-1.063-18.934,8.046-22.261,10.278c2.319,3.098,11.332,15.82,17.776,16.884
		C71.598,66.636,75.338,63.855,76.01,59.773z"/>
    {{if accessories=doctor}}
    <g>
   		<path fill="#EDEDED" d="M22.615,11.398c6.687,0.905,14.196,1.415,22.138,1.415c8.335,0,16.189-0.564,23.121-1.555
   			c-1.822-1.949-3.711-3.738-5.723-5.299c-5.423,0.552-11.283,0.854-17.398,0.854c-6.08,0-11.909-0.298-17.309-0.844
   			C25.64,7.54,24.023,9.364,22.615,11.398z"/>
   		<path fill="#EDEDED" d="M22.615-1.104c-0.469,11.667,4.138,9.833,4.138,9.833s0.665,2-2.352,1.417
   			c-3.016-0.583-2.982-11.25-2.982-11.25S23.085-12.771,22.615-1.104z"/>
   		<ellipse fill="#92D4F6" cx="21.776" cy="-5.687" rx="2.625" ry="9.75"/>
   	</g>
    {{/if}}
    {{if accessories=halo}}
    <g>
   		<path fill="#FDEB1A" d="M28.212-18.234c0.752-3.215,15.024-1.106,24.434,1.096c9.408,2.202,23.135,6.644,22.383,9.859
   			c-0.752,3.216-15.025,1.106-24.436-1.096C41.185-10.577,27.46-15.019,28.212-18.234z M31.509-17.035
   			c-0.287,1.224,6.996,4.804,19.062,7.627C62.635-6.584,70.751-6.56,71.038-7.785c0.287-1.224-6.996-4.803-19.062-7.627
   			C39.912-18.235,31.796-18.259,31.509-17.035z"/>
   	</g>
    {{/if}}
    {{if accessories=black_pete}}
    <g>
   		<path d="M71.336,1.92c-0.409-0.517-0.933-0.881-1.502-1.117c0.841-1.303,0.821-3.04-0.191-4.324
   			c-0.936-1.184-2.441-1.636-3.816-1.296c-0.229-0.111-0.467-0.207-0.718-0.269c0.042-0.268,0.061-0.542,0.043-0.823
   			c-0.133-2.054-1.908-3.613-3.963-3.479c-0.659,0.043-1.254,0.269-1.772,0.603c-0.596-1.43-2.036-2.4-3.669-2.294
   			c-1.744,0.114-3.119,1.412-3.418,3.058c-0.134-0.028-0.268-0.048-0.406-0.066c-0.047-0.147-0.104-0.29-0.174-0.432
   			c-0.914-1.846-3.149-2.602-4.996-1.688c-0.592,0.292-1.055,0.729-1.403,1.237c-1.103-1.092-2.806-1.433-4.271-0.706
   			c-1.235,0.608-1.963,1.809-2.048,3.087c-0.733-0.811-1.803-1.298-2.979-1.222c-1.744,0.114-3.118,1.413-3.418,3.059
   			c-0.338-0.076-0.684-0.12-1.045-0.097c-2.054,0.133-3.612,1.907-3.479,3.963c0.002,0.027,0.013,0.054,0.015,0.082
   			c-1.66,0.467-2.828,2.041-2.713,3.831c0.135,2.054,1.908,3.612,3.963,3.479c0.135,2.054,1.908,3.613,3.965,3.48
   			c0.194-0.014,0.377-0.054,0.562-0.095c0.701,1.137,1.978,1.87,3.404,1.777c0.737-0.048,1.403-0.317,1.956-0.726
   			c0.718,1.056,1.947,1.724,3.312,1.635c0.135,2.054,1.908,3.613,3.965,3.479c0.194-0.012,0.377-0.053,0.562-0.094
   			c0.7,1.136,1.978,1.87,3.403,1.777c1.602-0.104,2.891-1.21,3.322-2.665c0.565,0.278,1.2,0.431,1.875,0.387
   			c2.024-0.132,3.558-1.857,3.477-3.873c1.284,1.577,3.598,1.84,5.199,0.576c0.059-0.046,0.102-0.102,0.156-0.15
   			c1.303,0.841,3.04,0.822,4.325-0.192c1.307-1.031,1.72-2.756,1.164-4.235c0.244-0.118,0.479-0.257,0.701-0.431
   			C72.34,5.88,72.617,3.534,71.336,1.92z"/>
   		<path fill="#95C11F" d="M71.051,2.53c4.882-1.079,3.138-13.023,1.062-15.752s-15.132-1.289-22.854-1.623
   			c-5.886-0.255-12.648-4.667-19.648-3.167C23.03-16.604,23.045-5.49,27.14-2.458c4.093,3.032,19.486-0.697,19.486-0.697
   			C53.729-1.08,66.17,3.609,71.051,2.53z"/>
   		<path d="M60.6,4.024c0,1.473,1.193,2.667,2.667,2.667c1.473,0,2.666-1.194,2.666-2.667c0-0.015-0.005-0.026-0.005-0.039
   			c0.129,0.018,0.256,0.039,0.388,0.039c0.084,0,0.163-0.017,0.245-0.025c0,0.007-0.002,0.015-0.002,0.023
   			c0,1.474,1.193,2.668,2.667,2.668c1.473,0,2.667-1.194,2.667-2.668c0-1.473-1.194-2.667-2.667-2.667
   			c-0.084,0-0.164,0.017-0.246,0.025c0-0.008,0.002-0.016,0.002-0.025c0-1.473-1.193-2.667-2.666-2.667
   			c-1.474,0-2.667,1.194-2.667,2.667c0,0.014,0.004,0.025,0.004,0.039c-0.127-0.018-0.254-0.039-0.386-0.039
   			C61.794,1.355,60.6,2.55,60.6,4.024z"/>
   		<path d="M41.326-0.976c0,1.473,1.195,2.667,2.668,2.667s2.666-1.194,2.666-2.667c0-0.015-0.004-0.026-0.004-0.039
   			c0.127,0.018,0.254,0.039,0.387,0.039c0.084,0,0.162-0.017,0.244-0.025c0,0.007-0.002,0.015-0.002,0.023
   			c0,1.474,1.193,2.668,2.668,2.668c1.473,0,2.666-1.194,2.666-2.668c0-1.473-1.193-2.667-2.666-2.667
   			c-0.086,0-0.164,0.017-0.246,0.025c0-0.008,0.002-0.016,0.002-0.025c0-1.473-1.191-2.667-2.666-2.667
   			c-1.473,0-2.668,1.194-2.668,2.667c0,0.014,0.004,0.025,0.004,0.039c-0.127-0.018-0.252-0.039-0.385-0.039
   			C42.521-3.645,41.326-2.45,41.326-0.976z"/>
   		<path d="M54.512,1.199c-0.364,1.427,0.496,2.88,1.924,3.246c1.426,0.365,2.879-0.494,3.243-1.921
   			c0.004-0.015,0.004-0.026,0.007-0.039c0.117,0.05,0.235,0.101,0.364,0.134c0.081,0.02,0.161,0.023,0.242,0.037
   			c-0.002,0.007-0.006,0.014-0.008,0.022c-0.366,1.427,0.494,2.88,1.921,3.246c1.427,0.366,2.88-0.494,3.246-1.921
   			c0.366-1.427-0.495-2.88-1.921-3.246c-0.083-0.02-0.163-0.023-0.245-0.037c0.002-0.007,0.007-0.014,0.009-0.022
   			c0.365-1.428-0.494-2.879-1.921-3.245c-1.428-0.366-2.881,0.494-3.248,1.921C58.124-0.613,58.124-0.6,58.12-0.587
   			c-0.117-0.049-0.234-0.101-0.363-0.133C56.334-1.086,54.878-0.226,54.512,1.199z"/>
   		<path d="M49.022,2.462c0.205,1.459,1.556,2.475,3.015,2.271c1.457-0.205,2.473-1.554,2.268-3.013
   			c-0.002-0.013-0.008-0.024-0.008-0.038c0.127,0.001,0.256,0.004,0.389-0.015c0.083-0.012,0.156-0.039,0.236-0.059
   			c0.002,0.007,0.002,0.015,0.002,0.023c0.205,1.459,1.555,2.476,3.014,2.271c1.459-0.204,2.475-1.554,2.27-3.013
   			c-0.204-1.458-1.553-2.474-3.012-2.269c-0.084,0.012-0.16,0.04-0.239,0.059c-0.002-0.008,0-0.016,0-0.024
   			c-0.205-1.459-1.554-2.476-3.013-2.271s-2.477,1.554-2.271,3.012c0.002,0.014,0.006,0.024,0.008,0.038
   			c-0.127-0.001-0.256-0.003-0.385,0.016C49.836-0.345,48.817,1.004,49.022,2.462z"/>
   		<path d="M35.178-1.801c-0.364,1.427,0.496,2.88,1.924,3.246c1.426,0.365,2.879-0.494,3.242-1.921
   			c0.005-0.015,0.005-0.026,0.008-0.039c0.117,0.05,0.234,0.101,0.363,0.134c0.082,0.02,0.162,0.023,0.242,0.037
   			c-0.002,0.007-0.006,0.014-0.008,0.022c-0.365,1.427,0.494,2.88,1.922,3.246c1.426,0.366,2.879-0.494,3.246-1.921
   			c0.365-1.427-0.496-2.88-1.922-3.246c-0.083-0.02-0.164-0.023-0.244-0.037c0.002-0.007,0.006-0.014,0.008-0.022
   			c0.365-1.428-0.494-2.879-1.92-3.245c-1.427-0.366-2.881,0.494-3.246,1.921C38.79-3.613,38.792-3.6,38.788-3.587
   			c-0.119-0.049-0.236-0.101-0.363-0.133C37-4.086,35.545-3.226,35.178-1.801z"/>
   		<path d="M26.514,2.462c0.204,1.459,1.555,2.475,3.014,2.271c1.458-0.205,2.475-1.554,2.27-3.013
   			c-0.002-0.013-0.008-0.024-0.01-0.038c0.129,0.001,0.258,0.004,0.389-0.015c0.082-0.012,0.158-0.039,0.238-0.059
   			c0.002,0.007,0,0.015,0.002,0.023c0.205,1.459,1.553,2.476,3.012,2.271c1.459-0.204,2.476-1.554,2.271-3.013
   			c-0.203-1.458-1.553-2.474-3.012-2.269c-0.084,0.012-0.16,0.04-0.24,0.059c-0.001-0.008,0.001-0.016,0-0.024
   			c-0.205-1.459-1.553-2.476-3.012-2.271s-2.477,1.554-2.271,3.012c0.002,0.014,0.008,0.024,0.01,0.038
   			c-0.129-0.001-0.256-0.003-0.387,0.016C27.328-0.345,26.31,1.004,26.514,2.462z"/>
   		<g>
   			<path fill="#FFFFFF" stroke="#EDEDED" stroke-miterlimit="10" d="M56.985-10.68c13.463-8.291,29.626-5.062,29.626-5.062
   				C72.691-9.398,68.759-8.648,56.985-10.68z"/>
   			<path fill="none" stroke="#EDEDED" stroke-miterlimit="10" d="M48.063-8.76c4.183-1.325,5.563-1.306,5.563-1.306l19.814-3.439"/>
   		</g>
   	</g>
    {{/if}}
</g>
</svg>
