<?xml version="1.0" encoding="utf-8"?>
<!-- Generator: Adobe Illustrator 16.0.0, SVG Export Plug-In . SVG Version: 6.00 Build 0)  -->
<!DOCTYPE svg PUBLIC "-//W3C//DTD SVG 1.1//EN" "http://www.w3.org/Graphics/SVG/1.1/DTD/svg11.dtd">
<svg version="1.1" id="Layer_1" xmlns="http://www.w3.org/2000/svg" xmlns:xlink="http://www.w3.org/1999/xlink" x="0px" y="0px"
	 width="428.794px" height="349.838px" viewBox="120.356 269.411 428.794 349.838"
	 enable-background="new 120.356 269.411 428.794 349.838" xml:space="preserve">
<g>
	
		<ellipse transform="matrix(-0.8072 -0.5902 0.5902 -0.8072 260.9646 835.454)" opacity="0.3" fill="#1DBCBD" enable-background="new    " cx="266.908" cy="375.113" rx="142.3" ry="54.543"/>
	
		<line fill="none" stroke="#000000" stroke-width="5" stroke-miterlimit="10" x1="220.356" y1="557.209" x2="204.646" y2="594.153"/>
	
		<line fill="none" stroke="#000000" stroke-width="5" stroke-miterlimit="10" x1="425.252" y1="557.209" x2="442.734" y2="596.679"/>
	
		<line fill="none" stroke="#000000" stroke-width="5" stroke-miterlimit="10" x1="372.805" y1="567.308" x2="376.802" y2="619.056"/>
	<line fill="none" stroke="#000000" stroke-width="5" stroke-miterlimit="10" x1="277" y1="572.203" x2="263.014" y2="613.463"/>
	
		<line fill="none" stroke="#000000" stroke-width="10" stroke-miterlimit="10" x1="144.832" y1="311.363" x2="174.902" y2="375.699"/>
	<line fill="none" stroke="#000000" stroke-width="10" stroke-miterlimit="10" x1="277" y1="311.363" x2="246.93" y2="375.699"/>
	<g>
		<path fill="{{dark-color}}" d="M345.68,405.525c-4.996-0.298-10.061-0.455-15.184-0.455c-11.723,0-23.139,0.804-34.118,2.316
			c7.546,20.558,13.704,50.583,13.14,93.488c-0.572,43.474-7.109,73.255-14.639,93.278c11.438,1.649,23.36,2.525,35.617,2.525
			c4.566,0,9.086-0.128,13.554-0.366c7.871-20.021,14.875-50.375,15.468-95.438C360.1,456.652,353.539,426.118,345.68,405.525z"/>
		<path d="M296.378,407.386c-16.575,2.284-32.153,6.191-46.267,11.444c5.726,19.807,9.873,46.501,9.405,82.042
			c-0.47,35.684-4.96,62.135-10.717,81.545c14.034,5.343,29.547,9.352,46.078,11.734c7.527-20.023,14.065-49.806,14.639-93.279
			C310.082,457.969,303.924,427.944,296.378,407.386z"/>
		<path fill="{{dark-color}}" d="M250.112,418.832c-17.311,6.444-32.417,14.906-44.459,24.857c2.615,15.874,4.16,34.766,3.865,57.186
			c-0.292,22.168-2.138,40.766-4.872,56.336c11.903,10.063,26.908,18.645,44.155,25.21c5.757-19.411,10.247-45.862,10.717-81.545
			C259.985,465.334,255.837,438.638,250.112,418.832z"/>
		<path d="M205.653,443.688c-19.314,15.961-30.75,35.751-30.75,57.186c0,21.059,11.042,40.523,29.743,56.335
			c2.734-15.569,4.581-34.168,4.872-56.335C209.812,478.454,208.268,459.562,205.653,443.688z"/>
		<path d="M486.091,500.874c0-21.299-11.294-40.972-30.389-56.879c2.584,15.812,4.107,34.604,3.814,56.879
			c-0.302,22.954-2.271,42.085-5.165,57.986C474.262,542.762,486.091,522.671,486.091,500.874z"/>
		<path fill="{{dark-color}}" d="M455.702,443.995c-14.79-12.322-34.263-22.383-56.801-29.188c6.341,20.166,11.115,48.062,10.615,86.065
			c-0.512,38.859-5.791,66.772-12.281,86.563c22.562-6.607,42.129-16.46,57.116-28.577c2.896-15.9,4.863-35.032,5.165-57.986
			C459.811,478.599,458.286,459.806,455.702,443.995z"/>
		<path d="M398.902,414.808c-16.337-4.932-34.281-8.153-53.223-9.283c7.859,20.593,14.42,51.127,13.838,95.35
			c-0.593,45.062-7.597,75.416-15.468,95.438c18.896-1.004,36.827-4.085,53.187-8.875c6.49-19.791,11.771-47.704,12.281-86.562
			C410.018,462.871,405.242,434.974,398.902,414.808z"/>
	</g>
	<circle fill="{{color}}" cx="208.998" cy="436.369" r="88.642"/>
	<circle fill="#F1BCCF" cx="159.867" cy="449.966" r="29.021"/>
	<circle fill="#F1BCCF" cx="254.972" cy="449.966" r="29.021"/>
	<ellipse stroke="#000000" stroke-miterlimit="10" cx="191.685" cy="392.133" rx="6.993" ry="16.434"/>
	<ellipse stroke="#000000" stroke-miterlimit="10" cx="227.35" cy="392.133" rx="6.993" ry="16.434"/>
	<circle stroke="#000000" stroke-miterlimit="10" cx="277" cy="311.363" r="13.986"/>
	<circle stroke="#000000" stroke-miterlimit="10" cx="144.832" cy="311.363" r="13.986"/>
	<path fill="none" stroke="#000000" stroke-width="6" stroke-miterlimit="10" d="M159.867,449.967c0,0,7.987,29.021,47.552,29.021
		c39.563,0,47.552-29.021,47.552-29.021"/>
	
		<ellipse transform="matrix(0.7684 -0.64 0.64 0.7684 -136.0015 363.5945)" opacity="0.3" fill="#1DBCBD" enable-background="new    " cx="434.332" cy="369.694" rx="142.31" ry="54.546"/>
</g>
</svg>
