<?xml version="1.0" encoding="utf-8"?>
<!-- Generator: Adobe Illustrator 16.0.0, SVG Export Plug-In . SVG Version: 6.00 Build 0)  -->
<!DOCTYPE svg PUBLIC "-//W3C//DTD SVG 1.1//EN" "http://www.w3.org/Graphics/SVG/1.1/DTD/svg11.dtd">
<svg version="1.1" id="Layer_1" xmlns="http://www.w3.org/2000/svg" xmlns:xlink="http://www.w3.org/1999/xlink" x="0px" y="0px"
	 width="117.299px" height="103.046px" viewBox="0 0 117.299 103.046" enable-background="new 0 0 117.299 103.046"
	 xml:space="preserve">
<g>
	<polygon fill="#147E35" points="115.421,30.704 94.06,35.071 98.207,39.601 	"/>
	<g>
		<line fill="none" stroke="#CA9E67" stroke-width="2" stroke-miterlimit="10" x1="45.792" y1="85.375" x2="53.792" y2="102.625"/>
		<line fill="none" stroke="#CA9E67" stroke-width="2" stroke-miterlimit="10" x1="52.028" y1="98.823" x2="59.667" y2="99.125"/>
		<line fill="none" stroke="#CA9E67" stroke-width="2" stroke-miterlimit="10" x1="52.028" y1="98.823" x2="57.042" y2="96.125"/>
		<line fill="none" stroke="#CA9E67" stroke-width="2" stroke-miterlimit="10" x1="62.792" y1="99.125" x2="58.292" y2="85.375"/>
		<line fill="none" stroke="#CA9E67" stroke-width="2" stroke-miterlimit="10" x1="61.811" y1="96.125" x2="69.5" y2="96.125"/>
		<line fill="none" stroke="#CA9E67" stroke-width="2" stroke-miterlimit="10" x1="61.811" y1="96.125" x2="67.333" y2="93.25"/>
	</g>
	<polygon fill="#147E35" points="117.299,42.43 98.111,39.417 97.175,46.405 	"/>
	<path fill="#65BEA9" d="M73.167,15.083c-16.5,0-24.833,12.5-34.833,25.333S25.167,58.75,0,61.917c8,9.5,30.909,27.87,54,26.166
		c24.834-1.833,43.001-12.999,46.334-33.833c1.37-8.562,0.065-16.701-3.195-23.319C92.464,21.444,83.77,15.083,73.167,15.083z"/>
	<ellipse fill="#FFFFFF" cx="80.917" cy="37.417" rx="7.75" ry="6.833"/>
	<ellipse fill="#662483" cx="82.5" cy="36.535" rx="3.667" ry="3.048"/>
	<path fill="#147E35" d="M41.266,74.856c-0.429-2.591,0.48-5.083,2.21-6.723c-2.167-0.999-3.824-3.062-4.253-5.653
		c-0.679-4.084,1.97-7.92,5.906-8.57c6.446-1.063,18.934,8.046,22.261,10.278c-2.319,3.098-11.332,15.82-17.776,16.884
		C45.678,81.72,41.938,78.938,41.266,74.856z"/>
	<path fill="#EDEDED" d="M89.891,21.406c-5.399,0.546-11.228,0.844-17.308,0.844c-6.115,0-11.976-0.302-17.4-0.854
		c-2.01,1.561-3.899,3.35-5.721,5.299c6.93,0.991,14.786,1.555,23.121,1.555c7.941,0,15.451-0.51,22.137-1.415
		C93.312,24.801,91.695,22.977,89.891,21.406z"/>
	<path fill="#EDEDED" d="M95.917,14.333c0,0,0.033,10.667-2.983,11.25s-2.351-1.417-2.351-1.417S95.189,26,94.72,14.333
		S95.917,14.333,95.917,14.333z"/>
	<ellipse fill="#92D4F6" cx="95.559" cy="9.75" rx="2.625" ry="9.75"/>
</g>
</svg>
