<?xml version="1.0" encoding="utf-8"?>
<!-- Generator: Adobe Illustrator 16.0.0, SVG Export Plug-In . SVG Version: 6.00 Build 0)  -->
<!DOCTYPE svg PUBLIC "-//W3C//DTD SVG 1.1//EN" "http://www.w3.org/Graphics/SVG/1.1/DTD/svg11.dtd">
<svg version="1.1" id="Layer_1" xmlns="http://www.w3.org/2000/svg" xmlns:xlink="http://www.w3.org/1999/xlink" x="0px" y="0px"
	 width="117.299px" height="107.421px" viewBox="0 0 117.299 107.421" enable-background="new 0 0 117.299 107.421"
	 xml:space="preserve">
<g>
	<polygon fill="#FFD700" points="115.421,35.079 94.06,39.446 98.207,43.976 	"/>
	<g>
		<line fill="none" stroke="#CA9E67" stroke-width="2" stroke-miterlimit="10" x1="45.792" y1="89.75" x2="53.792" y2="107"/>
		<line fill="none" stroke="#CA9E67" stroke-width="2" stroke-miterlimit="10" x1="52.028" y1="103.198" x2="59.667" y2="103.5"/>
		<line fill="none" stroke="#CA9E67" stroke-width="2" stroke-miterlimit="10" x1="52.028" y1="103.198" x2="57.042" y2="100.5"/>
		<line fill="none" stroke="#CA9E67" stroke-width="2" stroke-miterlimit="10" x1="62.792" y1="103.5" x2="58.292" y2="89.75"/>
		<line fill="none" stroke="#CA9E67" stroke-width="2" stroke-miterlimit="10" x1="61.812" y1="100.5" x2="69.5" y2="100.5"/>
		<line fill="none" stroke="#CA9E67" stroke-width="2" stroke-miterlimit="10" x1="61.812" y1="100.5" x2="67.333" y2="97.625"/>
	</g>
	<polygon fill="#FFD700" points="117.299,46.805 98.11,43.792 97.175,50.779 	"/>
	<path fill="#FFFFFF" d="M73.167,19.458c-16.5,0-24.833,12.5-34.833,25.333S25.167,63.125,0,66.292c8,9.5,30.909,27.87,54,26.166
		c24.834-1.833,43.001-12.999,46.334-33.833c1.37-8.562,0.065-16.701-3.194-23.319C92.464,25.819,83.771,19.458,73.167,19.458z"/>
	<ellipse fill="#EDEDED" cx="80.917" cy="41.792" rx="7.75" ry="6.833"/>
	<ellipse fill="#662483" cx="82.5" cy="40.91" rx="3.667" ry="3.048"/>
	<path fill="#EFEFEF" d="M41.266,79.23c-0.429-2.59,0.48-5.082,2.21-6.723c-2.167-0.999-3.824-3.062-4.253-5.652
		c-0.679-4.084,1.97-7.92,5.906-8.57c6.446-1.062,18.935,8.046,22.261,10.277c-2.318,3.099-11.332,15.82-17.776,16.885
		C45.678,86.094,41.938,83.312,41.266,79.23z"/>
	<path fill="#FDEB1A" d="M65.599,11.506c-9.41,2.202-23.683,4.312-24.435,1.096c-0.752-3.215,12.974-7.657,22.383-9.859
		c9.409-2.202,23.681-4.311,24.433-1.096S75.007,9.304,65.599,11.506z M64.216,4.469c-12.066,2.824-19.349,6.403-19.062,7.627
		c0.287,1.225,8.402,1.201,20.468-1.623C77.687,7.65,84.97,4.07,84.683,2.846C84.396,1.622,76.28,1.646,64.216,4.469z"/>
</g>
</svg>
