<?xml version="1.0" encoding="utf-8"?>
<!-- Generator: Adobe Illustrator 16.0.0, SVG Export Plug-In . SVG Version: 6.00 Build 0)  -->
<!DOCTYPE svg PUBLIC "-//W3C//DTD SVG 1.1//EN" "http://www.w3.org/Graphics/SVG/1.1/DTD/svg11.dtd">
<svg version="1.1" id="Layer_1" xmlns="http://www.w3.org/2000/svg" xmlns:xlink="http://www.w3.org/1999/xlink" x="0px" y="0px"
	 width="117.299px" height="104.773px" viewBox="0 0 117.299 104.773" enable-background="new 0 0 117.299 104.773"
	 xml:space="preserve">
<g>
	<polygon fill="#E30613" points="115.421,32.431 94.06,36.798 98.207,41.328 	"/>
	<g>
		<line fill="none" stroke="#CA9E67" stroke-width="2" stroke-miterlimit="10" x1="45.792" y1="87.102" x2="53.792" y2="104.352"/>
		<line fill="none" stroke="#CA9E67" stroke-width="2" stroke-miterlimit="10" x1="52.028" y1="100.55" x2="59.667" y2="100.852"/>
		<line fill="none" stroke="#CA9E67" stroke-width="2" stroke-miterlimit="10" x1="52.028" y1="100.55" x2="57.042" y2="97.852"/>
		<line fill="none" stroke="#CA9E67" stroke-width="2" stroke-miterlimit="10" x1="62.792" y1="100.852" x2="58.292" y2="87.102"/>
		<line fill="none" stroke="#CA9E67" stroke-width="2" stroke-miterlimit="10" x1="61.812" y1="97.852" x2="69.5" y2="97.852"/>
		<line fill="none" stroke="#CA9E67" stroke-width="2" stroke-miterlimit="10" x1="61.812" y1="97.852" x2="67.333" y2="94.977"/>
	</g>
	<polygon fill="#E30613" points="117.299,44.157 98.11,41.145 97.175,48.132 	"/>
	<path fill="#683C11" d="M73.167,16.811c-16.5,0-24.833,12.5-34.833,25.333S25.167,60.477,0,63.644c8,9.5,30.909,27.87,54,26.166
		c24.834-1.833,43.001-12.999,46.334-33.833c1.37-8.562,0.065-16.701-3.194-23.319C92.464,23.171,83.771,16.811,73.167,16.811z"/>
	<ellipse fill="#FFFFFF" cx="80.917" cy="39.144" rx="7.75" ry="6.833"/>
	<ellipse fill="#662483" cx="82.5" cy="36.07" rx="3.667" ry="3.048"/>
	<path fill="#E30613" d="M41.266,76.583c-0.429-2.591,0.48-5.083,2.21-6.723c-2.167-0.999-3.824-3.062-4.253-5.653
		c-0.679-4.084,1.97-7.92,5.906-8.569c6.446-1.063,18.935,8.046,22.261,10.277c-2.318,3.099-11.332,15.82-17.776,16.884
		C45.678,83.447,41.938,80.666,41.266,76.583z"/>
	<path d="M47.551,25.478c0.221,0.174,0.457,0.313,0.701,0.431c-0.556,1.479-0.143,3.204,1.164,4.235
		c1.285,1.014,3.022,1.033,4.325,0.192c0.055,0.048,0.098,0.104,0.156,0.15c1.602,1.264,3.915,1.001,5.199-0.576
		c-0.081,2.016,1.453,3.741,3.477,3.873c0.675,0.044,1.31-0.109,1.875-0.387c0.432,1.455,1.721,2.561,3.322,2.665
		c1.426,0.093,2.703-0.641,3.404-1.777c0.184,0.041,0.367,0.082,0.561,0.094c2.057,0.134,3.83-1.425,3.965-3.479
		c1.365,0.089,2.595-0.579,3.312-1.635c0.553,0.409,1.219,0.678,1.957,0.726c1.426,0.093,2.703-0.64,3.404-1.777
		c0.184,0.041,0.367,0.081,0.561,0.095c2.057,0.133,3.83-1.426,3.965-3.48c2.055,0.133,3.828-1.425,3.963-3.479
		c0.115-1.79-1.053-3.364-2.713-3.831c0.002-0.028,0.013-0.055,0.015-0.082c0.134-2.056-1.425-3.83-3.479-3.963
		c-0.361-0.023-0.707,0.021-1.045,0.097c-0.299-1.646-1.673-2.945-3.418-3.059c-1.176-0.076-2.246,0.411-2.979,1.222
		c-0.085-1.278-0.813-2.479-2.048-3.087c-1.465-0.727-3.168-0.386-4.27,0.706c-0.349-0.508-0.812-0.945-1.404-1.237
		c-1.846-0.914-4.082-0.158-4.996,1.688c-0.069,0.142-0.127,0.285-0.174,0.432c-0.138,0.018-0.272,0.038-0.406,0.066
		c-0.299-1.646-1.674-2.944-3.418-3.058c-1.633-0.106-3.073,0.864-3.669,2.294c-0.518-0.334-1.113-0.56-1.772-0.603
		c-2.055-0.134-3.83,1.425-3.963,3.479c-0.018,0.281,0.001,0.555,0.043,0.823c-0.251,0.062-0.489,0.158-0.718,0.269
		c-1.375-0.34-2.881,0.112-3.816,1.296c-1.013,1.284-1.033,3.021-0.192,4.324c-0.569,0.236-1.093,0.6-1.502,1.117
		C45.657,21.856,45.934,24.202,47.551,25.478z"/>
	<path fill="#95C11F" d="M71.647,15.167c0,0,15.394,3.729,19.487,0.697c4.095-3.032,4.11-14.146-2.469-15.554
		c-7-1.5-13.763,2.912-19.649,3.167C61.294,3.811,48.238,2.371,46.162,5.1c-2.076,2.729-3.82,14.673,1.061,15.752
		C52.104,21.931,64.545,17.242,71.647,15.167z"/>
	<path d="M55.007,19.677c-0.132,0-0.259,0.021-0.386,0.039c0-0.014,0.004-0.025,0.004-0.039c0-1.473-1.194-2.667-2.667-2.667
		s-2.666,1.194-2.666,2.667c0,0.009,0.002,0.017,0.002,0.025c-0.082-0.008-0.162-0.025-0.246-0.025
		c-1.473,0-2.667,1.194-2.667,2.667c0,1.474,1.194,2.668,2.667,2.668c1.473,0,2.667-1.194,2.667-2.668
		c0-0.008-0.002-0.016-0.002-0.023c0.082,0.008,0.161,0.025,0.245,0.025c0.132,0,0.259-0.021,0.387-0.039
		c0,0.013-0.004,0.024-0.004,0.039c0,1.473,1.193,2.667,2.666,2.667c1.473,0,2.667-1.194,2.667-2.667
		C57.674,20.872,56.48,19.677,55.007,19.677z"/>
	<path d="M74.28,14.677c-0.133,0-0.258,0.021-0.385,0.039c0-0.014,0.004-0.025,0.004-0.039c0-1.473-1.195-2.667-2.668-2.667
		c-1.474,0-2.666,1.194-2.666,2.667c0,0.009,0.002,0.017,0.002,0.025c-0.082-0.008-0.16-0.025-0.246-0.025
		c-1.473,0-2.666,1.194-2.666,2.667c0,1.474,1.193,2.668,2.666,2.668c1.475,0,2.668-1.194,2.668-2.668
		c0-0.008-0.002-0.016-0.002-0.023c0.082,0.008,0.16,0.025,0.244,0.025c0.133,0,0.26-0.021,0.387-0.039
		c0,0.013-0.004,0.024-0.004,0.039c0,1.473,1.193,2.667,2.666,2.667s2.668-1.194,2.668-2.667
		C76.948,15.872,75.753,14.677,74.28,14.677z"/>
	<path d="M60.517,17.602c-0.129,0.032-0.246,0.084-0.363,0.133c-0.004-0.013-0.004-0.026-0.006-0.039
		c-0.367-1.427-1.82-2.287-3.248-1.921c-1.427,0.366-2.286,1.817-1.921,3.245c0.002,0.008,0.007,0.015,0.009,0.022
		c-0.082,0.014-0.162,0.017-0.245,0.037c-1.426,0.366-2.287,1.819-1.921,3.246c0.366,1.427,1.819,2.287,3.246,1.921
		c1.427-0.366,2.287-1.819,1.921-3.246c-0.002-0.008-0.006-0.015-0.008-0.022c0.081-0.014,0.161-0.017,0.242-0.037
		c0.129-0.033,0.247-0.084,0.365-0.134c0.003,0.013,0.003,0.024,0.006,0.039c0.365,1.427,1.818,2.286,3.244,1.921
		c1.427-0.366,2.288-1.819,1.923-3.246C63.396,18.096,61.94,17.236,60.517,17.602z"/>
	<path d="M66.979,17.772c-0.129-0.019-0.258-0.017-0.385-0.016c0.002-0.014,0.006-0.024,0.008-0.038
		c0.205-1.458-0.812-2.807-2.271-3.012s-2.808,0.812-3.013,2.271c0,0.008,0.002,0.016,0,0.024c-0.079-0.019-0.155-0.047-0.239-0.059
		c-1.459-0.205-2.808,0.811-3.012,2.269c-0.205,1.459,0.811,2.809,2.27,3.013c1.459,0.205,2.808-0.812,3.013-2.271
		c0-0.008,0-0.016,0.002-0.023c0.08,0.02,0.154,0.047,0.237,0.059c0.132,0.019,0.261,0.016,0.388,0.015
		c0,0.014-0.006,0.025-0.008,0.038c-0.205,1.459,0.811,2.808,2.268,3.013c1.459,0.204,2.81-0.812,3.015-2.271
		C69.457,19.326,68.438,17.977,66.979,17.772z"/>
	<path d="M79.849,14.602c-0.127,0.032-0.244,0.084-0.363,0.133c-0.004-0.013-0.002-0.026-0.006-0.039
		c-0.365-1.427-1.819-2.287-3.246-1.921c-1.426,0.366-2.285,1.817-1.92,3.245c0.002,0.008,0.006,0.015,0.008,0.022
		c-0.08,0.014-0.161,0.017-0.244,0.037c-1.426,0.366-2.287,1.819-1.922,3.246c0.367,1.427,1.82,2.287,3.246,1.921
		c1.428-0.366,2.287-1.819,1.922-3.246c-0.002-0.008-0.006-0.015-0.008-0.022c0.08-0.014,0.16-0.017,0.242-0.037
		c0.129-0.033,0.246-0.084,0.364-0.134c0.003,0.013,0.003,0.024,0.007,0.039c0.364,1.427,1.817,2.286,3.243,1.921
		c1.427-0.366,2.288-1.819,1.923-3.246C82.729,15.096,81.274,14.236,79.849,14.602z"/>
	<path d="M89.487,17.772c-0.131-0.019-0.258-0.017-0.387-0.016c0.002-0.014,0.008-0.024,0.01-0.038
		c0.205-1.458-0.812-2.807-2.271-3.012s-2.807,0.812-3.012,2.271c-0.001,0.008,0.001,0.016,0,0.024
		c-0.08-0.019-0.156-0.047-0.24-0.059c-1.459-0.205-2.809,0.811-3.012,2.269c-0.205,1.459,0.811,2.809,2.27,3.013
		c1.459,0.205,2.807-0.812,3.012-2.271c0.002-0.008,0-0.016,0.002-0.023c0.08,0.02,0.156,0.047,0.238,0.059
		c0.131,0.019,0.26,0.016,0.389,0.015c-0.002,0.014-0.008,0.025-0.01,0.038c-0.205,1.459,0.812,2.808,2.27,3.013
		c1.459,0.204,2.809-0.812,3.014-2.271C91.964,19.326,90.946,17.977,89.487,17.772z"/>
	<g>
		<path fill="#FFFFFF" stroke="#EDEDED" stroke-miterlimit="10" d="M31.663,2.58c0,0,16.163-3.229,29.626,5.062
			C49.515,9.674,45.583,8.924,31.663,2.58z"/>
		<path fill="none" stroke="#EDEDED" stroke-miterlimit="10" d="M44.833,4.817l19.814,3.439c0,0,1.381-0.019,5.564,1.306"/>
	</g>
</g>
</svg>
