<?xml version="1.0" encoding="utf-8"?>
<!-- Generator: Adobe Illustrator 16.0.0, SVG Export Plug-In . SVG Version: 6.00 Build 0)  -->
<!DOCTYPE svg PUBLIC "-//W3C//DTD SVG 1.1//EN" "http://www.w3.org/Graphics/SVG/1.1/DTD/svg11.dtd">
<svg version="1.1" id="Layer_1" xmlns="http://www.w3.org/2000/svg" xmlns:xlink="http://www.w3.org/1999/xlink" x="0px" y="0px"
	 width="117.299px" height="87.962px" viewBox="0 0 117.299 87.962" enable-background="new 0 0 117.299 87.962"
	 xml:space="preserve">
<g>
	<polygon fill="#E71D73" points="115.421,15.621 94.06,19.988 98.207,24.518 	"/>
	<g>
		<line fill="none" stroke="#CA9E67" stroke-width="2" stroke-miterlimit="10" x1="45.792" y1="70.292" x2="53.792" y2="87.542"/>
		<line fill="none" stroke="#CA9E67" stroke-width="2" stroke-miterlimit="10" x1="52.028" y1="83.74" x2="59.667" y2="84.042"/>
		<line fill="none" stroke="#CA9E67" stroke-width="2" stroke-miterlimit="10" x1="52.028" y1="83.74" x2="57.042" y2="81.042"/>
		<line fill="none" stroke="#CA9E67" stroke-width="2" stroke-miterlimit="10" x1="62.792" y1="84.042" x2="58.292" y2="70.292"/>
		<line fill="none" stroke="#CA9E67" stroke-width="2" stroke-miterlimit="10" x1="61.811" y1="81.042" x2="69.5" y2="81.042"/>
		<line fill="none" stroke="#CA9E67" stroke-width="2" stroke-miterlimit="10" x1="61.811" y1="81.042" x2="67.333" y2="78.167"/>
	</g>
	<polygon fill="#E71D73" points="117.299,27.347 98.111,24.334 97.175,31.321 	"/>
	<path fill="#F6BDD8" d="M73.167,0c-16.5,0-24.833,12.5-34.833,25.333S25.167,43.667,0,46.833c8,9.5,30.909,27.87,54,26.166
		C78.834,71.167,97.001,60,100.334,39.167c1.37-8.562,0.065-16.701-3.195-23.319C92.464,6.361,83.77,0,73.167,0z"/>
	<ellipse fill="#FFFFFF" cx="80.917" cy="22.333" rx="7.75" ry="6.833"/>
	<ellipse fill="#662483" cx="82.5" cy="21.452" rx="3.667" ry="3.048"/>
	<path fill="#ED709B" d="M41.266,59.773c-0.429-2.591,0.48-5.083,2.21-6.723c-2.167-0.999-3.824-3.062-4.253-5.653
		c-0.679-4.084,1.97-7.92,5.906-8.57c6.446-1.063,18.934,8.046,22.261,10.278c-2.319,3.098-11.332,15.82-17.776,16.884
		C45.678,66.636,41.938,63.855,41.266,59.773z"/>
</g>
</svg>
