<?xml version="1.0" encoding="utf-8"?>
<!-- Generator: Adobe Illustrator 16.0.0, SVG Export Plug-In . SVG Version: 6.00 Build 0)  -->
<!DOCTYPE svg PUBLIC "-//W3C//DTD SVG 1.1//EN" "http://www.w3.org/Graphics/SVG/1.1/DTD/svg11.dtd">
<svg version="1.1" id="Layer_1" xmlns="http://www.w3.org/2000/svg" xmlns:xlink="http://www.w3.org/1999/xlink" x="0px" y="0px"
	 width="148.658px" height="131.905px" viewBox="0 0 148.658 131.905" enable-background="new 0 0 148.658 131.905"
	 xml:space="preserve">
<g id="layer1">
	<path id="path3564-8" fill="#8062AA" d="M370.575,367.907c-2.546-0.003-4.377,0.665-6.566,1.083
		c-2.75,0.932-4.423,3.02-3.682,7.732c-0.502,2.497,0.596,4.447,1.53,6.456c0.749,3.645-2.31,2.521,5.118,15.086
		c0.793,1.342,1.875,2.478,1.701,4.039c-2.719,3.849-2.517,7.455-0.939,10.949c-4.29,8.669,4.476,14.975,11.035,16.1l14.436-0.328
		c-12.727,3.611-20.97,7.903-25.303,13.827c-1.63,2.227-3.713,8.528-0.197,8.713l0.274,4.97c-1.752,2.249-1.443,4.479,1.777,6.7
		l0.027,4.864c-0.398,1.996-1.257,3.658,2.522,5.081c0.477,2.627,0.962,4.121,0.794,7.075c-1.082,3.919,0.778,5.354,3.635,5.952
		c1.38,1.772,3.165,2.923,3.636,6.074c-0.212,1.834,1.505,3.143,6.746,3.456l3.493,2.458c1.571,1.38,3.057,1.124,6.708-0.529
		c14.795-6.701,27.289-17.36,35.137-36.062c0.382,4.107,1.101,6.237,2.514,6.251c1.429,0.013,2.11-2.171,2.427-6.386
		c8.056,18.688,20.716,29.222,35.619,35.77c3.669,1.613,5.173,1.867,6.729,0.471l3.465-2.514c5.236-0.372,6.924-1.686,6.69-3.516
		c0.437-3.157,2.224-4.328,3.583-6.115c2.85-0.631,4.693-2.087,3.568-5.992c-0.202-2.953,0.267-4.468,0.713-7.101
		c3.764-1.465,2.871-3.117,2.451-5.108l-0.027-4.848c3.193-2.258,3.479-4.508,1.701-6.736l0.233-4.973
		c3.513-0.225,1.344-6.501-0.312-8.711c-4.399-5.873-12.675-10.072-25.441-13.54l14.423,0.181
		c6.545-1.199,15.239-7.618,10.853-16.238c1.538-3.512,1.715-7.12-1.047-10.938c-0.192-1.559,0.877-2.707,1.654-4.058
		c7.287-12.647,4.24-11.49,4.948-15.143c0.911-2.02,1.987-3.981,1.456-6.473c0.689-4.721-1.008-6.791-3.768-7.69
		c-2.508-0.451-4.552-1.235-7.717-0.957c-33.837,2.979-46.773,28.348-59.137,54.667c-0.088-3.742-0.824-5.373-3.446-5.291
		c-2.357,0.074-3.079,1.664-3.188,5.221c-12.642-26.139-25.865-51.296-59.686-53.89
		C371.319,367.916,370.939,367.908,370.575,367.907L370.575,367.907z"/>
</g>
</svg>
