<?xml version="1.0" encoding="utf-8"?>
<!-- Generator: Adobe Illustrator 16.0.0, SVG Export Plug-In . SVG Version: 6.00 Build 0)  -->
<!DOCTYPE svg PUBLIC "-//W3C//DTD SVG 1.1//EN" "http://www.w3.org/Graphics/SVG/1.1/DTD/svg11.dtd">
<svg version="1.1" id="Layer_1" xmlns="http://www.w3.org/2000/svg" xmlns:xlink="http://www.w3.org/1999/xlink" x="0px" y="0px"
	 width="495.448px" height="286.931px" viewBox="0 0 495.448 286.931" enable-background="new 0 0 495.448 286.931"
	 xml:space="preserve">
<g>
	<path fill="#FFFFFF" d="M219.767,286.931c-20.496,0-39.48-7.979-53.482-21.764c-14.741,10.234-32.349,15.843-50.777,15.843
		c-47.721,0-86.81-37.668-89.09-84.836C9.89,182.097,0,161.188,0,139.188c0-39.702,31.119-72.271,70.248-74.593
		C88.863,25.398,128.308,0,172.736,0c36.452,0,70.477,17.73,91.624,46.533c15.243-7.245,31.915-11.012,49.142-11.012
		c29.963,0,58.209,11.495,79.485,31.96c7.089-1.989,14.452-3.017,21.817-3.017c44.468,0,80.644,36.178,80.644,80.645
		c0,38.663-27.351,71.06-63.715,78.859c-6.42,15.617-21.8,26.64-39.703,26.64c-5.834,0-11.528-1.187-16.775-3.422
		c-18.354,11.709-39.792,18.035-61.753,18.035c-12.154,0-23.968-1.855-35.299-5.535
		C263.867,276.644,242.478,286.931,219.767,286.931z"/>
	<g>
		<g>
			<path fill="none" stroke="#00AEEF" stroke-width="3" stroke-linecap="round" stroke-linejoin="round" d="M389.657,90.067
				c-0.759,0.348-1.509,0.71-2.25,1.087c-0.521-0.65-1.051-1.293-1.589-1.929"/>
			
				<path fill="none" stroke="#00AEEF" stroke-width="3" stroke-linecap="round" stroke-linejoin="round" stroke-dasharray="4.822,9.644" d="
				M379.229,82.193c-17.03-16.43-40.193-26.543-65.728-26.543c-18.378,0-35.525,5.241-50.046,14.301"/>
			<path fill="none" stroke="#00AEEF" stroke-width="3" stroke-linecap="round" stroke-linejoin="round" d="M259.426,72.609
				c-0.684,0.477-1.361,0.961-2.031,1.455c-0.353-0.756-0.716-1.506-1.088-2.251"/>
			
				<path fill="none" stroke="#00AEEF" stroke-width="3" stroke-linecap="round" stroke-linejoin="round" stroke-dasharray="4.9776,9.9551" d="
				M251.387,63.165c-16.604-25.881-45.618-43.037-78.651-43.037c-39.118,0-72.611,24.051-86.521,58.168"/>
			<path fill="none" stroke="#00AEEF" stroke-width="3" stroke-linecap="round" stroke-linejoin="round" d="M84.458,82.961
				c-0.272,0.786-0.534,1.577-0.786,2.373c-0.819-0.135-1.644-0.253-2.475-0.352"/>
			
				<path fill="none" stroke="#00AEEF" stroke-width="3" stroke-linecap="round" stroke-linejoin="round" stroke-dasharray="5.036,10.072" d="
				M71.14,84.709c-28.481,1.846-51.011,25.531-51.011,54.479c0,17.201,7.957,32.539,20.389,42.547"/>
			<path fill="none" stroke="#00AEEF" stroke-width="3" stroke-linecap="round" stroke-linejoin="round" d="M44.583,184.711
				c0.694,0.46,1.398,0.905,2.114,1.334c-0.068,0.828-0.126,1.659-0.169,2.494"/>
			
				<path fill="none" stroke="#00AEEF" stroke-width="3" stroke-linecap="round" stroke-linejoin="round" stroke-dasharray="4.8802,9.7604" d="
				M46.74,198.292c3.267,35.107,32.807,62.59,68.768,62.59c19.053,0,36.295-7.721,48.789-20.197"/>
			<path fill="none" stroke="#00AEEF" stroke-width="3" stroke-linecap="round" stroke-linejoin="round" d="M167.608,237.138
				c0.547-0.628,1.083-1.267,1.607-1.914c0.367,0.75,0.749,1.49,1.147,2.221"/>
			
				<path fill="none" stroke="#00AEEF" stroke-width="3" stroke-linecap="round" stroke-linejoin="round" stroke-dasharray="5.2656,10.5312" d="
				M176.239,246.167c10.312,12.596,25.98,20.636,43.528,20.636c19.614,0,36.88-10.043,46.944-25.265"/>
			<path fill="none" stroke="#00AEEF" stroke-width="3" stroke-linecap="round" stroke-linejoin="round" d="M269.408,237.011
				c0.392-0.733,0.768-1.478,1.128-2.23c0.741,0.378,1.488,0.747,2.24,1.105"/>
			
				<path fill="none" stroke="#00AEEF" stroke-width="3" stroke-linecap="round" stroke-linejoin="round" stroke-dasharray="5.3134,10.6269" d="
				M282.604,239.917c9.683,3.35,20.074,5.177,30.897,5.177c20.577,0,39.612-6.575,55.146-17.725"/>
			<path fill="none" stroke="#00AEEF" stroke-width="3" stroke-linecap="round" stroke-linejoin="round" d="M372.871,224.155
				c0.648-0.522,1.29-1.054,1.925-1.593c0.544,0.632,1.123,1.232,1.732,1.801"/>
			
				<path fill="none" stroke="#00AEEF" stroke-width="3" stroke-linecap="round" stroke-linejoin="round" stroke-dasharray="4.7641,9.5282" d="
				M384.629,229.245c2.319,0.801,4.809,1.235,7.4,1.235c10.807,0,19.856-7.529,22.19-17.628"/>
			<path fill="none" stroke="#00AEEF" stroke-width="3" stroke-linecap="round" stroke-linejoin="round" d="M414.8,208.121
				c0.003-0.138,0.004-0.276,0.004-0.415c0-0.703-0.043-1.396-0.106-2.082c0.036,0,0.071,0.002,0.106,0.002
				c0.802,0,1.6-0.016,2.394-0.047"/>
			
				<path fill="none" stroke="#00AEEF" stroke-width="3" stroke-linecap="round" stroke-linejoin="round" stroke-dasharray="4.855,9.71" d="
				M426.835,204.43c27.657-5.58,48.484-30.019,48.484-59.32c0-33.423-27.096-60.517-60.516-60.517
				c-7.258,0-14.214,1.287-20.661,3.635"/>
		</g>
	</g>
</g>
</svg>
