<?xml version="1.0" encoding="utf-8"?>
<!-- Generator: Adobe Illustrator 16.0.0, SVG Export Plug-In . SVG Version: 6.00 Build 0)  -->
<!DOCTYPE svg PUBLIC "-//W3C//DTD SVG 1.1//EN" "http://www.w3.org/Graphics/SVG/1.1/DTD/svg11.dtd">
<svg version="1.1" id="Layer_1" xmlns="http://www.w3.org/2000/svg" xmlns:xlink="http://www.w3.org/1999/xlink" x="0px" y="0px"
	 width="502.871px" height="266.079px" viewBox="0 0 502.871 266.079" enable-background="new 0 0 502.871 266.079"
	 xml:space="preserve">
<g>
	<path fill="#FFFFFF" d="M168.541,266.079c-18.668,0-35.642-9.514-45.693-24.294c-5.816,1.244-11.774,1.87-17.838,1.87
		c-22.912,0-44.862-9.378-60.751-25.547c-0.303,0.008-0.606,0.011-0.908,0.011C19.447,218.119,0,198.671,0,174.769
		c0-16.427,9.049-30.853,22.817-38.196c5.142-19.354,16.929-36.191,33.357-47.676c1.889-28.84,25.954-51.724,55.264-51.724
		c7.219,0,14.25,1.387,20.776,4.035C155.847,15.131,189.458,0,225.219,0c20.658,0,40.652,4.987,58.647,14.534
		C295.598,5.252,310.278,0,325.496,0c25.913,0,49.04,14.991,60.113,37.387c40.251,0.799,73.082,32.396,75.852,72.144
		c24.025,7.937,41.41,30.604,41.41,57.255c0,33.236-27.042,60.277-60.28,60.277c-6.525,0-12.97-1.067-19.083-3.111
		c-18.283,25.779-48.128,41.615-80.572,41.615c-24.776,0-48.175-9.131-66.204-25.472c-16.116,7.25-33.662,11.035-51.513,11.035
		c-5.905,0-11.819-0.42-17.68-1.255C197.308,260.091,183.291,266.079,168.541,266.079z"/>
	<g>
		<g>
			<path fill="none" stroke="#00AEEF" stroke-width="3" stroke-linecap="round" stroke-linejoin="round" d="M444.108,125.593
				c-0.504-0.018-1.01-0.027-1.518-0.027c-0.33,0-0.652,0.042-0.981,0.049c0.15-0.817,0.284-1.639,0.401-2.467"/>
			
				<path fill="none" stroke="#00AEEF" stroke-width="3" stroke-linecap="round" stroke-linejoin="round" stroke-dasharray="4.7493,9.4986" d="
				M442.576,113.674c-0.692-31.733-26.633-57.244-58.532-57.244c-1.462,0-2.911,0.054-4.346,0.161"/>
			<path fill="none" stroke="#00AEEF" stroke-width="3" stroke-linecap="round" stroke-linejoin="round" d="M374.98,57.132
				c-0.826,0.129-1.646,0.275-2.461,0.438c-0.164-0.82-0.349-1.633-0.554-2.438"/>
			
				<path fill="none" stroke="#00AEEF" stroke-width="3" stroke-linecap="round" stroke-linejoin="round" stroke-dasharray="5.2918,10.5837" d="
				M368.236,45.249c-7.933-15.544-24.092-26.189-42.74-26.189c-13.087,0-24.944,5.246-33.597,13.746"/>
			<path fill="none" stroke="#00AEEF" stroke-width="3" stroke-linecap="round" stroke-linejoin="round" d="M288.33,36.719
				c-0.526,0.645-1.036,1.304-1.529,1.977c-0.679-0.482-1.363-0.957-2.054-1.423"/>
			
				<path fill="none" stroke="#00AEEF" stroke-width="3" stroke-linecap="round" stroke-linejoin="round" stroke-dasharray="5.1644,10.3288" d="
				M275.923,31.911c-15.075-8.189-32.341-12.852-50.704-12.852c-34.186,0-64.603,16.113-84.09,41.152"/>
			<path fill="none" stroke="#00AEEF" stroke-width="3" stroke-linecap="round" stroke-linejoin="round" d="M138.052,64.368
				c-0.479,0.681-0.951,1.368-1.414,2.061c-0.6-0.578-1.218-1.136-1.856-1.673"/>
			
				<path fill="none" stroke="#00AEEF" stroke-width="3" stroke-linecap="round" stroke-linejoin="round" stroke-dasharray="5.1038,10.2075" d="
				M126.16,59.353c-4.498-2.005-9.478-3.122-14.722-3.122c-19.813,0-35.921,15.863-36.316,35.582"/>
			<path fill="none" stroke="#00AEEF" stroke-width="3" stroke-linecap="round" stroke-linejoin="round" d="M75.387,96.909
				c0.103,0.832,0.233,1.655,0.388,2.469c-0.748,0.37-1.488,0.754-2.219,1.151"/>
			
				<path fill="none" stroke="#00AEEF" stroke-width="3" stroke-linecap="round" stroke-linejoin="round" stroke-dasharray="5.5117,11.0234" d="
				M64.351,106.573c-11.492,8.999-19.923,21.724-23.479,36.358"/>
			<path fill="none" stroke="#00AEEF" stroke-width="3" stroke-linecap="round" stroke-linejoin="round" d="M39.796,148.342
				c-0.128,0.82-0.241,1.646-0.338,2.478c-0.83,0.134-1.646,0.31-2.445,0.524"/>
			
				<path fill="none" stroke="#00AEEF" stroke-width="3" stroke-linecap="round" stroke-linejoin="round" stroke-dasharray="5.4226,10.8453" d="
				M27.506,156.381c-5.171,4.445-8.447,11.029-8.447,18.388c0,13.416,10.875,24.291,24.291,24.291c0.212,0,0.424-0.003,0.634-0.009"
				/>
			<path fill="none" stroke="#00AEEF" stroke-width="3" stroke-linecap="round" stroke-linejoin="round" d="M49.341,198.292
				c0.812-0.21,1.607-0.46,2.385-0.746c0.493,0.673,0.998,1.335,1.515,1.988"/>
			
				<path fill="none" stroke="#00AEEF" stroke-width="3" stroke-linecap="round" stroke-linejoin="round" stroke-dasharray="5.0652,10.1303" d="
				M60.109,206.964c11.779,10.94,27.556,17.633,44.9,17.633c7.405,0,14.524-1.224,21.168-3.475"/>
			<path fill="none" stroke="#00AEEF" stroke-width="3" stroke-linecap="round" stroke-linejoin="round" d="M130.9,219.316
				c0.767-0.327,1.527-0.669,2.279-1.024c0.171,0.82,0.369,1.63,0.595,2.429"/>
			
				<path fill="none" stroke="#00AEEF" stroke-width="3" stroke-linecap="round" stroke-linejoin="round" stroke-dasharray="4.826,9.6519" d="
				M137.604,229.55c6.325,10.47,17.812,17.47,30.937,17.47c10.719,0,20.331-4.682,26.939-12.103"/>
			<path fill="none" stroke="#00AEEF" stroke-width="3" stroke-linecap="round" stroke-linejoin="round" d="M198.446,231.106
				c0.466-0.689,0.91-1.396,1.329-2.117c0.808,0.198,1.619,0.388,2.434,0.567"/>
			
				<path fill="none" stroke="#00AEEF" stroke-width="3" stroke-linecap="round" stroke-linejoin="round" stroke-dasharray="4.6459,9.2917" d="
				M211.356,231.165c4.536,0.596,9.163,0.906,13.862,0.906c17.756,0,34.495-4.348,49.214-12.033"/>
			<path fill="none" stroke="#00AEEF" stroke-width="3" stroke-linecap="round" stroke-linejoin="round" d="M278.503,217.799
				c0.722-0.418,1.438-0.844,2.147-1.277c0.521,0.65,1.051,1.293,1.591,1.928"/>
			
				<path fill="none" stroke="#00AEEF" stroke-width="3" stroke-linecap="round" stroke-linejoin="round" stroke-dasharray="4.9759,9.9519" d="
				M289.145,225.604c14.178,12.979,33.054,20.905,53.791,20.905c30.142,0,56.367-16.732,69.918-41.41"/>
			<path fill="none" stroke="#00AEEF" stroke-width="3" stroke-linecap="round" stroke-linejoin="round" d="M415.112,200.661
				c0.354-0.754,0.697-1.514,1.028-2.279c0.638,0.534,1.292,1.051,1.962,1.547"/>
			
				<path fill="none" stroke="#00AEEF" stroke-width="3" stroke-linecap="round" stroke-linejoin="round" stroke-dasharray="4.8177,9.6353" d="
				M426.438,204.711c4.959,2.119,10.418,3.294,16.152,3.294c22.766,0,41.221-18.454,41.221-41.219
				c0-20.617-15.135-37.698-34.9-40.739"/>
		</g>
	</g>
</g>
</svg>
