<?xml version="1.0" encoding="utf-8"?>
<!-- Generator: Adobe Illustrator 16.0.0, SVG Export Plug-In . SVG Version: 6.00 Build 0)  -->
<!DOCTYPE svg PUBLIC "-//W3C//DTD SVG 1.1//EN" "http://www.w3.org/Graphics/SVG/1.1/DTD/svg11.dtd">
<svg version="1.1" id="Layer_1" xmlns="http://www.w3.org/2000/svg" xmlns:xlink="http://www.w3.org/1999/xlink" x="0px" y="0px"
	 width="501.28px" height="270.24px" viewBox="0 0 501.28 270.24" enable-background="new 0 0 501.28 270.24" xml:space="preserve">
<g>
	<path fill="#FFFFFF" d="M358.066,270.24c-15.75,0-30.476-6.369-41.175-17.143c-15.22,5.984-31.513,9.098-47.964,9.098
		c-20.525,0-40.634-4.791-58.824-13.939c-13.832,6.518-28.963,9.921-44.395,9.921c-31.291,0-60.414-13.835-80.122-37.546
		c-35.553-0.184-64.807-27.484-68.094-62.235C6.273,146.5,0,130.879,0,114.222c0-35.634,28.989-64.624,64.624-64.624
		c6.405,0,12.732,0.953,18.799,2.807c16.696-14.711,38.146-22.914,60.838-22.914c11.843,0,23.466,2.26,34.317,6.618
		C202.827,12.987,234.94,0,268.927,0c34.046,0,66.57,13.244,90.911,36.686c3.204-0.328,6.417-0.494,9.622-0.494
		c16.441,0,32.188,4.118,46.243,12.012c7.77-3.483,16.245-5.329,24.842-5.329c33.489,0,60.734,27.245,60.734,60.732
		c0,26.799-17.449,49.726-41.846,57.688c-7.452,22.248-22.935,40.955-43.346,52.467C415.255,245.048,389.546,270.24,358.066,270.24z
		"/>
	<g>
		<g>
			<path fill="none" stroke="#00AEEF" stroke-width="3" stroke-linecap="round" stroke-linejoin="round" d="M417.148,70.9
				c-0.678,0.486-1.339,0.992-1.984,1.518c-0.656-0.512-1.321-1.013-1.995-1.504"/>
			
				<path fill="none" stroke="#00AEEF" stroke-width="3" stroke-linecap="round" stroke-linejoin="round" stroke-dasharray="5.5786,11.1573" d="
				M403.689,65.044c-10.244-5.327-21.882-8.343-34.229-8.343c-3.062,0-6.079,0.191-9.042,0.556"/>
			<path fill="none" stroke="#00AEEF" stroke-width="3" stroke-linecap="round" stroke-linejoin="round" d="M354.904,58.146
				c-0.818,0.164-1.633,0.34-2.442,0.529c-0.546-0.629-1.099-1.252-1.659-1.869"/>
			
				<path fill="none" stroke="#00AEEF" stroke-width="3" stroke-linecap="round" stroke-linejoin="round" stroke-dasharray="4.948,9.896" d="
				M343.838,49.787c-19.699-18.168-46-29.278-74.911-29.278c-31.981,0-60.78,13.583-80.969,35.287"/>
			<path fill="none" stroke="#00AEEF" stroke-width="3" stroke-linecap="round" stroke-linejoin="round" d="M184.665,59.498
				c-0.54,0.635-1.072,1.275-1.598,1.922c-0.699-0.451-1.407-0.89-2.123-1.317"/>
			
				<path fill="none" stroke="#00AEEF" stroke-width="3" stroke-linecap="round" stroke-linejoin="round" stroke-dasharray="5.017,10.034" d="
				M171.996,55.576C163.466,51.988,154.098,50,144.261,50c-19.982,0-38.046,8.183-51.048,21.372"/>
			<path fill="none" stroke="#00AEEF" stroke-width="3" stroke-linecap="round" stroke-linejoin="round" d="M89.815,75.067
				c-0.542,0.632-1.074,1.274-1.594,1.925c-0.702-0.446-1.417-0.873-2.146-1.28"/>
			
				<path fill="none" stroke="#00AEEF" stroke-width="3" stroke-linecap="round" stroke-linejoin="round" stroke-dasharray="4.9831,9.9662" d="
				M76.908,71.86c-3.897-1.139-8.018-1.753-12.284-1.753c-24.365,0-44.115,19.751-44.115,44.115c0,11.555,4.462,22.049,11.74,29.905
				"/>
			<path fill="none" stroke="#00AEEF" stroke-width="3" stroke-linecap="round" stroke-linejoin="round" d="M35.837,147.589
				c0.63,0.544,1.276,1.07,1.937,1.579c-0.046,0.827-0.076,1.659-0.08,2.497"/>
			
				<path fill="none" stroke="#00AEEF" stroke-width="3" stroke-linecap="round" stroke-linejoin="round" stroke-dasharray="4.8736,9.7473" d="
				M38.626,161.355c4.408,22.107,23.92,38.768,47.324,38.768c0.667,0,1.331-0.014,1.991-0.041"/>
			<path fill="none" stroke="#00AEEF" stroke-width="3" stroke-linecap="round" stroke-linejoin="round" d="M92.801,199.633
				c0.828-0.118,1.65-0.258,2.464-0.417c0.452,0.7,0.914,1.394,1.386,2.08"/>
			
				<path fill="none" stroke="#00AEEF" stroke-width="3" stroke-linecap="round" stroke-linejoin="round" stroke-dasharray="4.8329,9.6659" d="
				M102.572,208.928c15.354,17.606,37.939,28.74,63.136,28.74c13.757,0,26.731-3.328,38.18-9.208"/>
			<path fill="none" stroke="#00AEEF" stroke-width="3" stroke-linecap="round" stroke-linejoin="round" d="M208.125,226.127
				c0.718-0.422,1.43-0.855,2.134-1.299c0.705,0.442,1.416,0.877,2.131,1.304"/>
			
				<path fill="none" stroke="#00AEEF" stroke-width="3" stroke-linecap="round" stroke-linejoin="round" stroke-dasharray="4.9607,9.9214" d="
				M221.128,230.826c14.466,6.953,30.672,10.859,47.799,10.859c17.258,0,33.58-3.973,48.133-11.029"/>
			<path fill="none" stroke="#00AEEF" stroke-width="3" stroke-linecap="round" stroke-linejoin="round" d="M321.477,228.391
				c0.733-0.396,1.461-0.802,2.184-1.215c0.334,0.767,0.692,1.52,1.075,2.258"/>
			
				<path fill="none" stroke="#00AEEF" stroke-width="3" stroke-linecap="round" stroke-linejoin="round" stroke-dasharray="4.717,9.434" d="
				M330.074,237.181c6.868,7.7,16.859,12.55,27.992,12.55c20.729,0,37.533-16.804,37.533-37.533c0-1.283-0.065-2.55-0.193-3.799"/>
			<path fill="none" stroke="#00AEEF" stroke-width="3" stroke-linecap="round" stroke-linejoin="round" d="M394.633,203.75
				c-0.189-0.814-0.404-1.619-0.645-2.414c0.788-0.275,1.57-0.563,2.346-0.864"/>
			
				<path fill="none" stroke="#00AEEF" stroke-width="3" stroke-linecap="round" stroke-linejoin="round" stroke-dasharray="5.2969,10.5937" d="
				M405.907,195.949c16.938-9.539,29.757-25.52,35.144-44.621"/>
			<path fill="none" stroke="#00AEEF" stroke-width="3" stroke-linecap="round" stroke-linejoin="round" d="M442.305,146.178
				c0.168-0.814,0.322-1.633,0.463-2.457c0.838-0.046,1.668-0.117,2.491-0.213"/>
			
				<path fill="none" stroke="#00AEEF" stroke-width="3" stroke-linecap="round" stroke-linejoin="round" stroke-dasharray="5.0532,10.1065" d="
				M455.048,141.089c15.047-5.809,25.723-20.382,25.723-37.48c0-22.214-18.01-40.223-40.226-40.223
				c-6.921,0-13.429,1.752-19.113,4.833"/>
		</g>
	</g>
</g>
</svg>
