<?xml version="1.0" encoding="utf-8"?>
<!-- Generator: Adobe Illustrator 16.0.0, SVG Export Plug-In . SVG Version: 6.00 Build 0)  -->
<!DOCTYPE svg PUBLIC "-//W3C//DTD SVG 1.1//EN" "http://www.w3.org/Graphics/SVG/1.1/DTD/svg11.dtd">
<svg version="1.1" id="Layer_1" xmlns="http://www.w3.org/2000/svg" xmlns:xlink="http://www.w3.org/1999/xlink" x="0px" y="0px"
	 width="349.33px" height="274.555px" viewBox="0 0 349.33 274.555" enable-background="new 0 0 349.33 274.555"
	 xml:space="preserve">
<g id="Layer_2">
	<g>
		<path fill="#F39200" d="M47.825,68.628c0,0-7.371-0.534-16.022,7.05S11.401,84.65,3.924,84.223
			c-7.478-0.427-3.312,9.187,4.486,12.711c7.797,3.525,27.45,9.293,34.073,8.226C49.107,104.091,49.854,69.91,47.825,68.628z"/>
		<path fill="#F39200" d="M64.117,111.398c0,0-43.315,12.123-54.242,7.072c-4.411-2.071-2.95-3.473-2.561-4.36
			c0.391-0.887,39.017-7.253,44.186-13.777C56.667,93.808,65.764,108.642,64.117,111.398z"/>
		<path fill="#F9B233" d="M317.685,127.047c-24.684,4.431-55.051,10.725-96.829,2.831l0,0c15.738-9.983,24.678-25.965,24.678-50.097
			c0-42.646-45.339-78.216-101.267-78.216c-55.927,0-102.531,28.014-106.962,94.469c-0.235,17.101,2.461,27.656,14.659,34.505
			c0.005,0.006,3.262,3.471,0,6.001c-3.266,2.532-33.646,26.583-31.747,59.494c1.898,32.91,17.088,62.023,61.392,73.417
			c44.305,11.393,167.091,1.898,196.836-10.76c29.746-12.657,70.886-71.051,70.886-108.942
			C349.33,111.857,342.368,122.617,317.685,127.047z"/>
		<path fill="#F39200" d="M279.078,168.187c0,0-62.744,9.494-94.348,9.494c-31.603,0-92.361-15.188-89.197,25.316
			c3.163,40.505,43.037,55.062,82.91,48.101S286.672,229.578,279.078,168.187z"/>
		<ellipse transform="matrix(0.1414 -0.99 0.99 0.1414 -19.8078 149.4951)" cx="76.28" cy="86.167" rx="17.088" ry="13.29"/>
		<ellipse fill="#FFFFFF" cx="74.26" cy="79.474" rx="4.817" ry="5.27"/>
		<path fill="#F39200" d="M74.26,137.643c0,0,46.588,15.189,134.562-4.431C161.989,149.035,136.532,156.63,74.26,137.643z"/>
		<path fill="#F9B233" d="M89.66,12.648c0,0-17.575-3.564-18.575-12.647c11.333,7.167,32.46,7.49,36.844,6.04"/>
	</g>
</g>
</svg>
