<?xml version="1.0" encoding="utf-8"?>
<!-- Generator: Adobe Illustrator 16.0.0, SVG Export Plug-In . SVG Version: 6.00 Build 0)  -->
<!DOCTYPE svg PUBLIC "-//W3C//DTD SVG 1.1//EN" "http://www.w3.org/Graphics/SVG/1.1/DTD/svg11.dtd">
<svg version="1.1" id="Layer_1" xmlns="http://www.w3.org/2000/svg" xmlns:xlink="http://www.w3.org/1999/xlink" x="0px" y="0px"
	 width="1108px" height="501px" viewBox="0 0 1108 501" enable-background="new 0 0 1108 501" xml:space="preserve">
<path opacity="0.54" fill="#FFFFFF" d="M1108,177c0-23.801-9.794-45.306-25.558-60.735C1091.438,107.224,1097,94.762,1097,81
	c0-18.273-9.807-34.25-24.44-42.973c0.931-2.842,1.44-5.875,1.44-9.027c0-16.016-12.983-29-29-29s-29,12.984-29,29
	c0,3.943,0.79,7.701,2.216,11.128C1005.388,49.18,997,64.106,997,81c0,5.017,0.747,9.856,2.122,14.425
	c-4.778,1.396-9.383,3.193-13.772,5.366C980.99,97.773,975.703,96,970,96c-14.09,0-25.652,10.793-26.885,24.562
	C936.503,117.637,929.194,116,921.5,116c-23.008,0-42.62,14.526-50.176,34.907c-2.851-0.588-5.8-0.907-8.824-0.907
	c-5.738,0-11.212,1.122-16.228,3.141c-15.722-14.749-33.967-26.836-54.019-35.551C782.418,87.637,754.244,66,721,66
	c-31.829,0-59.009,19.838-69.898,47.815c-9.443,3.514-18.528,7.761-27.189,12.672C613.805,118.368,600.975,113.5,587,113.5
	c-26.587,0-49.06,17.588-56.435,41.762c-2.003-0.157-4.021-0.262-6.065-0.262c-16.823,0-32.368,5.443-44.998,14.647
	c-6.156-21.647-23.208-38.693-44.859-44.84C431.565,97.349,408.281,76,380,76c-7.781,0-15.181,1.623-21.889,4.538
	C355.994,68.306,345.337,59,332.5,59c-14.359,0-26,11.641-26,26c-24.105,0-44.336,16.563-49.948,38.929
	c-5.729,3.97-11.033,8.512-15.817,13.553C231.948,129.133,220.077,124,207,124c-21.065,0-39.021,13.295-45.947,31.949
	C155.62,155.33,150.099,155,144.5,155C64.695,155,0,219.695,0,299.5S64.695,444,144.5,444c21.35,0,41.615-4.634,59.853-12.944
	C221.715,455.812,250.465,472,283,472c37.756,0,70.416-21.8,86.094-53.496C389.091,434.458,414.43,444,442,444
	c47.075,0,87.65-27.807,106.215-67.887C579.352,437.739,643.237,480,717,480c42.162,0,81.096-13.812,112.535-37.149
	C839.752,476.503,871.011,501,908,501c45.287,0,82-36.713,82-82c0-0.05-0.004-0.1-0.004-0.149c1.822,0.097,3.657,0.149,5.504,0.149
	c56.057,0,101.5-45.443,101.5-101.5c0-26.843-10.425-51.247-27.44-69.398C1092.704,232.915,1108,206.751,1108,177z"/>
</svg>
