<?xml version="1.0" encoding="utf-8"?>
<!-- Generator: Adobe Illustrator 16.0.0, SVG Export Plug-In . SVG Version: 6.00 Build 0)  -->
<!DOCTYPE svg PUBLIC "-//W3C//DTD SVG 1.1//EN" "http://www.w3.org/Graphics/SVG/1.1/DTD/svg11.dtd">
<svg version="1.1" id="Layer_1" xmlns="http://www.w3.org/2000/svg" xmlns:xlink="http://www.w3.org/1999/xlink" x="0px" y="0px"
	 width="2000.28px" height="200px" viewBox="0 0 2000.28 200" enable-background="new 0 0 2000.28 200" xml:space="preserve">
<g>
	<rect y="158.097" fill="#4CA046" width="2000.28" height="41.903"/>
	<g>
		<path fill="#4CA046" d="M46.05,174.643c0,0-26.271-52.486-3.091-132.767C13.096,135.812,6.515,157.877,10.563,169.111
			C14.613,180.342,30.735,206.725,46.05,174.643z"/>
		<path fill="#4CA046" d="M85.913,174.476c0,0-26.271-52.486-3.091-132.767C52.958,135.645,46.378,157.71,50.426,168.944
			C54.476,180.175,70.598,206.558,85.913,174.476z"/>
		<path fill="#4CA046" d="M125.775,174.309c0,0-26.271-52.486-3.091-132.767C92.822,135.478,86.24,157.543,90.289,168.777
			C94.338,180.008,110.461,206.391,125.775,174.309z"/>
		<path fill="#4CA046" d="M165.638,174.142c0,0-26.271-52.486-3.091-132.767c-29.863,93.936-36.443,116.002-32.395,127.235
			C134.201,179.841,150.324,206.224,165.638,174.142z"/>
		<path fill="#4CA046" d="M205.501,173.975c0,0-26.271-52.485-3.091-132.767c-29.863,93.937-36.444,116.002-32.395,127.236
			C174.063,179.674,190.187,206.058,205.501,173.975z"/>
		<path fill="#4CA046" d="M245.364,173.809c0,0-26.271-52.486-3.092-132.767c-29.862,93.936-36.444,116.001-32.395,127.235
			C213.927,179.508,230.049,205.891,245.364,173.809z"/>
		<path fill="#4CA046" d="M285.226,173.642c0,0-26.271-52.486-3.091-132.767c-29.863,93.936-36.444,116.001-32.396,127.235
			C253.79,179.341,269.912,205.724,285.226,173.642z"/>
		<path fill="#4CA046" d="M325.089,173.475c0,0-26.271-52.486-3.091-132.767c-29.863,93.936-36.444,116.001-32.395,127.235
			C293.652,179.174,309.774,205.557,325.089,173.475z"/>
		<path fill="#4CA046" d="M364.952,173.308c0,0-26.272-52.486-3.092-132.767c-29.863,93.936-36.443,116.001-32.395,127.235
			C333.515,179.007,349.637,205.39,364.952,173.308z"/>
		<path fill="#4CA046" d="M404.814,173.141c0,0-26.271-52.486-3.091-132.766c-29.863,93.936-36.444,116-32.395,127.234
			C373.377,178.84,389.5,205.223,404.814,173.141z"/>
		<path fill="#4CA046" d="M444.677,172.975c0,0-26.271-52.487-3.091-132.768c-29.863,93.936-36.444,116.001-32.395,127.236
			C413.24,178.673,429.362,205.056,444.677,172.975z"/>
		<path fill="#4CA046" d="M484.54,172.807c0,0-26.271-52.485-3.091-132.766c-29.863,93.936-36.444,116-32.395,127.234
			C453.103,178.506,469.226,204.89,484.54,172.807z"/>
		<path fill="#4CA046" d="M524.403,172.641c0,0-26.271-52.486-3.091-132.768c-29.863,93.937-36.444,116.002-32.396,127.236
			C492.966,178.34,509.088,204.723,524.403,172.641z"/>
		<path fill="#4CA046" d="M564.265,172.474c0,0-26.271-52.486-3.091-132.767c-29.862,93.936-36.443,116.001-32.395,127.235
			C532.828,178.173,548.951,204.556,564.265,172.474z"/>
		<path fill="#4CA046" d="M604.128,172.307c0,0-26.271-52.486-3.091-132.767c-29.863,93.936-36.444,116.001-32.395,127.235
			C572.691,178.006,588.813,204.389,604.128,172.307z"/>
		<path fill="#4CA046" d="M643.991,172.141c0,0-26.272-52.486-3.092-132.768c-29.863,93.936-36.443,116.001-32.395,127.235
			C612.554,177.84,628.676,204.222,643.991,172.141z"/>
		<path fill="#4CA046" d="M683.854,171.973c0,0-26.271-52.486-3.091-132.766c-29.863,93.936-36.444,116-32.395,127.234
			C652.416,177.672,668.539,204.055,683.854,171.973z"/>
		<path fill="#4CA046" d="M723.716,171.806c0,0-26.271-52.485-3.091-132.767c-29.863,93.936-36.444,116.002-32.396,127.236
			C692.279,177.506,708.402,203.889,723.716,171.806z"/>
		<path fill="#4CA046" d="M763.579,171.64c0,0-26.271-52.486-3.092-132.767c-29.862,93.936-36.443,116.001-32.395,127.234
			C732.142,177.339,748.265,203.722,763.579,171.64z"/>
		<path fill="#4CA046" d="M803.441,171.473c0,0-26.271-52.486-3.091-132.767c-29.862,93.936-36.444,116.001-32.395,127.235
			C772.005,177.172,788.127,203.555,803.441,171.473z"/>
		<path fill="#4CA046" d="M843.304,171.306c0,0-26.271-52.486-3.091-132.767c-29.863,93.936-36.443,116.001-32.395,127.235
			C811.867,177.005,827.99,203.388,843.304,171.306z"/>
		<path fill="#4CA046" d="M883.167,171.139c0,0-26.271-52.486-3.092-132.767c-29.862,93.936-36.443,116.001-32.395,127.235
			C851.729,176.838,867.853,203.221,883.167,171.139z"/>
		<path fill="#4CA046" d="M923.029,170.972c0,0-26.271-52.486-3.091-132.767c-29.863,93.936-36.444,116.002-32.395,127.235
			C891.593,176.671,907.715,203.054,923.029,170.972z"/>
		<path fill="#4CA046" d="M962.893,170.805c0,0-26.271-52.486-3.092-132.767c-29.862,93.937-36.443,116.002-32.395,127.235
			C931.455,176.504,947.578,202.887,962.893,170.805z"/>
		<path fill="#4CA046" d="M1002.756,170.639c0,0-26.272-52.487-3.092-132.768c-29.863,93.936-36.444,116.002-32.395,127.235
			C971.318,176.338,987.44,202.721,1002.756,170.639z"/>
		<path fill="#4CA046" d="M1042.618,170.472c0,0-26.271-52.487-3.092-132.767c-29.862,93.936-36.443,116.001-32.396,127.234
			C1011.181,176.17,1027.304,202.554,1042.618,170.472z"/>
		<path fill="#4CA046" d="M1082.48,170.305c0,0-26.271-52.486-3.092-132.767c-29.862,93.936-36.443,116.001-32.395,127.235
			C1051.043,176.004,1067.166,202.387,1082.48,170.305z"/>
		<path fill="#4CA046" d="M1122.344,170.138c0,0-26.272-52.486-3.092-132.767c-29.863,93.936-36.443,116.001-32.395,127.235
			C1090.906,175.837,1107.028,202.22,1122.344,170.138z"/>
		<path fill="#4CA046" d="M1162.206,169.971c0,0-26.271-52.486-3.092-132.767c-29.862,93.936-36.443,116.001-32.395,127.235
			C1130.769,175.67,1146.892,202.053,1162.206,169.971z"/>
		<path fill="#4CA046" d="M1202.068,169.805c0,0-26.271-52.486-3.092-132.768c-29.861,93.936-36.443,116.002-32.395,127.235
			C1170.631,175.503,1186.754,201.886,1202.068,169.805z"/>
		<path fill="#4CA046" d="M1241.932,169.637c0,0-26.271-52.485-3.092-132.767c-29.862,93.937-36.443,116.001-32.395,127.235
			C1210.494,175.337,1226.617,201.719,1241.932,169.637z"/>
		<path fill="#4CA046" d="M1281.795,169.471c0,0-26.272-52.486-3.093-132.768c-29.862,93.936-36.443,116.002-32.395,127.236
			C1250.357,175.17,1266.479,201.553,1281.795,169.471z"/>
		<path fill="#4CA046" d="M1321.657,169.303c0,0-26.272-52.485-3.092-132.766c-29.862,93.936-36.443,116.001-32.396,127.235
			C1290.22,175.003,1306.343,201.386,1321.657,169.303z"/>
		<path fill="#4CA046" d="M1361.52,169.137c0,0-26.271-52.486-3.092-132.767c-29.862,93.936-36.443,116.001-32.395,127.235
			C1330.082,174.836,1346.205,201.219,1361.52,169.137z"/>
		<path fill="#4CA046" d="M1401.383,168.97c0,0-26.271-52.486-3.092-132.767c-29.862,93.936-36.443,116.001-32.395,127.235
			C1369.944,174.669,1386.067,201.052,1401.383,168.97z"/>
		<path fill="#4CA046" d="M1441.245,168.803c0,0-26.271-52.486-3.092-132.767c-29.862,93.937-36.443,116.001-32.395,127.235
			C1409.808,174.502,1425.931,200.885,1441.245,168.803z"/>
		<path fill="#4CA046" d="M1481.107,168.636c0,0-26.271-52.485-3.092-132.766c-29.862,93.935-36.443,116-32.395,127.234
			C1449.67,174.335,1465.793,200.718,1481.107,168.636z"/>
		<path fill="#4CA046" d="M1520.971,168.47c0,0-26.271-52.487-3.092-132.768c-29.862,93.936-36.443,116.001-32.395,127.235
			C1489.533,174.168,1505.656,200.551,1520.971,168.47z"/>
		<path fill="#4CA046" d="M1560.833,168.303c0,0-26.271-52.486-3.092-132.767c-29.862,93.936-36.443,116.001-32.395,127.235
			C1529.396,174.002,1545.519,200.385,1560.833,168.303z"/>
		<path fill="#4CA046" d="M1600.696,168.136c0,0-26.271-52.486-3.092-132.767c-29.862,93.936-36.443,116.001-32.396,127.235
			C1569.259,173.835,1585.381,200.218,1600.696,168.136z"/>
		<path fill="#4CA046" d="M1640.559,167.969c0,0-26.271-52.486-3.092-132.767c-29.862,93.936-36.443,116.001-32.395,127.235
			C1609.121,173.668,1625.244,200.051,1640.559,167.969z"/>
		<path fill="#4CA046" d="M1680.421,167.802c0,0-26.271-52.486-3.092-132.767c-29.861,93.936-36.443,116.001-32.394,127.235
			C1648.983,173.501,1665.106,199.884,1680.421,167.802z"/>
		<path fill="#4CA046" d="M1720.284,167.635c0,0-26.271-52.486-3.092-132.767c-29.862,93.936-36.443,116.001-32.395,127.235
			C1688.847,173.334,1704.97,199.717,1720.284,167.635z"/>
		<path fill="#4CA046" d="M1760.147,167.468c0,0-26.272-52.485-3.093-132.767c-29.861,93.937-36.443,116.002-32.395,127.235
			C1728.709,173.167,1744.832,199.551,1760.147,167.468z"/>
		<path fill="#4CA046" d="M1800.009,167.301c0,0-26.271-52.486-3.092-132.766c-29.861,93.935-36.443,116.001-32.394,127.234
			C1768.572,173,1784.694,199.383,1800.009,167.301z"/>
		<path fill="#4CA046" d="M1839.872,167.135c0,0-26.271-52.486-3.091-132.767c-29.863,93.936-36.443,116.001-32.396,127.235
			C1808.435,172.833,1824.558,199.217,1839.872,167.135z"/>
		<path fill="#4CA046" d="M1879.734,166.968c0,0-26.271-52.486-3.091-132.767c-29.863,93.936-36.443,116.001-32.395,127.235
			C1848.297,172.667,1864.42,199.05,1879.734,166.968z"/>
		<path fill="#4CA046" d="M1919.598,166.801c0,0-26.271-52.486-3.092-132.767c-29.862,93.936-36.443,116.001-32.395,127.235
			C1888.16,172.5,1904.283,198.883,1919.598,166.801z"/>
	</g>
	<g>
		<path fill="#377D3C" d="M0,166.421c0,0,21.815-48.069,1.207-123.802c26.447,88.707,32.29,109.531,28.962,119.874
			C26.84,172.834,13.39,196.896,0,166.421z"/>
		<path fill="#377D3C" d="M36.756,166.365c0,0,21.815-48.069,1.207-123.802c26.447,88.707,32.29,109.531,28.961,119.875
			C63.596,172.778,50.146,196.84,36.756,166.365z"/>
		<path fill="#377D3C" d="M73.511,166.31c0,0,21.815-48.069,1.206-123.802c26.448,88.707,32.291,109.531,28.962,119.874
			C100.351,172.723,86.901,196.784,73.511,166.31z"/>
		<path fill="#377D3C" d="M110.266,166.255c0,0,21.815-48.07,1.207-123.802c26.447,88.707,32.29,109.53,28.962,119.874
			C137.106,172.667,123.656,196.729,110.266,166.255z"/>
		<path fill="#377D3C" d="M147.021,166.198c0,0,21.815-48.069,1.207-123.802c26.447,88.707,32.291,109.531,28.962,119.874
			C173.861,172.611,160.41,196.673,147.021,166.198z"/>
		<path fill="#377D3C" d="M183.776,166.143c0,0,21.815-48.068,1.207-123.802c26.447,88.707,32.29,109.531,28.962,119.874
			C210.616,172.556,197.166,196.617,183.776,166.143z"/>
		<path fill="#377D3C" d="M220.531,166.087c0,0,21.815-48.068,1.206-123.802c26.447,88.707,32.291,109.532,28.962,119.874
			C247.371,172.5,233.921,196.562,220.531,166.087z"/>
		<path fill="#377D3C" d="M257.286,166.032c0,0,21.815-48.069,1.207-123.802c26.447,88.707,32.29,109.531,28.962,119.874
			C284.126,172.445,270.676,196.507,257.286,166.032z"/>
		<path fill="#377D3C" d="M294.042,165.977c0,0,21.815-48.069,1.207-123.802c26.447,88.707,32.29,109.531,28.962,119.874
			C320.881,172.39,307.431,196.451,294.042,165.977z"/>
		<path fill="#377D3C" d="M330.796,165.921c0,0,21.814-48.069,1.207-123.802c26.447,88.707,32.29,109.531,28.962,119.874
			C357.636,172.334,344.186,196.396,330.796,165.921z"/>
		<path fill="#377D3C" d="M367.551,165.865c0,0,21.815-48.069,1.207-123.802c26.447,88.707,32.29,109.531,28.962,119.874
			C394.391,172.278,380.941,196.34,367.551,165.865z"/>
		<path fill="#377D3C" d="M404.307,165.81c0,0,21.814-48.069,1.206-123.802c26.447,88.707,32.291,109.531,28.962,119.874
			C431.146,172.223,417.696,196.284,404.307,165.81z"/>
		<path fill="#377D3C" d="M441.061,165.754c0,0,21.815-48.069,1.207-123.802c26.447,88.707,32.29,109.531,28.962,119.874
			C467.901,172.167,454.451,196.229,441.061,165.754z"/>
		<path fill="#377D3C" d="M477.816,165.698c0,0,21.814-48.069,1.206-123.802c26.448,88.707,32.291,109.531,28.963,119.874
			C504.656,172.111,491.206,196.173,477.816,165.698z"/>
		<path fill="#377D3C" d="M514.571,165.643c0,0,21.815-48.068,1.207-123.801c26.448,88.707,32.291,109.531,28.962,119.873
			C541.411,172.056,527.961,196.117,514.571,165.643z"/>
		<path fill="#377D3C" d="M551.327,165.588c0,0,21.815-48.07,1.206-123.803c26.448,88.707,32.291,109.531,28.962,119.874
			C578.167,172,564.716,196.062,551.327,165.588z"/>
		<path fill="#377D3C" d="M588.081,165.531c0,0,21.815-48.069,1.207-123.801c26.447,88.707,32.29,109.531,28.962,119.873
			C614.922,171.944,601.471,196.007,588.081,165.531z"/>
		<path fill="#377D3C" d="M624.836,165.477c0,0,21.815-48.069,1.207-123.803c26.447,88.707,32.291,109.531,28.962,119.875
			C651.677,171.889,638.226,195.951,624.836,165.477z"/>
		<path fill="#377D3C" d="M661.592,165.421c0,0,21.815-48.069,1.206-123.802c26.447,88.707,32.291,109.531,28.962,119.874
			C688.431,171.834,674.981,195.896,661.592,165.421z"/>
		<path fill="#377D3C" d="M698.347,165.365c0,0,21.815-48.069,1.207-123.802c26.447,88.707,32.291,109.531,28.962,119.874
			C725.187,171.778,711.736,195.84,698.347,165.365z"/>
		<path fill="#377D3C" d="M735.102,165.31c0,0,21.815-48.069,1.207-123.802c26.447,88.707,32.291,109.531,28.962,119.874
			C761.941,171.723,748.491,195.783,735.102,165.31z"/>
		<path fill="#377D3C" d="M771.857,165.254c0,0,21.815-48.069,1.207-123.802c26.447,88.707,32.29,109.531,28.962,119.874
			C798.696,171.667,785.247,195.729,771.857,165.254z"/>
		<path fill="#377D3C" d="M808.611,165.198c0,0,21.815-48.069,1.207-123.802c26.447,88.707,32.29,109.531,28.962,119.874
			C835.451,171.611,822.001,195.673,808.611,165.198z"/>
		<path fill="#377D3C" d="M845.367,165.143c0,0,21.815-48.069,1.207-123.802c26.447,88.707,32.29,109.531,28.962,119.874
			C872.207,171.556,858.757,195.617,845.367,165.143z"/>
		<path fill="#377D3C" d="M882.122,165.087c0,0,21.815-48.069,1.207-123.802c26.447,88.707,32.291,109.531,28.962,119.874
			C908.962,171.5,895.512,195.562,882.122,165.087z"/>
		<path fill="#377D3C" d="M918.877,165.031c0,0,21.815-48.069,1.206-123.801c26.447,88.706,32.291,109.53,28.962,119.873
			C945.717,171.445,932.267,195.506,918.877,165.031z"/>
		<path fill="#377D3C" d="M955.632,164.977c0,0,21.815-48.07,1.206-123.803c26.447,88.707,32.291,109.531,28.963,119.875
			C982.472,171.389,969.021,195.45,955.632,164.977z"/>
		<path fill="#377D3C" d="M992.387,164.92c0,0,21.815-48.068,1.207-123.801c26.448,88.707,32.291,109.531,28.962,119.873
			C1019.227,171.334,1005.776,195.395,992.387,164.92z"/>
		<path fill="#377D3C" d="M1029.142,164.865c0,0,21.815-48.069,1.206-123.802c26.447,88.706,32.291,109.531,28.963,119.874
			C1055.981,171.277,1042.531,195.34,1029.142,164.865z"/>
		<path fill="#377D3C" d="M1065.897,164.81c0,0,21.814-48.069,1.206-123.802c26.447,88.707,32.29,109.531,28.962,119.874
			C1092.736,171.223,1079.286,195.284,1065.897,164.81z"/>
		<path fill="#377D3C" d="M1102.652,164.754c0,0,21.814-48.069,1.206-123.802c26.446,88.707,32.29,109.531,28.962,119.874
			C1129.492,171.167,1116.041,195.229,1102.652,164.754z"/>
		<path fill="#377D3C" d="M1139.406,164.698c0,0,21.816-48.069,1.207-123.802c26.447,88.707,32.291,109.531,28.962,119.874
			C1166.246,171.111,1152.797,195.173,1139.406,164.698z"/>
		<path fill="#377D3C" d="M1176.162,164.643c0,0,21.815-48.069,1.206-123.802c26.447,88.707,32.291,109.531,28.963,119.874
			C1203.002,171.056,1189.552,195.117,1176.162,164.643z"/>
		<path fill="#377D3C" d="M1212.917,164.587c0,0,21.815-48.069,1.206-123.802c26.447,88.707,32.291,109.531,28.963,119.874
			C1239.757,171,1226.307,195.062,1212.917,164.587z"/>
		<path fill="#377D3C" d="M1249.672,164.531c0,0,21.815-48.069,1.206-123.802c26.447,88.708,32.291,109.531,28.963,119.874
			C1276.512,170.944,1263.062,195.006,1249.672,164.531z"/>
		<path fill="#377D3C" d="M1286.427,164.476c0,0,21.815-48.069,1.206-123.802c26.448,88.707,32.291,109.531,28.963,119.874
			C1313.268,170.889,1299.816,194.951,1286.427,164.476z"/>
		<path fill="#377D3C" d="M1323.182,164.42c0,0,21.815-48.068,1.206-123.801c26.448,88.706,32.291,109.53,28.963,119.873
			C1350.021,170.833,1336.571,194.895,1323.182,164.42z"/>
		<path fill="#377D3C" d="M1359.938,164.364c0,0,21.814-48.068,1.206-123.802c26.447,88.707,32.29,109.531,28.962,119.875
			C1386.776,170.778,1373.326,194.839,1359.938,164.364z"/>
		<path fill="#377D3C" d="M1396.692,164.309c0,0,21.815-48.069,1.206-123.801c26.447,88.707,32.291,109.531,28.963,119.874
			C1423.532,170.723,1410.082,194.783,1396.692,164.309z"/>
		<path fill="#377D3C" d="M1433.447,164.254c0,0,21.815-48.07,1.206-123.802c26.447,88.706,32.291,109.53,28.962,119.874
			C1460.287,170.667,1446.837,194.729,1433.447,164.254z"/>
		<path fill="#377D3C" d="M1470.202,164.198c0,0,21.815-48.069,1.206-123.802c26.447,88.707,32.291,109.531,28.963,119.874
			C1497.042,170.611,1483.592,194.672,1470.202,164.198z"/>
		<path fill="#377D3C" d="M1506.957,164.143c0,0,21.815-48.069,1.206-123.802c26.447,88.707,32.291,109.531,28.963,119.874
			C1533.797,170.556,1520.347,194.617,1506.957,164.143z"/>
		<path fill="#377D3C" d="M1543.712,164.087c0,0,21.815-48.069,1.207-123.802c26.446,88.707,32.29,109.531,28.962,119.874
			C1570.552,170.5,1557.102,194.562,1543.712,164.087z"/>
		<path fill="#377D3C" d="M1580.467,164.031c0,0,21.815-48.069,1.207-123.802c26.446,88.707,32.29,109.531,28.962,119.874
			C1607.307,170.444,1593.856,194.506,1580.467,164.031z"/>
		<path fill="#377D3C" d="M1617.222,163.976c0,0,21.816-48.069,1.207-123.802c26.447,88.707,32.29,109.531,28.963,119.874
			C1644.062,170.389,1630.611,194.45,1617.222,163.976z"/>
		<path fill="#377D3C" d="M1653.978,163.92c0,0,21.815-48.069,1.206-123.802c26.447,88.707,32.291,109.531,28.963,119.874
			C1680.817,170.333,1667.367,194.395,1653.978,163.92z"/>
		<path fill="#377D3C" d="M1690.732,163.865c0,0,21.815-48.07,1.206-123.803c26.447,88.707,32.291,109.531,28.963,119.874
			C1717.572,170.277,1704.122,194.339,1690.732,163.865z"/>
		<path fill="#377D3C" d="M1727.487,163.81c0,0,21.815-48.07,1.206-123.802c26.447,88.707,32.291,109.53,28.963,119.873
			C1754.327,170.222,1740.877,194.283,1727.487,163.81z"/>
		<path fill="#377D3C" d="M1764.242,163.753c0,0,21.815-48.069,1.206-123.802c26.447,88.707,32.291,109.532,28.963,119.874
			C1791.082,170.166,1777.632,194.229,1764.242,163.753z"/>
		<path fill="#377D3C" d="M1800.997,163.697c0,0,21.815-48.068,1.206-123.801c26.447,88.706,32.291,109.53,28.963,119.873
			C1827.838,170.11,1814.387,194.173,1800.997,163.697z"/>
		<path fill="#377D3C" d="M1837.752,163.643c0,0,21.815-48.069,1.207-123.803c26.447,88.707,32.29,109.531,28.963,119.875
			C1864.592,170.055,1851.142,194.117,1837.752,163.643z"/>
		<path fill="#377D3C" d="M1874.508,163.587c0,0,21.815-48.069,1.205-123.802c26.448,88.707,32.291,109.531,28.964,119.874
			C1901.348,170,1887.896,194.062,1874.508,163.587z"/>
		<path fill="#377D3C" d="M1911.263,163.531c0,0,21.815-48.069,1.206-123.802c26.447,88.707,32.291,109.531,28.962,119.874
			C1938.103,169.944,1924.652,194.006,1911.263,163.531z"/>
		<path fill="#377D3C" d="M1948.018,163.476c0,0,21.815-48.069,1.205-123.802c26.448,88.707,32.292,109.531,28.964,119.874
			C1974.857,169.889,1961.406,193.95,1948.018,163.476z"/>
		<path fill="#377D3C" d="M1984.772,163.42c0,0,21.815-48.069,1.206-123.802c26.447,88.707,32.291,109.531,28.963,119.874
			C2011.612,169.833,1998.162,193.895,1984.772,163.42z"/>
	</g>
	<g>
		<path fill="#51B148" d="M69.508,175.952c0,0-26.659-48.257-7.966-124.487c-24.443,89.3-29.778,110.262-25.55,120.649
			C40.221,182.501,56.359,206.646,69.508,175.952z"/>
		<path fill="#51B148" d="M116.665,175.653c0,0-26.659-48.257-7.966-124.487c-24.443,89.299-29.778,110.261-25.55,120.648
			C87.377,182.202,103.516,206.347,116.665,175.653z"/>
		<path fill="#51B148" d="M163.82,175.354c0,0-26.659-48.257-7.966-124.487c-24.443,89.3-29.778,110.262-25.55,120.649
			C134.533,181.902,150.671,206.049,163.82,175.354z"/>
		<path fill="#51B148" d="M210.976,175.056c0,0-26.659-48.257-7.966-124.487c-24.443,89.3-29.778,110.262-25.55,120.649
			C181.689,181.604,197.827,205.75,210.976,175.056z"/>
		<path fill="#51B148" d="M258.131,174.757c0,0-26.659-48.257-7.966-124.488c-24.443,89.3-29.778,110.262-25.55,120.649
			C228.844,181.305,244.983,205.451,258.131,174.757z"/>
		<path fill="#51B148" d="M305.287,174.458c0,0-26.658-48.258-7.966-124.488c-24.443,89.301-29.779,110.262-25.55,120.649
			C276,181.006,292.138,205.151,305.287,174.458z"/>
		<path fill="#51B148" d="M352.443,174.158c0,0-26.659-48.257-7.967-124.487c-24.443,89.3-29.778,110.263-25.549,120.65
			C323.156,180.708,339.294,204.854,352.443,174.158z"/>
		<path fill="#51B148" d="M399.599,173.859c0,0-26.659-48.257-7.966-124.487c-24.443,89.3-29.779,110.262-25.55,120.649
			C370.312,180.408,386.449,204.554,399.599,173.859z"/>
		<path fill="#51B148" d="M446.754,173.561c0,0-26.659-48.257-7.966-124.487c-24.443,89.3-29.778,110.262-25.55,120.649
			C417.467,180.109,433.604,204.254,446.754,173.561z"/>
		<path fill="#51B148" d="M493.91,173.262c0,0-26.659-48.257-7.966-124.487c-24.443,89.3-29.778,110.262-25.55,120.649
			C464.623,179.811,480.761,203.956,493.91,173.262z"/>
		<path fill="#51B148" d="M541.065,172.963c0,0-26.658-48.257-7.966-124.487c-24.443,89.3-29.779,110.262-25.55,120.649
			C511.778,179.512,527.917,203.657,541.065,172.963z"/>
		<path fill="#51B148" d="M588.221,172.664c0,0-26.658-48.258-7.966-124.488c-24.443,89.301-29.778,110.263-25.55,120.65
			C558.935,179.213,575.072,203.358,588.221,172.664z"/>
		<path fill="#51B148" d="M635.377,172.364c0,0-26.659-48.257-7.966-124.487c-24.444,89.3-29.779,110.262-25.55,120.649
			C606.09,178.913,622.228,203.059,635.377,172.364z"/>
		<path fill="#51B148" d="M682.533,172.066c0,0-26.659-48.258-7.966-124.488c-24.443,89.3-29.778,110.263-25.55,120.649
			C653.245,178.614,669.383,202.76,682.533,172.066z"/>
		<path fill="#51B148" d="M729.688,171.768c0,0-26.659-48.257-7.966-124.488c-24.444,89.301-29.779,110.262-25.551,120.65
			C700.401,178.316,716.539,202.462,729.688,171.768z"/>
		<path fill="#51B148" d="M776.844,171.468c0,0-26.659-48.257-7.966-124.487c-24.443,89.3-29.779,110.262-25.55,120.649
			C747.557,178.017,763.694,202.162,776.844,171.468z"/>
		<path fill="#51B148" d="M823.999,171.169c0,0-26.659-48.257-7.966-124.487c-24.443,89.3-29.778,110.262-25.55,120.649
			C794.712,177.718,810.85,201.863,823.999,171.169z"/>
		<path fill="#51B148" d="M871.155,170.87c0,0-26.659-48.257-7.966-124.487c-24.443,89.3-29.779,110.262-25.55,120.649
			C841.868,177.419,858.006,201.564,871.155,170.87z"/>
		<path fill="#51B148" d="M918.311,170.571c0,0-26.659-48.257-7.966-124.487c-24.443,89.3-29.778,110.262-25.55,120.649
			C889.023,177.12,905.162,201.266,918.311,170.571z"/>
		<path fill="#51B148" d="M965.467,170.271c0,0-26.659-48.256-7.967-124.486c-24.443,89.3-29.778,110.262-25.55,120.649
			C936.18,176.82,952.317,200.967,965.467,170.271z"/>
		<path fill="#51B148" d="M1012.622,169.973c0,0-26.659-48.257-7.966-124.487c-24.444,89.3-29.779,110.262-25.551,120.649
			C983.335,176.521,999.473,200.667,1012.622,169.973z"/>
		<path fill="#51B148" d="M1059.777,169.675c0,0-26.658-48.258-7.966-124.488c-24.443,89.3-29.778,110.262-25.55,120.649
			C1030.49,176.223,1046.629,200.369,1059.777,169.675z"/>
		<path fill="#51B148" d="M1106.934,169.375c0,0-26.659-48.256-7.967-124.486c-24.443,89.299-29.778,110.262-25.55,120.648
			C1077.646,175.924,1093.784,200.069,1106.934,169.375z"/>
		<path fill="#51B148" d="M1154.089,169.076c0,0-26.659-48.257-7.966-124.487c-24.443,89.3-29.779,110.262-25.551,120.649
			C1124.802,175.625,1140.939,199.771,1154.089,169.076z"/>
		<path fill="#51B148" d="M1201.244,168.777c0,0-26.658-48.257-7.966-124.487c-24.443,89.3-29.779,110.262-25.55,120.649
			C1171.957,175.326,1188.096,199.472,1201.244,168.777z"/>
		<path fill="#51B148" d="M1248.4,168.479c0,0-26.659-48.257-7.967-124.487c-24.443,89.3-29.778,110.262-25.55,120.649
			C1219.113,175.027,1235.251,199.173,1248.4,168.479z"/>
		<path fill="#51B148" d="M1295.556,168.18c0,0-26.659-48.257-7.966-124.487c-24.443,89.3-29.779,110.261-25.551,120.649
			C1266.269,174.729,1282.406,198.873,1295.556,168.18z"/>
		<path fill="#51B148" d="M1342.711,167.881c0,0-26.659-48.258-7.966-124.487c-24.443,89.3-29.778,110.262-25.55,120.649
			C1313.424,174.43,1329.562,198.574,1342.711,167.881z"/>
		<path fill="#51B148" d="M1389.867,167.582c0,0-26.659-48.257-7.967-124.488c-24.443,89.301-29.778,110.262-25.55,120.65
			C1360.58,174.131,1376.717,198.275,1389.867,167.582z"/>
		<path fill="#51B148" d="M1437.022,167.283c0,0-26.659-48.258-7.966-124.487c-24.443,89.3-29.779,110.261-25.551,120.649
			C1407.735,173.832,1423.873,197.978,1437.022,167.283z"/>
		<path fill="#51B148" d="M1484.178,166.983c0,0-26.658-48.257-7.966-124.487c-24.443,89.3-29.779,110.262-25.55,120.65
			C1454.891,173.533,1471.029,197.678,1484.178,166.983z"/>
		<path fill="#51B148" d="M1531.334,166.685c0,0-26.659-48.257-7.967-124.487c-24.443,89.3-29.778,110.262-25.55,120.649
			C1502.047,173.233,1518.185,197.379,1531.334,166.685z"/>
		<path fill="#51B148" d="M1578.489,166.386c0,0-26.659-48.257-7.966-124.487c-24.443,89.3-29.779,110.262-25.551,120.649
			C1549.202,172.935,1565.34,197.08,1578.489,166.386z"/>
		<path fill="#51B148" d="M1625.646,166.087c0,0-26.659-48.257-7.967-124.487c-24.442,89.3-29.778,110.262-25.551,120.649
			C1596.357,172.636,1612.495,196.781,1625.646,166.087z"/>
		<path fill="#51B148" d="M1672.801,165.788c0,0-26.659-48.257-7.967-124.487c-24.443,89.3-29.778,110.262-25.551,120.649
			C1643.514,172.337,1659.651,196.482,1672.801,165.788z"/>
		<path fill="#51B148" d="M1719.956,165.489c0,0-26.659-48.257-7.966-124.487c-24.443,89.3-29.779,110.262-25.551,120.649
			C1690.669,172.037,1706.807,196.184,1719.956,165.489z"/>
		<path fill="#51B148" d="M1767.111,165.19c0,0-26.659-48.258-7.966-124.488c-24.442,89.3-29.779,110.263-25.551,120.649
			C1737.824,171.738,1753.962,195.885,1767.111,165.19z"/>
		<path fill="#51B148" d="M1814.268,164.892c0,0-26.66-48.257-7.966-124.487c-24.443,89.299-29.779,110.261-25.552,120.649
			C1784.98,171.439,1801.118,195.586,1814.268,164.892z"/>
		<path fill="#51B148" d="M1861.423,164.593c0,0-26.659-48.258-7.966-124.488c-24.443,89.301-29.779,110.262-25.551,120.65
			C1832.136,171.141,1848.273,195.286,1861.423,164.593z"/>
		<path fill="#51B148" d="M1908.578,164.293c0,0-26.659-48.257-7.966-124.487c-24.443,89.3-29.778,110.262-25.55,120.649
			C1879.291,170.842,1895.429,194.987,1908.578,164.293z"/>
		<path fill="#51B148" d="M1955.733,163.994c0,0-26.658-48.257-7.966-124.487c-24.442,89.3-29.778,110.262-25.551,120.649
			C1926.447,170.543,1942.585,194.688,1955.733,163.994z"/>
		<path fill="#51B148" d="M2002.89,163.695c0,0-26.659-48.257-7.966-124.487c-24.443,89.3-29.779,110.262-25.551,120.649
			C1973.603,170.244,1989.74,194.39,2002.89,163.695z"/>
	</g>
	<g>
		<path fill="#5ABA47" d="M35.035,165.42c0,0,51.06-43.826,48.932-127.224c5.957,98.29,6.808,121.268-2.127,131.054
			C72.904,179.035,43.545,200.311,35.035,165.42z"/>
		<path fill="#5ABA47" d="M124.133,165.42c0,0,51.059-43.826,48.932-127.224c5.957,98.29,6.808,121.268-2.128,131.054
			C162.002,179.035,132.644,200.311,124.133,165.42z"/>
		<path fill="#5ABA47" d="M213.231,165.42c0,0,51.06-43.826,48.932-127.224c5.957,98.29,6.808,121.268-2.127,131.054
			C251.101,179.035,221.741,200.311,213.231,165.42z"/>
		<path fill="#5ABA47" d="M302.33,165.42c0,0,51.059-43.826,48.932-127.224c5.957,98.29,6.808,121.268-2.128,131.054
			C340.199,179.035,310.84,200.311,302.33,165.42z"/>
		<path fill="#5ABA47" d="M391.428,165.42c0,0,51.059-43.826,48.932-127.224c5.958,98.29,6.809,121.268-2.127,131.054
			C429.297,179.035,399.938,200.311,391.428,165.42z"/>
		<path fill="#5ABA47" d="M480.526,165.42c0,0,51.06-43.826,48.932-127.224c5.957,98.29,6.808,121.268-2.127,131.054
			C518.395,179.035,489.036,200.311,480.526,165.42z"/>
		<path fill="#5ABA47" d="M569.624,165.42c0,0,51.06-43.826,48.933-127.224c5.957,98.29,6.808,121.268-2.128,131.054
			C607.493,179.035,578.134,200.311,569.624,165.42z"/>
		<path fill="#5ABA47" d="M658.722,165.42c0,0,51.06-43.826,48.932-127.224c5.957,98.29,6.808,121.268-2.127,131.054
			C696.591,179.035,667.232,200.311,658.722,165.42z"/>
		<path fill="#5ABA47" d="M747.82,165.42c0,0,51.06-43.826,48.933-127.224c5.957,98.29,6.808,121.268-2.128,131.054
			C785.69,179.035,756.331,200.311,747.82,165.42z"/>
		<path fill="#5ABA47" d="M836.919,165.42c0,0,51.059-43.826,48.932-127.224c5.958,98.29,6.809,121.268-2.127,131.054
			C874.788,179.035,845.429,200.311,836.919,165.42z"/>
		<path fill="#5ABA47" d="M926.018,165.42c0,0,51.059-43.826,48.932-127.224c5.957,98.29,6.808,121.268-2.128,131.054
			C963.886,179.035,934.527,200.311,926.018,165.42z"/>
		<path fill="#5ABA47" d="M1015.115,165.42c0,0,51.059-43.826,48.932-127.224c5.957,98.29,6.809,121.268-2.127,131.054
			C1052.984,179.035,1023.625,200.311,1015.115,165.42z"/>
		<path fill="#5ABA47" d="M1104.214,165.42c0,0,51.059-43.826,48.932-127.224c5.957,98.29,6.809,121.268-2.127,131.054
			C1142.083,179.035,1112.724,200.311,1104.214,165.42z"/>
		<path fill="#5ABA47" d="M1193.312,165.42c0,0,51.06-43.826,48.932-127.224c5.958,98.29,6.809,121.268-2.127,131.054
			C1231.181,179.035,1201.821,200.311,1193.312,165.42z"/>
		<path fill="#5ABA47" d="M1282.41,165.42c0,0,51.059-43.826,48.932-127.224c5.957,98.29,6.809,121.268-2.127,131.054
			C1320.279,179.035,1290.92,200.311,1282.41,165.42z"/>
		<path fill="#5ABA47" d="M1371.509,165.42c0,0,51.059-43.826,48.932-127.224c5.957,98.29,6.809,121.268-2.128,131.054
			C1409.377,179.035,1380.018,200.311,1371.509,165.42z"/>
		<path fill="#5ABA47" d="M1460.606,165.42c0,0,51.059-43.826,48.932-127.224c5.957,98.29,6.809,121.268-2.127,131.054
			C1498.476,179.035,1469.116,200.311,1460.606,165.42z"/>
		<path fill="#5ABA47" d="M1549.705,165.42c0,0,51.059-43.826,48.932-127.224c5.957,98.29,6.809,121.268-2.128,131.054
			C1587.574,179.035,1558.215,200.311,1549.705,165.42z"/>
		<path fill="#5ABA47" d="M1638.803,165.42c0,0,51.059-43.826,48.932-127.224c5.957,98.29,6.809,121.268-2.127,131.054
			C1676.672,179.035,1647.312,200.311,1638.803,165.42z"/>
		<path fill="#5ABA47" d="M1727.9,165.42c0,0,51.06-43.826,48.932-127.224c5.957,98.29,6.809,121.268-2.126,131.054
			C1765.77,179.035,1736.411,200.311,1727.9,165.42z"/>
		<path fill="#5ABA47" d="M1816.999,165.42c0,0,51.06-43.826,48.932-127.224c5.958,98.29,6.809,121.268-2.127,131.054
			C1854.869,179.035,1825.509,200.311,1816.999,165.42z"/>
		<path fill="#5ABA47" d="M1906.098,165.42c0,0,51.059-43.826,48.932-127.224c5.957,98.29,6.809,121.268-2.127,131.054
			C1943.967,179.035,1914.607,200.311,1906.098,165.42z"/>
	</g>
	<g>
		<path fill="#4CA046" d="M67.707,166.708c0,0-49.232-56.063-46.623-162.253c-6.422,125.135-7.397,154.391,1.205,166.897
			C30.89,183.856,59.224,211.097,67.707,166.708z"/>
		<path fill="#4CA046" d="M189.708,166.311c0,0-49.232-56.063-46.624-162.253c-6.422,125.135-7.397,154.391,1.205,166.897
			C152.891,183.459,181.225,210.699,189.708,166.311z"/>
		<path fill="#4CA046" d="M311.708,165.913c0,0-49.232-56.063-46.623-162.253c-6.422,125.135-7.397,154.391,1.205,166.897
			C274.891,183.062,303.226,210.302,311.708,165.913z"/>
		<path fill="#4CA046" d="M433.708,165.516c0,0-49.231-56.064-46.623-162.253c-6.422,125.135-7.397,154.391,1.204,166.897
			C396.892,182.664,425.226,209.904,433.708,165.516z"/>
		<path fill="#4CA046" d="M555.709,165.118c0,0-49.231-56.063-46.623-162.253c-6.422,125.135-7.397,154.391,1.205,166.897
			C518.892,182.267,547.226,209.506,555.709,165.118z"/>
		<path fill="#4CA046" d="M677.71,164.721c0,0-49.232-56.063-46.623-162.253c-6.422,125.134-7.397,154.391,1.204,166.897
			C640.893,181.869,669.227,209.109,677.71,164.721z"/>
		<path fill="#4CA046" d="M799.71,164.322c0,0-49.232-56.062-46.623-162.252c-6.422,125.135-7.397,154.391,1.204,166.896
			C762.893,181.471,791.228,208.712,799.71,164.322z"/>
		<path fill="#4CA046" d="M921.711,163.926c0,0-49.231-56.064-46.623-162.254c-6.422,125.136-7.397,154.391,1.204,166.898
			C884.894,181.074,913.228,208.314,921.711,163.926z"/>
		<path fill="#4CA046" d="M1043.711,163.527c0,0-49.231-56.062-46.623-162.252c-6.422,125.135-7.397,154.391,1.205,166.896
			C1006.895,180.676,1035.229,207.916,1043.711,163.527z"/>
		<path fill="#4CA046" d="M1165.712,163.13c0,0-49.231-56.063-46.623-162.252c-6.422,125.134-7.397,154.39,1.204,166.898
			C1128.895,180.279,1157.229,207.519,1165.712,163.13z"/>
		<path fill="#4CA046" d="M1287.713,162.732c0,0-49.232-56.062-46.623-162.253c-6.422,125.136-7.397,154.391,1.204,166.897
			C1250.896,179.881,1279.229,207.121,1287.713,162.732z"/>
		<path fill="#4CA046" d="M1409.713,162.336c0,0-49.231-56.064-46.623-162.254c-6.422,125.135-7.397,154.391,1.204,166.897
			C1372.896,179.483,1401.229,206.725,1409.713,162.336z"/>
		<path fill="#4CA046" d="M1531.714,161.938c0,0-49.231-56.063-46.624-162.252c-6.422,125.134-7.396,154.391,1.205,166.897
			C1494.896,179.086,1523.23,206.326,1531.714,161.938z"/>
		<path fill="#4CA046" d="M1653.714,161.54c0,0-49.231-56.063-46.623-162.252c-6.422,125.134-7.397,154.39,1.204,166.897
			C1616.896,178.689,1645.23,205.929,1653.714,161.54z"/>
		<path fill="#4CA046" d="M1775.715,161.143c0,0-49.231-56.063-46.623-162.253c-6.422,125.135-7.397,154.391,1.204,166.897
			C1738.897,178.291,1767.231,205.531,1775.715,161.143z"/>
		<path fill="#4CA046" d="M1897.715,160.745c0,0-49.231-56.063-46.623-162.253c-6.422,125.135-7.396,154.391,1.204,166.897
			C1860.897,177.894,1889.231,205.134,1897.715,160.745z"/>
		<path fill="#4CA046" d="M2019.716,160.348c0,0-49.231-56.063-46.623-162.253c-6.422,125.135-7.397,154.391,1.204,166.897
			C1982.898,177.496,2011.232,204.736,2019.716,160.348z"/>
	</g>
</g>
</svg>
