<?xml version="1.0" encoding="utf-8"?>
<!-- Generator: Adobe Illustrator 15.1.0, SVG Export Plug-In . SVG Version: 6.00 Build 0)  -->
<!DOCTYPE svg PUBLIC "-//W3C//DTD SVG 1.1//EN" "http://www.w3.org/Graphics/SVG/1.1/DTD/svg11.dtd">
<svg version="1.1" id="Layer_1" xmlns="http://www.w3.org/2000/svg" xmlns:xlink="http://www.w3.org/1999/xlink" x="0px" y="0px"
	 width="595.28px" height="841.89px" viewBox="0 0 595.28 841.89" enable-background="new 0 0 595.28 841.89" xml:space="preserve">
<g>
	
		<linearGradient id="SVGID_1_" gradientUnits="userSpaceOnUse" x1="683.8203" y1="-928.4155" x2="755.1512" y2="-942.6366" gradientTransform="matrix(0.9836 -0.1804 0.1804 0.9836 -501.9863 1120.9854)">
		<stop  offset="0" style="stop-color:#FFFFFF"/>
		<stop  offset="1" style="stop-color:#4E4E4E"/>
	</linearGradient>
	<path fill="url(#SVGID_1_)" d="M20.891,76.82c-0.648,0.186-1.485,0.387-2.269,0.531c-0.374,0.068-0.735,0.123-1.06,0.157
		c-0.107,0.011-0.236,0.03-0.381,0.057c-0.515,0.095-1.213,0.269-1.824,0.382c-0.35,0.064-0.67,0.107-0.928,0.106
		c-0.244-0.008-0.482-0.032-0.575-0.269c-0.009-0.031-0.015-0.062-0.019-0.088c-0.008-0.047-0.006-0.095-0.007-0.145
		c0.021,0.269-0.06,0.535-0.313,0.826c-0.697,0.793-1.185,1.548-1.035,2.049c0.152,0.502,2.574-0.275,3.555-0.377
		c0.979-0.102,3.839-1.113,4.787-1.385c0.648-0.187,8.283-2.912,15.803-4.906c-1.525,0.256-3.059,0.525-4.539,0.797
		C26.354,75.607,21.411,76.672,20.891,76.82z"/>
	
		<linearGradient id="SVGID_2_" gradientUnits="userSpaceOnUse" x1="694.8506" y1="-965.0708" x2="838.2808" y2="-956.1395" gradientTransform="matrix(0.9836 -0.1804 0.1804 0.9836 -501.9863 1120.9854)">
		<stop  offset="0" style="stop-color:#EFF1F0"/>
		<stop  offset="0.2441" style="stop-color:#F9FBFB"/>
		<stop  offset="0.489" style="stop-color:#FCFEFF"/>
		<stop  offset="0.7758" style="stop-color:#F7F8FA"/>
		<stop  offset="0.989" style="stop-color:#F0F1F2"/>
	</linearGradient>
	<path fill="url(#SVGID_2_)" d="M27.744,12.164c-4.167,0.519-8.975,1.15-11.532,1.596c-3.93,0.684-9.135,1.406-11.83,1.901
		c-0.825,0.15-1.424,0.284-1.643,0.377C2.293,16.219,2,16.371,1.838,16.5c-0.162,0.137-0.178,0.205-0.168,0.277
		c0.005,0.028,0.02,0.062,0.045,0.105c0.108,0.185,0.221,0.296,0.262,0.513c0.027,0.153,0.012,0.329-0.049,0.596
		c-0.109,0.45-0.265,0.888-0.207,1.172c0.021,0.114,0.066,0.204,0.162,0.289c0.305,0.259,0.419,0.408,0.465,0.69
		c0.019,0.104,0.033,0.223,0.059,0.391c0.001,0.01,0.001,0.01,0.001,0.01c0.029,0.356,0.693,0.586,0.839,1.226
		c0.031,0.168,0.017,0.355-0.059,0.569c-0.285,0.771-0.881,1.961-0.771,2.465c0.023,0.113,0.062,0.175,0.139,0.223
		c0.369,0.242,1.006,0.014,1.449,0.114c0.154,0.035,0.303,0.169,0.332,0.361H4.335l0.004,0.013l0.001,0.008
		c0.002,0.013,0.004,0.021,0.004,0.027C4.408,26.008,4.923,26.216,5.081,27c0.003,0.016,0.006,0.028,0.01,0.045
		c0.123,0.775,0.084,1.35-0.145,1.905c-0.115,0.276-0.174,0.469-0.147,0.591c0.021,0.109,0.097,0.22,0.353,0.371
		c0.465,0.27,0.933,0.78,1.041,1.353c0.033,0.18,0.027,0.366-0.032,0.546c-0.126,0.377-0.449,0.672-0.706,0.979
		c-0.26,0.309-0.438,0.596-0.379,0.91l-0.006,0.002l0.012,0.015c0.061,0.313,0.354,0.501,0.711,0.678
		c0.349,0.181,0.753,0.325,0.908,0.704c0.229,0.614,0.266,1.01,0.527,1.175c0.248,0.171,0.486,0.462,0.559,0.856
		c0.039,0.209,0.027,0.443-0.051,0.696c-0.18,0.542-0.428,0.866-0.357,1.188c0.019,0.1,0.062,0.211,0.152,0.343
		c0.272,0.421,0.816,0.712,0.929,1.228c0.04,0.207-0.019,0.435-0.183,0.664c-0.539,0.75-0.609,0.801-0.668,0.844
		c0,0-0.001,0-0.014,0.012c-0.016,0.014-0.037,0.036-0.057,0.07c-0.041,0.07-0.084,0.189-0.043,0.413
		c0.032,0.179,0.121,0.421,0.316,0.739c0.314,0.516,0.754,0.956,1.133,1.339c0.377,0.388,0.705,0.697,0.779,1.052
		c0.01,0.051,0.011,0.1,0.008,0.151c-0.09,0.621-0.818,1.276-0.697,1.79c0.007,0.035,0.014,0.068,0.027,0.104
		c0.199,0.566,1.283,1.252,1.449,2.052c0.01,0.056,0.014,0.107,0.018,0.161c0,0.434-0.244,0.691-0.437,0.912
		c-0.195,0.231-0.352,0.424-0.345,0.814c0.006,0.179,0.018,0.314,0.036,0.418c0.067,0.367,0.2,0.35,0.55,0.744
		c0.35,0.418,1.83,1.619,1.998,2.414c0.012,0.07,0.014,0.139,0.001,0.21c-0.11,0.542-0.522,1.597-0.422,2.091
		c0.019,0.102,0.052,0.167,0.099,0.209c0.344,0.33,1.01,0.567,1.145,1.23c0.021,0.105,0.023,0.218,0.012,0.338
		c-0.058,0.436-0.372,0.881-0.641,1.332c-0.275,0.447-0.491,0.891-0.426,1.207c0.008,0.032,0.014,0.061,0.025,0.092
		c0.121,0.355,0.521,0.805,0.912,1.232c0.389,0.436,0.773,0.839,0.855,1.246c0.104,0.58-0.006,1.54,0.119,2.207
		c0.027,0.151,0.066,0.285,0.119,0.393c0.201,0.443,0.635,0.775,0.736,1.272c0.039,0.198,0.005,0.419-0.121,0.648
		c-0.213,0.381-0.722,0.924-1.168,1.47c-0.451,0.533-0.801,1.103-0.74,1.31c0.002,0.014,0.006,0.021,0.009,0.031
		c0.071,0.229,0.437,0.399,0.872,0.589c0.426,0.193,0.916,0.425,1.146,0.93c0.221,0.498,0.526,0.926,0.617,1.396
		c0.066,0.346-0.016,0.717-0.334,1.076c-0.664,0.742-1.105,1.473-1.018,1.856c0.006,0.021,0.01,0.034,0.015,0.052
		c0,0-0.002,0.01,0.049,0.03c0.049,0.019,0.135,0.031,0.245,0.031c0.22,0.002,0.529-0.04,0.87-0.103
		c0.601-0.109,1.295-0.285,1.825-0.381c0.149-0.027,0.285-0.048,0.406-0.061c0.311-0.031,0.664-0.086,1.034-0.154
		c0.771-0.141,1.604-0.343,2.239-0.523c0.557-0.16,5.479-1.217,11.227-2.27c4.389-0.806,9.25-1.609,12.989-1.998
		c8.607-0.902,81.414-9.762,109.347-12.777c1.533-0.107,2.705-0.25,3.599-0.414c1.897-0.346,2.534-0.794,2.743-1.158
		c0.232-0.357,0.046-0.737,0.3-1.12c0.415-0.547,0.853-1.222,0.733-1.83c-0.025-0.132-0.074-0.262-0.153-0.396
		c-0.489-0.816-1.136-1.445-1.409-2.173c-0.093-0.257-0.157-0.425-0.186-0.58c-0.051-0.269,0.032-0.465,0.193-0.769
		c0.178-0.335,0.373-1.084,0.283-1.549c-0.031-0.166-0.093-0.291-0.18-0.359c-0.238-0.202-0.34-0.502-0.395-0.794
		c-0.064-0.354-0.061-0.722-0.078-0.923c-0.896-0.318-2.085-1.215-2.428-1.502c-0.384-0.33-0.955-0.655-1.514-0.689
		c-0.75-0.078-1.953-1.434-2.396-1.886c-0.037-0.04-0.062-0.062-0.078-0.07c-0.007,0.007-0.013,0.018-0.02,0.03
		c-0.027,0.043-0.06,0.115-0.1,0.194c-0.076,0.149-0.192,0.36-0.448,0.411c-0.011,0.002-0.022,0.004-0.038,0.006
		c-0.357,0.022-0.59-0.268-0.82-0.568c-0.23-0.311-0.458-0.678-0.693-0.913c-0.475-0.479-1.088-0.659-1.836-0.98
		c-0.779-0.339-1.886-1.298-2.303-1.816c-0.203-0.241-0.345-0.241-0.613-0.2c-0.146,0.027-0.317,0.078-0.51,0.113
		c-0.051,0.01-0.104,0.02-0.159,0.024c-0.415,0.039-0.642-0.315-0.81-0.63c-0.164-0.322-0.316-0.68-0.411-0.741
		c-0.317-0.251-1.292-1.081-1.585-1.382c-0.236-0.248-0.546-0.297-0.93-0.424c-0.455-0.175-1.418-1.191-1.635-1.554
		c-0.1-0.194-0.426-0.325-0.723-0.271c-0.045,0.011-0.086,0.021-0.131,0.038c-0.131,0.047-0.201,0.089-0.306,0.112
		c-0.098,0.021-0.21-0.016-0.294-0.078c-0.087-0.062-0.186-0.152-0.346-0.293c-0.508-0.45-2.115-2.227-2.553-2.62
		c-0.207-0.181-0.333-0.197-0.497-0.173c-0.165,0.029-0.367,0.137-0.626,0.246c-0.021,0.008-0.046,0.016-0.073,0.021
		c-0.407,0.036-0.653-0.365-0.909-0.74c-0.24-0.381-0.457-0.816-0.523-0.887c-0.115-0.141-0.215-0.344-0.325-0.505
		c-0.11-0.172-0.218-0.236-0.241-0.22c-0.205,0.026-0.854,0.492-1.364,0.59c-0.026,0.006-0.053,0.01-0.083,0.014
		c-0.334,0.034-0.523-0.238-0.617-0.518c-0.105-0.289-0.17-0.651-0.274-0.999c-0.171-0.632-1.114-1.161-1.456-1.721
		c-0.112-0.186-0.262-0.217-0.521-0.218c-0.255,0.004-0.57,0.064-0.893,0.014c-0.703-0.138-0.936-0.945-1.229-1.631
		c-0.132-0.297-0.271-0.336-0.518-0.357c-0.246-0.018-0.563,0.043-0.891-0.029c-0.391-0.094-0.682-0.502-0.803-1.168
		c-0.118-0.64-0.085-1.541,0.207-2.729c0.589-2.4,1.432-6.444,1.397-8.744c-0.008-0.48-0.063-0.979-0.158-1.49
		c-0.356-1.946-1.244-4.112-1.86-6.268c-0.133-0.462-0.23-0.893-0.304-1.293c-0.219-1.191-0.211-2.094-0.17-2.629
		c-0.085,0.006-0.202,0.016-0.356,0.03c-0.332,0.034-0.814,0.086-1.433,0.155c-1.231,0.139-2.996,0.344-5.153,0.6
		c-4.314,0.514-10.199,1.232-16.543,2.011C87.243,4.661,72.717,6.477,65.247,7.434c-14.943,1.91-21.598,2.789-29.812,3.802
		l-0.02-0.146l0,0l0.019,0.146C35.424,11.236,31.909,11.644,27.744,12.164z"/>
	
		<linearGradient id="SVGID_3_" gradientUnits="userSpaceOnUse" x1="831.3965" y1="-963.4639" x2="806.1779" y2="-942.0453" gradientTransform="matrix(0.9836 -0.1804 0.1804 0.9836 -501.9863 1120.9854)">
		<stop  offset="0" style="stop-color:#E8EAEA"/>
		<stop  offset="0.0895" style="stop-color:#EFF0F1"/>
		<stop  offset="0.2888" style="stop-color:#F9FBFC"/>
		<stop  offset="0.489" style="stop-color:#FCFEFF"/>
		<stop  offset="0.6545" style="stop-color:#F7F9FB"/>
		<stop  offset="0.8831" style="stop-color:#E8EDEF"/>
		<stop  offset="0.989" style="stop-color:#DFE5E7"/>
	</linearGradient>
	<path fill="url(#SVGID_3_)" d="M126.205,11.98c0.032,2.365-0.815,6.403-1.405,8.818c-0.284,1.16-0.312,2.023-0.205,2.604
		c0.113,0.615,0.371,0.894,0.578,0.934c0.248,0.06,0.547,0.008,0.841,0.021c0.294,0.006,0.622,0.141,0.777,0.543
		c0.282,0.715,0.562,1.401,1.003,1.449c0.251,0.043,0.549-0.008,0.838-0.016c0.281-0.01,0.604,0.049,0.784,0.365
		c0.239,0.443,1.233,0.986,1.483,1.784c0.107,0.366,0.176,0.732,0.268,0.981c0.104,0.262,0.178,0.339,0.31,0.324
		c0.019-0.001,0.038-0.004,0.061-0.008c0.412-0.07,1.013-0.518,1.364-0.592c0.269-0.033,0.416,0.171,0.539,0.343
		c0.124,0.183,0.23,0.392,0.307,0.481c0.121,0.149,0.309,0.547,0.547,0.921c0.224,0.38,0.526,0.654,0.605,0.604
		c0.004-0.001,0.012-0.003,0.021-0.006c0.235-0.096,0.445-0.214,0.679-0.26c0.236-0.047,0.504,0.015,0.749,0.243
		c0.465,0.419,2.071,2.195,2.552,2.619c0.158,0.142,0.26,0.23,0.318,0.271c0.064,0.041,0.051,0.029,0.072,0.029
		c0.024-0.002,0.111-0.043,0.254-0.096c0.059-0.023,0.119-0.04,0.18-0.051c0.406-0.07,0.841,0.076,1.037,0.417
		c0.123,0.253,1.203,1.349,1.471,1.417c0.342,0.117,0.727,0.167,1.047,0.496c0.266,0.274,1.254,1.117,1.556,1.356
		c0.212,0.183,0.323,0.53,0.489,0.835c0.163,0.312,0.339,0.508,0.514,0.475c0.045-0.006,0.092-0.014,0.139-0.022
		c0.174-0.032,0.342-0.081,0.51-0.112c0.295-0.062,0.641-0.033,0.898,0.308c0.367,0.466,1.497,1.435,2.191,1.729
		c0.723,0.313,1.383,0.5,1.925,1.042c0.272,0.275,0.503,0.65,0.724,0.947c0.217,0.303,0.429,0.478,0.551,0.451
		c0.005-0.002,0.011-0.003,0.016-0.004c0.093-0.013,0.167-0.108,0.236-0.253c0.084-0.132,0.098-0.317,0.328-0.389
		c0.145-0.022,0.249,0.057,0.353,0.165c0.399,0.447,1.726,1.794,2.196,1.793c0.66,0.044,1.271,0.403,1.689,0.758
		c0.269,0.231,1.193,0.924,1.965,1.296c-0.109-0.152-0.254-0.345-0.427-0.575c-0.442-0.588-1.073-1.414-1.85-2.422
		c-1.551-2.017-3.678-4.76-6.005-7.764c-4.659-6.008-10.125-13.055-13.406-17.418c-5.986-7.957-12.841-16.75-14.168-18.309
		c-0.027,0.527-0.013,1.339,0.178,2.374c0.07,0.39,0.168,0.813,0.297,1.265c0.609,2.135,1.5,4.307,1.867,6.296
		C126.139,10.967,126.2,11.48,126.205,11.98z"/>
	<path fill="#E0E5E5" d="M161.846,54.422c-0.516-0.852-1.156-1.49-1.385-2.125c-0.094-0.254-0.151-0.417-0.171-0.531
		c-0.03-0.182,0-0.258,0.163-0.577c0.205-0.401,0.414-1.155,0.311-1.739c-0.037-0.209-0.12-0.403-0.279-0.535
		c-0.154-0.125-0.246-0.355-0.293-0.617c-0.07-0.373-0.048-0.773-0.088-1.006c-0.039-0.115-0.088-0.16-0.211-0.342
		c-1.766-2.463-15.624-20.121-21.787-28.312c-3.287-4.373-6.83-8.984-9.58-12.52c-1.375-1.769-2.554-3.268-3.404-4.333
		c-0.422-0.532-0.767-0.956-1.012-1.253c-0.123-0.146-0.22-0.264-0.295-0.346c-0.08-0.088-0.096-0.12-0.175-0.167
		c-0.088-0.031-0.073-0.013-0.112-0.019c-1.576,0.047-43.607,5.256-58.324,7.139C50.262,9.05,43.612,9.928,35.395,10.941
		c-0.004,0.002-14.1,1.633-19.239,2.527c-3.922,0.684-9.124,1.404-11.834,1.902c-0.833,0.152-1.423,0.281-1.7,0.395
		c-0.455,0.184-0.766,0.344-0.971,0.503c-0.202,0.156-0.316,0.354-0.275,0.562c0.014,0.074,0.041,0.143,0.082,0.207
		c0.13,0.213,0.205,0.297,0.227,0.412c0.016,0.088,0.01,0.225-0.048,0.477c-0.095,0.424-0.281,0.873-0.211,1.291
		c0.03,0.168,0.11,0.329,0.257,0.459c0.311,0.282,0.32,0.289,0.369,0.521c0.017,0.09,0.031,0.211,0.058,0.379
		c0,0,0,0.006,0.003,0.021c0.145,0.59,0.789,0.791,0.84,1.225c0.02,0.112,0.012,0.242-0.048,0.416
		c-0.262,0.76-0.896,1.902-0.782,2.619c0.029,0.168,0.117,0.328,0.274,0.422c0.369,0.22,0.802,0.156,1.136,0.136
		c0.165-0.013,0.307-0.013,0.389,0.011c0.082,0.029,0.096,0.037,0.121,0.129c0,0,0,0.006,0.002,0.014
		c0.001,0.012,0.004,0.021,0.006,0.035c0.141,0.646,0.633,0.811,0.736,1.451c0.002,0.011,0.004,0.027,0.008,0.047
		c0.115,0.738,0.078,1.236-0.127,1.738c-0.111,0.279-0.207,0.508-0.164,0.756c0.041,0.228,0.209,0.41,0.496,0.572
		c0.401,0.227,0.82,0.708,0.898,1.15c0.023,0.139,0.02,0.273-0.022,0.402c-0.085,0.266-0.378,0.561-0.65,0.878
		c-0.269,0.317-0.528,0.688-0.444,1.155c0,0,0.002,0.019,0.01,0.041c0.099,0.46,0.506,0.686,0.867,0.865
		c0.369,0.178,0.695,0.338,0.764,0.545c0.221,0.555,0.225,1.016,0.634,1.312c0.191,0.133,0.381,0.363,0.437,0.665
		c0.028,0.161,0.023,0.343-0.043,0.556c-0.146,0.479-0.449,0.826-0.367,1.328c0.027,0.146,0.092,0.298,0.2,0.459
		c0.341,0.477,0.843,0.803,0.882,1.113c0.021,0.118,0,0.248-0.133,0.439c-0.264,0.369-0.416,0.567-0.502,0.67
		c-0.04,0.049-0.065,0.077-0.078,0.09c-0.043,0.02-0.359,0.257-0.25,0.803c0.039,0.225,0.146,0.5,0.354,0.842
		c0.34,0.553,0.797,1.01,1.176,1.393c0.381,0.379,0.672,0.704,0.697,0.896c0.005,0.025,0.006,0.048,0.006,0.072
		c-0.014,0.42-0.809,1.105-0.695,1.869c0.01,0.051,0.023,0.104,0.045,0.158c0.293,0.702,1.345,1.4,1.434,1.996
		c0.007,0.037,0.01,0.074,0.01,0.113c0,0.309-0.158,0.477-0.363,0.715c-0.199,0.229-0.432,0.525-0.415,1.014
		c0.005,0.189,0.017,0.338,0.04,0.464c0.09,0.486,0.339,0.562,0.617,0.886c0.386,0.426,1.846,1.703,1.93,2.273
		c0.008,0.039,0.008,0.073,0.002,0.102c-0.087,0.496-0.533,1.537-0.422,2.199c0.025,0.141,0.082,0.275,0.192,0.375
		c0.426,0.373,0.981,0.609,1.051,1.064c0.015,0.074,0.017,0.155,0.008,0.252c-0.033,0.311-0.321,0.757-0.601,1.211
		c-0.271,0.459-0.543,0.934-0.461,1.414c0.008,0.045,0.019,0.092,0.037,0.137c0.16,0.452,0.583,0.9,0.971,1.332
		c0.391,0.425,0.746,0.846,0.784,1.101c0.095,0.499-0.015,1.478,0.119,2.208c0.03,0.168,0.075,0.325,0.142,0.467
		c0.252,0.51,0.664,0.859,0.715,1.197c0.022,0.135,0.008,0.271-0.091,0.453c-0.173,0.316-0.687,0.876-1.138,1.425
		c-0.446,0.563-0.864,1.085-0.803,1.552c0.006,0.024,0.012,0.054,0.024,0.084c0.163,0.409,0.611,0.559,1.028,0.752
		c0.424,0.189,0.828,0.4,0.998,0.781c0.238,0.526,0.529,0.953,0.594,1.327c0.046,0.273,0.004,0.515-0.264,0.827
		c-0.669,0.773-1.182,1.491-1.084,2.105c0.004,0.026,0.01,0.057,0.019,0.088c0.093,0.236,0.331,0.261,0.575,0.269
		c0.258,0.001,0.578-0.042,0.928-0.106c0.611-0.113,1.31-0.287,1.824-0.382c0.145-0.026,0.273-0.046,0.381-0.057
		c0.324-0.034,0.686-0.089,1.06-0.157c0.783-0.145,1.62-0.346,2.269-0.531c0.52-0.148,5.463-1.213,11.195-2.264
		c4.387-0.805,9.244-1.605,12.97-1.994c8.614-0.902,81.419-9.763,109.342-12.773c1.533-0.11,2.715-0.255,3.626-0.422
		c1.92-0.354,2.646-0.802,2.944-1.297c0.281-0.5,0.125-0.938,0.28-1.094c0.414-0.557,0.922-1.276,0.787-2.061
		C162.005,54.748,161.945,54.583,161.846,54.422z M123.702,0.506c1.327,1.559,8.182,10.352,14.168,18.309
		c3.281,4.363,8.747,11.41,13.406,17.418c2.327,3.004,4.454,5.747,6.005,7.764c0.776,1.008,1.407,1.834,1.85,2.422
		c0.173,0.23,0.317,0.423,0.427,0.575c-0.771-0.372-1.696-1.064-1.965-1.296c-0.418-0.354-1.029-0.714-1.689-0.758
		c-0.471,0.001-1.797-1.346-2.196-1.793c-0.104-0.108-0.208-0.188-0.353-0.165c-0.23,0.071-0.244,0.257-0.328,0.389
		c-0.069,0.145-0.144,0.24-0.236,0.253c-0.005,0.001-0.011,0.002-0.016,0.004c-0.122,0.026-0.334-0.148-0.551-0.451
		c-0.221-0.297-0.451-0.672-0.724-0.947c-0.542-0.542-1.202-0.729-1.925-1.042c-0.694-0.294-1.824-1.263-2.191-1.729
		c-0.258-0.341-0.604-0.37-0.898-0.308c-0.168,0.031-0.336,0.08-0.51,0.112c-0.047,0.009-0.094,0.017-0.139,0.022
		c-0.175,0.033-0.351-0.162-0.514-0.475c-0.166-0.305-0.277-0.652-0.489-0.835c-0.302-0.239-1.29-1.082-1.556-1.356
		c-0.32-0.329-0.705-0.379-1.047-0.496c-0.268-0.068-1.348-1.164-1.471-1.417c-0.196-0.341-0.631-0.487-1.037-0.417
		c-0.061,0.011-0.121,0.027-0.18,0.051c-0.143,0.053-0.229,0.094-0.254,0.096c-0.021,0-0.008,0.012-0.072-0.029
		c-0.059-0.04-0.16-0.129-0.318-0.271c-0.48-0.424-2.087-2.2-2.552-2.619c-0.245-0.229-0.513-0.29-0.749-0.243
		c-0.233,0.046-0.443,0.164-0.679,0.26c-0.009,0.003-0.017,0.005-0.021,0.006c-0.079,0.05-0.382-0.225-0.605-0.604
		c-0.238-0.374-0.426-0.771-0.547-0.921c-0.076-0.09-0.183-0.299-0.307-0.481c-0.123-0.172-0.271-0.376-0.539-0.343
		c-0.352,0.074-0.952,0.521-1.364,0.592c-0.022,0.004-0.042,0.007-0.061,0.008c-0.132,0.015-0.205-0.062-0.31-0.324
		c-0.092-0.249-0.16-0.615-0.268-0.981c-0.25-0.798-1.244-1.341-1.483-1.784c-0.181-0.316-0.503-0.375-0.784-0.365
		c-0.289,0.008-0.587,0.059-0.838,0.016c-0.441-0.048-0.721-0.734-1.003-1.449c-0.155-0.402-0.483-0.537-0.777-0.543
		c-0.294-0.014-0.593,0.038-0.841-0.021c-0.207-0.04-0.465-0.318-0.578-0.934c-0.107-0.58-0.079-1.443,0.205-2.604
		c0.59-2.415,1.438-6.453,1.405-8.818c-0.005-0.5-0.065-1.014-0.161-1.54c-0.367-1.989-1.258-4.161-1.867-6.296
		c-0.129-0.451-0.227-0.875-0.297-1.265C123.689,1.845,123.674,1.033,123.702,0.506z M161.017,56.798
		c-0.254,0.383-0.067,0.763-0.3,1.12c-0.209,0.364-0.846,0.812-2.743,1.158c-0.894,0.164-2.065,0.307-3.599,0.414
		C126.443,62.506,53.636,71.365,45.029,72.268c-3.739,0.389-8.601,1.192-12.989,1.998c-5.748,1.053-10.67,2.109-11.227,2.27
		c-0.635,0.181-1.469,0.383-2.239,0.523c-0.37,0.068-0.724,0.123-1.034,0.154c-0.121,0.013-0.257,0.033-0.406,0.061
		c-0.53,0.096-1.225,0.271-1.825,0.381c-0.341,0.062-0.65,0.104-0.87,0.103c-0.11,0-0.196-0.013-0.245-0.031
		c-0.051-0.021-0.049-0.03-0.049-0.03c-0.005-0.018-0.009-0.031-0.015-0.052c-0.088-0.384,0.354-1.114,1.018-1.856
		c0.318-0.359,0.4-0.73,0.334-1.076c-0.091-0.471-0.396-0.898-0.617-1.396c-0.23-0.505-0.721-0.736-1.146-0.93
		c-0.436-0.189-0.801-0.359-0.872-0.589c-0.003-0.011-0.007-0.018-0.009-0.031c-0.061-0.207,0.289-0.776,0.74-1.31
		c0.446-0.546,0.955-1.089,1.168-1.47c0.126-0.229,0.16-0.45,0.121-0.648c-0.102-0.497-0.535-0.829-0.736-1.272
		c-0.053-0.107-0.092-0.241-0.119-0.393c-0.125-0.667-0.016-1.627-0.119-2.207c-0.082-0.407-0.467-0.811-0.855-1.246
		c-0.391-0.428-0.791-0.877-0.912-1.232c-0.012-0.031-0.018-0.06-0.025-0.092c-0.065-0.316,0.15-0.76,0.426-1.207
		c0.269-0.451,0.583-0.896,0.641-1.332c0.012-0.12,0.009-0.232-0.012-0.338c-0.135-0.663-0.801-0.9-1.145-1.23
		c-0.047-0.042-0.08-0.107-0.099-0.209c-0.101-0.494,0.312-1.549,0.422-2.091c0.013-0.071,0.011-0.14-0.001-0.21
		c-0.168-0.795-1.648-1.996-1.998-2.414c-0.35-0.395-0.482-0.377-0.55-0.744c-0.019-0.104-0.03-0.239-0.036-0.418
		c-0.007-0.391,0.149-0.583,0.345-0.814c0.192-0.221,0.437-0.479,0.437-0.912c-0.004-0.054-0.008-0.105-0.018-0.161
		c-0.166-0.8-1.25-1.485-1.449-2.052c-0.014-0.035-0.021-0.068-0.027-0.104c-0.121-0.514,0.607-1.169,0.697-1.79
		c0.003-0.052,0.002-0.101-0.008-0.151c-0.074-0.354-0.402-0.664-0.779-1.052c-0.379-0.383-0.818-0.823-1.133-1.339
		c-0.195-0.318-0.284-0.561-0.316-0.739c-0.041-0.224,0.002-0.343,0.043-0.413c0.02-0.034,0.041-0.057,0.057-0.07
		c0.013-0.012,0.015-0.01,0.015-0.01c0.058-0.045,0.128-0.096,0.667-0.846c0.164-0.229,0.223-0.457,0.183-0.664
		c-0.112-0.516-0.656-0.807-0.929-1.228c-0.09-0.132-0.134-0.243-0.152-0.343c-0.07-0.322,0.178-0.646,0.357-1.188
		c0.078-0.253,0.09-0.487,0.051-0.696c-0.072-0.395-0.311-0.686-0.559-0.856c-0.262-0.165-0.299-0.561-0.527-1.175
		c-0.155-0.379-0.56-0.523-0.908-0.704c-0.357-0.177-0.65-0.364-0.711-0.678l-0.012-0.015l0.006-0.002
		c-0.06-0.314,0.119-0.602,0.379-0.91c0.257-0.307,0.58-0.602,0.706-0.979c0.06-0.18,0.065-0.366,0.032-0.546
		c-0.108-0.572-0.576-1.083-1.041-1.353c-0.256-0.151-0.332-0.262-0.353-0.371c-0.026-0.122,0.032-0.314,0.147-0.591
		c0.229-0.556,0.268-1.13,0.145-1.905C5.086,27.028,5.083,27.016,5.081,27c-0.157-0.784-0.673-0.992-0.736-1.451
		c0-0.006-0.002-0.015-0.004-0.027l-0.001-0.008l-0.004-0.013h0.001c-0.029-0.192-0.178-0.326-0.332-0.361
		c-0.443-0.101-1.08,0.128-1.449-0.114c-0.076-0.048-0.115-0.109-0.139-0.223c-0.109-0.504,0.486-1.693,0.771-2.465
		c0.075-0.214,0.09-0.401,0.059-0.569c-0.146-0.64-0.81-0.869-0.839-1.226c0,0,0,0-0.001-0.01c-0.025-0.168-0.04-0.287-0.059-0.391
		c-0.046-0.282-0.16-0.432-0.465-0.69c-0.096-0.085-0.141-0.175-0.162-0.289c-0.058-0.284,0.098-0.722,0.207-1.172
		c0.061-0.267,0.076-0.442,0.049-0.596c-0.041-0.217-0.153-0.328-0.262-0.513c-0.025-0.043-0.04-0.077-0.045-0.105
		c-0.01-0.072,0.006-0.141,0.168-0.277c0.162-0.129,0.455-0.281,0.9-0.462c0.219-0.093,0.817-0.227,1.643-0.377
		c2.695-0.495,7.9-1.218,11.83-1.901c2.558-0.445,7.365-1.077,11.532-1.596c4.165-0.521,7.681-0.928,7.689-0.928l-0.019-0.146
		l0.02,0.146c8.215-1.013,14.869-1.892,29.812-3.802c7.471-0.957,21.996-2.772,34.686-4.333c6.344-0.778,12.229-1.497,16.543-2.011
		c2.157-0.256,3.922-0.461,5.153-0.6c0.618-0.069,1.101-0.121,1.433-0.155c0.154-0.015,0.271-0.024,0.356-0.03
		c-0.041,0.535-0.049,1.438,0.17,2.629c0.073,0.4,0.171,0.831,0.304,1.293c0.616,2.155,1.504,4.321,1.86,6.268
		c0.095,0.512,0.15,1.01,0.158,1.49c0.034,2.3-0.809,6.344-1.397,8.744c-0.292,1.188-0.325,2.089-0.207,2.729
		c0.121,0.666,0.412,1.074,0.803,1.168c0.327,0.072,0.645,0.012,0.891,0.029c0.246,0.021,0.386,0.061,0.518,0.357
		c0.293,0.686,0.525,1.493,1.229,1.631c0.322,0.051,0.638-0.01,0.893-0.014c0.26,0.001,0.409,0.032,0.521,0.218
		c0.342,0.56,1.285,1.089,1.456,1.721c0.104,0.348,0.169,0.71,0.274,0.999c0.094,0.279,0.283,0.552,0.617,0.518
		c0.03-0.004,0.057-0.008,0.083-0.014c0.51-0.098,1.159-0.563,1.364-0.59c0.023-0.017,0.131,0.048,0.241,0.22
		c0.11,0.161,0.21,0.364,0.325,0.505c0.066,0.07,0.283,0.506,0.523,0.887c0.256,0.375,0.502,0.776,0.909,0.74
		c0.027-0.006,0.052-0.014,0.073-0.021c0.259-0.109,0.461-0.217,0.626-0.246c0.164-0.024,0.29-0.008,0.497,0.173
		c0.438,0.394,2.045,2.17,2.553,2.62c0.16,0.141,0.259,0.231,0.346,0.293c0.084,0.062,0.196,0.1,0.294,0.078
		c0.104-0.023,0.175-0.065,0.306-0.112c0.045-0.018,0.086-0.027,0.131-0.038c0.297-0.055,0.623,0.076,0.723,0.271
		c0.217,0.362,1.18,1.379,1.635,1.554c0.384,0.127,0.693,0.176,0.93,0.424c0.293,0.301,1.268,1.131,1.585,1.382
		c0.095,0.062,0.247,0.419,0.411,0.741c0.168,0.314,0.395,0.669,0.81,0.63c0.056-0.005,0.108-0.015,0.159-0.024
		c0.192-0.035,0.364-0.086,0.51-0.113c0.269-0.041,0.41-0.041,0.613,0.2c0.417,0.519,1.523,1.478,2.303,1.816
		c0.748,0.321,1.361,0.502,1.836,0.98c0.235,0.235,0.463,0.603,0.693,0.913c0.23,0.301,0.463,0.591,0.82,0.568
		c0.016-0.002,0.027-0.004,0.038-0.006c0.256-0.051,0.372-0.262,0.448-0.411c0.04-0.079,0.072-0.151,0.1-0.194
		c0.007-0.013,0.013-0.023,0.02-0.03c0.016,0.009,0.041,0.03,0.078,0.07c0.443,0.452,1.646,1.808,2.396,1.886
		c0.559,0.034,1.13,0.359,1.514,0.689c0.343,0.287,1.531,1.184,2.428,1.502c0.018,0.201,0.014,0.568,0.078,0.923
		c0.055,0.292,0.156,0.592,0.395,0.794c0.087,0.068,0.148,0.193,0.18,0.359c0.09,0.465-0.105,1.214-0.283,1.549
		c-0.161,0.304-0.244,0.5-0.193,0.769c0.028,0.155,0.093,0.323,0.186,0.58c0.273,0.728,0.92,1.356,1.409,2.173
		c0.079,0.134,0.128,0.264,0.153,0.396C161.87,55.576,161.432,56.251,161.017,56.798z"/>
	
		<linearGradient id="SVGID_4_" gradientUnits="userSpaceOnUse" x1="682.8086" y1="-933.4951" x2="754.1401" y2="-947.7163" gradientTransform="matrix(0.9836 -0.1804 0.1804 0.9836 -501.9863 1120.9854)">
		<stop  offset="0" style="stop-color:#FFFFFF"/>
		<stop  offset="1" style="stop-color:#4E4E4E"/>
	</linearGradient>
	<path fill="url(#SVGID_4_)" d="M14.92,75.592c0.268-0.312,0.31-0.554,0.264-0.827c-0.064-0.374-0.355-0.801-0.594-1.327
		c-0.17-0.381-0.574-0.592-0.998-0.781c-0.327-0.151-0.67-0.277-0.882-0.52c-0.645,0.791-1.712,1.89-1.524,2.4
		c0.235,0.642,1.625,0.643,2.022,1.528c0.249,0.554,0.579,1.009,0.62,1.466C13.836,76.953,14.311,76.295,14.92,75.592z"/>
	
		<linearGradient id="SVGID_5_" gradientUnits="userSpaceOnUse" x1="676.873" y1="-963.2593" x2="748.2056" y2="-977.4807" gradientTransform="matrix(0.9836 -0.1804 0.1804 0.9836 -501.9863 1120.9854)">
		<stop  offset="0" style="stop-color:#FFFFFF"/>
		<stop  offset="1" style="stop-color:#4E4E4E"/>
	</linearGradient>
	<path fill="url(#SVGID_5_)" d="M14.48,68.844c0.099-0.182,0.113-0.318,0.091-0.453c-0.051-0.338-0.463-0.688-0.715-1.197
		c-0.066-0.142-0.111-0.299-0.142-0.467c-0.134-0.73-0.024-1.709-0.119-2.208c-0.038-0.255-0.394-0.676-0.784-1.101
		c-0.388-0.432-0.811-0.88-0.971-1.332c-0.019-0.045-0.029-0.092-0.037-0.137c-0.082-0.48,0.19-0.955,0.461-1.414
		c0.279-0.454,0.567-0.9,0.601-1.211c0.009-0.097,0.007-0.178-0.008-0.252c-0.069-0.455-0.625-0.691-1.051-1.064
		c-0.11-0.1-0.167-0.234-0.192-0.375c-0.111-0.662,0.335-1.703,0.422-2.199c0.006-0.028,0.006-0.062-0.002-0.102
		c-0.084-0.57-1.544-1.848-1.93-2.273c-0.278-0.324-0.527-0.399-0.617-0.886c-0.023-0.126-0.035-0.274-0.04-0.464
		c-0.017-0.488,0.216-0.785,0.415-1.014c0.205-0.238,0.363-0.406,0.363-0.715c0-0.039-0.003-0.076-0.01-0.113
		c-0.089-0.596-1.141-1.294-1.434-1.996c-0.021-0.055-0.035-0.107-0.045-0.158c-0.113-0.764,0.682-1.449,0.695-1.869
		c0-0.024-0.001-0.047-0.006-0.072c-0.025-0.192-0.316-0.518-0.697-0.896c-0.379-0.383-0.836-0.84-1.176-1.393
		c-0.207-0.342-0.314-0.617-0.354-0.842c-0.109-0.546,0.207-0.783,0.25-0.803c0.013-0.013,0.038-0.041,0.078-0.09
		c0.086-0.103,0.238-0.301,0.502-0.67c0.133-0.191,0.154-0.321,0.133-0.439c-0.039-0.311-0.541-0.637-0.882-1.113
		c-0.108-0.161-0.173-0.312-0.2-0.459c-0.082-0.502,0.221-0.85,0.367-1.328c0.066-0.213,0.071-0.395,0.043-0.556
		c-0.056-0.302-0.245-0.532-0.437-0.665c-0.409-0.297-0.413-0.758-0.634-1.312c-0.068-0.207-0.395-0.367-0.764-0.545
		c-0.361-0.18-0.769-0.405-0.867-0.865c-0.008-0.022-0.008-0.039-0.008-0.039c-0.086-0.469,0.174-0.84,0.442-1.157
		c0.272-0.317,0.565-0.612,0.65-0.878c0.042-0.129,0.046-0.264,0.022-0.402c-0.078-0.442-0.497-0.924-0.898-1.15
		c-0.287-0.162-0.455-0.345-0.496-0.572c-0.043-0.248,0.053-0.477,0.164-0.756c0.205-0.502,0.242-1,0.127-1.738
		c-0.004-0.02-0.006-0.036-0.008-0.047c-0.104-0.641-0.596-0.806-0.736-1.451c-0.002-0.014-0.005-0.023-0.006-0.035
		c-0.002-0.008-0.002-0.014-0.002-0.014c-0.025-0.092-0.039-0.1-0.121-0.129c-0.082-0.023-0.224-0.023-0.389-0.011
		c-0.334,0.021-0.767,0.084-1.136-0.136c-0.157-0.094-0.245-0.254-0.274-0.422c-0.113-0.717,0.521-1.859,0.782-2.619
		c0.06-0.174,0.067-0.304,0.048-0.416c-0.051-0.434-0.695-0.635-0.84-1.225c-0.003-0.016-0.003-0.024-0.003-0.024
		c-0.026-0.165-0.041-0.286-0.058-0.376c-0.049-0.232-0.059-0.239-0.369-0.521c-0.146-0.13-0.227-0.291-0.257-0.459
		c-0.04-0.236,0.003-0.482,0.065-0.729c-0.141,0.036-0.253,0.07-0.329,0.102c-1.065,0.434-1.3,0.716-1.093,1.059
		c0.206,0.344,0.337,0.386,0.193,0.999c-0.141,0.613-0.418,1.231,0.004,1.605c0.42,0.373,0.381,0.379,0.474,0.99
		c0.093,0.608,1.125,0.79,0.788,1.734c-0.336,0.942-1.188,2.488-0.57,2.865c0.617,0.376,1.627-0.201,1.715,0.39
		c0.09,0.591,0.631,0.766,0.751,1.525c0.12,0.762,0.08,1.297-0.136,1.827c-0.217,0.528-0.301,0.817,0.269,1.144
		c0.57,0.328,1.159,1.08,0.944,1.727c-0.215,0.647-1.251,1.189-1.086,1.98c0.164,0.793,1.402,0.82,1.627,1.404
		c0.227,0.586,0.245,1.014,0.582,1.246c0.336,0.23,0.66,0.721,0.449,1.384c-0.211,0.667-0.612,1.034-0.186,1.66
		c0.43,0.625,1.276,0.979,0.748,1.724c-0.529,0.742-0.617,0.798-0.617,0.798s-0.553,0.298,0.146,1.441s1.953,1.894,1.898,2.452
		c-0.054,0.557-0.92,1.283-0.658,1.961c0.262,0.676,1.453,1.416,1.453,2.159c0,0.745-0.803,0.853-0.779,1.729
		c0.023,0.875,0.227,0.801,0.622,1.256c0.397,0.457,2.086,1.869,1.966,2.498c-0.119,0.629-0.723,2.031-0.276,2.438
		c0.446,0.408,1.196,0.662,1.106,1.442c-0.093,0.779-1.32,1.887-1.033,2.695c0.285,0.81,1.641,1.795,1.763,2.456
		c0.12,0.664-0.069,1.972,0.247,2.638c0.154,0.322,0.396,0.582,0.562,0.846c0.097-0.129,0.201-0.261,0.307-0.396
		C13.793,69.72,14.307,69.16,14.48,68.844z"/>
	
		<linearGradient id="SVGID_6_" gradientUnits="userSpaceOnUse" x1="838.7959" y1="-941.1602" x2="729.6237" y2="-1019.1058" gradientTransform="matrix(0.9836 -0.1804 0.1804 0.9836 -501.9863 1120.9854)">
		<stop  offset="0" style="stop-color:#E8EBED"/>
		<stop  offset="1" style="stop-color:#4E4E4E"/>
	</linearGradient>
	<path fill="url(#SVGID_6_)" d="M153.411,43.278c-0.007,0.007-0.013,0.018-0.02,0.03c-0.027,0.043-0.06,0.115-0.1,0.194
		c-0.076,0.149-0.192,0.36-0.448,0.411c-0.011,0.002-0.022,0.004-0.038,0.006c-0.035,0.003-0.066,0-0.1-0.004
		c0.361,0.459,0.689,0.959,1.068,0.93c0.379-0.028,0.428-0.516,0.609-0.588c-0.373-0.355-0.704-0.715-0.895-0.909
		C153.452,43.309,153.426,43.287,153.411,43.278z"/>
	
		<linearGradient id="SVGID_7_" gradientUnits="userSpaceOnUse" x1="838.6953" y1="-941.0171" x2="729.5119" y2="-1018.9708" gradientTransform="matrix(0.9836 -0.1804 0.1804 0.9836 -501.9863 1120.9854)">
		<stop  offset="0" style="stop-color:#E8EBED"/>
		<stop  offset="1" style="stop-color:#4E4E4E"/>
	</linearGradient>
	<path fill="url(#SVGID_7_)" d="M155.885,45.234c-0.17-0.018-0.359-0.101-0.559-0.223c0.572,0.513,1.303,1.092,1.732,1.124
		c0.277,0.021,0.552,0.095,0.808,0.198c-0.011-0.023-0.022-0.049-0.034-0.072c-0.188-0.141-0.342-0.263-0.434-0.338
		C157.015,45.594,156.444,45.269,155.885,45.234z"/>
	
		<linearGradient id="SVGID_8_" gradientUnits="userSpaceOnUse" x1="840.917" y1="-944.1333" x2="731.7286" y2="-1022.0906" gradientTransform="matrix(0.9836 -0.1804 0.1804 0.9836 -501.9863 1120.9854)">
		<stop  offset="0" style="stop-color:#E8EBED"/>
		<stop  offset="1" style="stop-color:#4E4E4E"/>
	</linearGradient>
	<path fill="url(#SVGID_8_)" d="M124.6,26.231c0.613,0.134,1.308-0.19,1.604,0.474c0.297,0.664,0.561,1.369,1.168,1.467
		c0.606,0.098,1.307-0.19,1.61,0.287c0.303,0.477,1.328,0.995,1.544,1.672c0.213,0.676,0.267,1.375,0.766,1.34
		c0.496-0.035,1.221-0.495,1.531-0.541c0.311-0.045,0.54,0.521,0.744,0.74c0.201,0.218,0.883,1.674,1.406,1.492
		s0.879-0.411,1.354-0.021c0.475,0.392,2.162,2.09,2.684,2.508c0.521,0.42,0.429,0.362,0.843,0.23
		c0.414-0.131,0.919,0.009,1.096,0.301c0.177,0.293,1.253,1.303,1.635,1.424c0.384,0.119,0.753,0.172,1.045,0.448
		c0.294,0.276,1.329,1.079,1.653,1.315c0.326,0.234,0.539,1.336,1.166,1.279c0.629-0.057,1.094-0.336,1.504,0.134
		c0.41,0.471,1.59,1.396,2.367,1.706c0.559,0.223,1.061,0.382,1.498,0.632c-0.174-0.247-0.346-0.502-0.525-0.68
		c-0.475-0.479-1.088-0.659-1.836-0.98c-0.779-0.339-1.886-1.298-2.303-1.816c-0.203-0.241-0.345-0.241-0.613-0.2
		c-0.146,0.027-0.317,0.078-0.51,0.113c-0.051,0.01-0.104,0.02-0.159,0.024c-0.415,0.039-0.642-0.315-0.81-0.63
		c-0.164-0.322-0.316-0.68-0.411-0.741c-0.317-0.251-1.292-1.081-1.585-1.382c-0.236-0.248-0.546-0.297-0.93-0.424
		c-0.455-0.175-1.418-1.191-1.635-1.554c-0.1-0.194-0.426-0.325-0.723-0.271c-0.045,0.011-0.086,0.021-0.131,0.038
		c-0.131,0.047-0.201,0.089-0.306,0.112c-0.098,0.021-0.21-0.016-0.294-0.078c-0.087-0.062-0.186-0.152-0.346-0.293
		c-0.508-0.45-2.115-2.227-2.553-2.62c-0.207-0.181-0.333-0.197-0.497-0.173c-0.165,0.029-0.367,0.137-0.626,0.246
		c-0.021,0.008-0.046,0.016-0.073,0.021c-0.407,0.036-0.653-0.365-0.909-0.74c-0.24-0.381-0.457-0.816-0.523-0.887
		c-0.115-0.141-0.215-0.344-0.325-0.505c-0.11-0.172-0.218-0.236-0.241-0.22c-0.205,0.026-0.854,0.492-1.364,0.59
		c-0.026,0.006-0.053,0.01-0.083,0.014c-0.334,0.034-0.523-0.238-0.617-0.518c-0.105-0.289-0.17-0.651-0.274-0.999
		c-0.171-0.632-1.114-1.161-1.456-1.721c-0.112-0.186-0.262-0.217-0.521-0.218c-0.255,0.004-0.57,0.064-0.893,0.014
		c-0.703-0.138-0.936-0.945-1.229-1.631c-0.132-0.297-0.271-0.336-0.518-0.357c-0.246-0.018-0.563,0.043-0.891-0.029
		c-0.391-0.094-0.682-0.502-0.803-1.168c-0.061-0.324-0.082-0.714-0.049-1.174c-0.043,0.154-0.086,0.303-0.127,0.444
		C123.475,24.981,123.986,26.098,124.6,26.231z"/>
</g>
</svg>
