<?xml version="1.0" encoding="utf-8"?>
<!-- Generator: Adobe Illustrator 15.1.0, SVG Export Plug-In . SVG Version: 6.00 Build 0)  -->
<!DOCTYPE svg PUBLIC "-//W3C//DTD SVG 1.1//EN" "http://www.w3.org/Graphics/SVG/1.1/DTD/svg11.dtd">
<svg version="1.1" id="Layer_1" xmlns="http://www.w3.org/2000/svg" xmlns:xlink="http://www.w3.org/1999/xlink" x="0px" y="0px"
	 width="595.28px" height="841.89px" viewBox="0 0 595.28 841.89" enable-background="new 0 0 595.28 841.89" xml:space="preserve">
<g>
	
		<linearGradient id="SVGID_1_" gradientUnits="userSpaceOnUse" x1="139.5898" y1="-229.9854" x2="277.7104" y2="-279.4835" gradientTransform="matrix(0.9981 -0.0621 0.0621 0.9981 -121.8574 305.0845)">
		<stop  offset="0" style="stop-color:#EFF1F0"/>
		<stop  offset="0.2441" style="stop-color:#F9FBFB"/>
		<stop  offset="0.489" style="stop-color:#FCFEFF"/>
		<stop  offset="0.7758" style="stop-color:#F7F8FA"/>
		<stop  offset="0.989" style="stop-color:#F0F1F2"/>
	</linearGradient>
	<path fill="url(#SVGID_1_)" d="M140.256,55.305c-0.375-0.475-0.79-0.969-0.982-1.104c-0.141-0.102-0.323-0.193-0.482-0.292
		c-0.154-0.101-0.318-0.214-0.342-0.431c-0.006-0.188,0.106-0.346,0.309-0.518c0.307-0.259,0.562-0.404,0.712-0.558
		c0.144-0.154,0.216-0.297,0.2-0.665c-0.004-0.057-0.012-0.121-0.02-0.188c-0.142-0.965-0.342-1.164-0.671-1.367
		c-0.151-0.096-0.347-0.085-0.519-0.152c-0.059-0.022-0.145-0.1-0.146-0.201c0.002-0.154,0.082-0.248,0.223-0.423
		c0.227-0.265,0.521-0.563,0.751-0.833c0.235-0.264,0.388-0.531,0.368-0.6c0-0.008-0.001-0.013-0.002-0.015
		c-0.068-0.238-0.549-0.644-0.598-1.382c-0.003-0.043-0.004-0.09-0.003-0.135c0.001-0.191,0.001-0.364-0.01-0.518
		c-0.03-0.455-0.12-0.721-0.366-0.916c-0.119-0.094-0.281-0.16-0.429-0.227c-0.138-0.068-0.317-0.137-0.343-0.355
		c-0.006-0.15,0.073-0.271,0.205-0.416c0.219-0.236,0.515-0.432,0.747-0.624c0.239-0.196,0.378-0.378,0.362-0.519
		c-0.004-0.057-0.025-0.121-0.084-0.201c-0.354-0.525-1.473-1.16-1.551-1.992c-0.007-0.102,0.005-0.21,0.043-0.314
		c0.139-0.398,0.576-0.826,1.021-1.249c0.443-0.417,0.906-0.819,1.056-1.051c0.04-0.055,0.049-0.089,0.05-0.097l0,0
		c-0.029-0.07-0.255-0.152-0.551-0.232c-0.305-0.092-0.68-0.225-0.899-0.593c-0.206-0.349-0.287-0.792-0.374-1.177
		c-0.081-0.389-0.188-0.711-0.322-0.793c-0.238-0.18-0.437-0.248-0.473-0.51c-0.007-0.146,0.059-0.27,0.164-0.436
		c0.262-0.386,0.87-1.092,0.827-1.366c-0.002-0.028-0.009-0.051-0.019-0.067c-0.131-0.271-0.975-0.604-1.041-1.285
		c-0.006-0.081,0.001-0.166,0.025-0.253c0.111-0.397,0.539-0.956,0.958-1.493c0.416-0.52,0.837-1.043,0.866-1.154
		c0.031-0.086,0.041-0.145,0.039-0.174c-0.005-0.037-0.006-0.058-0.109-0.127c-0.1-0.064-0.282-0.143-0.557-0.25
		c-0.36-0.141-0.584-0.18-0.777-0.296c-0.202-0.122-0.295-0.335-0.352-0.679c-0.098-0.604-0.743-0.932-0.926-1.281
		c-0.01-0.023-0.018-0.051-0.019-0.08c0-0.168,0.091-0.272,0.204-0.416c0.113-0.139,0.268-0.292,0.431-0.449
		c0.326-0.314,0.702-0.65,0.882-0.861c0.225-0.256,0.352-0.459,0.334-0.551c-0.001-0.066-0.061-0.172-0.338-0.312
		c-0.537-0.282-1.258-0.738-1.317-1.412c-0.011-0.157,0.024-0.322,0.109-0.481c0.291-0.55,1.21-1.649,1.637-2.327
		c0.124-0.189,0.198-0.363,0.206-0.412c-0.221-0.266-1.629-1.467-2.015-1.822c-0.239-0.223-0.39-0.518-0.408-0.814
		c-0.017-0.25,0.066-0.509,0.272-0.693c0.312-0.269,0.729-0.585,0.687-0.797c-0.003-0.064-0.032-0.138-0.122-0.236
		c-0.383-0.422-1.214-0.98-1.276-1.734c-0.009-0.133,0.01-0.271,0.063-0.407c0.288-0.707,1.342-2.294,1.287-2.817
		c-0.004-0.062-0.02-0.093-0.035-0.107c-0.43-0.448-1.68-1.852-1.787-2.5c-0.001-0.004-0.004-0.016-0.004-0.033
		c-0.008-0.336,0.24-0.624,0.455-0.945c0.223-0.316,0.416-0.645,0.396-0.9c-0.005-0.069-0.021-0.136-0.056-0.2
		c-0.277-0.569-0.923-0.946-0.984-1.567c-0.008-0.135,0.019-0.278,0.088-0.42c0.174-0.364,0.453-0.738,0.693-1.062
		c0.238-0.312,0.441-0.606,0.446-0.681c0.018-0.102,0.028-0.208,0.022-0.291c-0.027-0.162-0.025-0.166-0.11-0.17
		c-0.294,0.018-27.289,1.996-49.878,4.07c-20.996,1.93-54.503,5.726-60.938,6.127c-0.49,0.031-0.821,0.041-0.994,0.029
		c-0.214-0.016-0.475-0.012-0.772,0.007c-2.713,0.167-8.452,1.621-11.925,1.974c-1.492,0.149-2.408,0.221-3.051,0.26
		c-0.632,0.041-0.996,0.049-1.373,0.072c-0.225,0.014-0.455,0.033-0.752,0.068c-0.118,0.021-2.009,0.353-3.084,0.672
		c-0.361,0.101-0.648,0.237-0.66,0.268c-0.072,0.088-0.076,0.131-0.076,0.131c-0.001,0.002,0.025,0.051,0.136,0.137
		c0.102,0.085,0.245,0.203,0.366,0.391c0.152,0.242,0.258,0.391,0.275,0.59c0.01,0.176-0.068,0.322-0.192,0.506
		c-0.115,0.163-0.214,0.268-0.235,0.307c0.004,0.004,0.007,0.009,0.013,0.015c0.024,0.026,0.075,0.071,0.151,0.13
		c0.167,0.122,0.275,0.275,0.285,0.451c0.01,0.271-0.158,0.49-0.375,0.779c-0.062,0.078-0.106,0.141-0.129,0.183
		c-0.016,0.025-0.021,0.038-0.024,0.046c0,0,0.003,0.002,0.003,0.004c0.013,0.012,0.045,0.035,0.098,0.063
		c0.104,0.058,0.275,0.135,0.498,0.259c0.57,0.328,1.105,0.681,1.158,1.172c0.006,0.096-0.014,0.191-0.056,0.284
		c-0.079,0.147-0.07,0.52-0.046,0.919c0.021,0.404,0.047,0.842-0.075,1.206c-0.127,0.356-0.229,0.577-0.214,0.694
		c0.006,0.089,0.051,0.182,0.287,0.35c0.221,0.156,0.394,0.243,0.539,0.373c0.146,0.129,0.236,0.316,0.25,0.576
		c0.006,0.098,0.004,0.204-0.006,0.332c-0.007,0.107-0.009,0.203-0.002,0.293c0.035,0.531,0.268,0.799,0.548,1.092
		c0.214,0.221,0.368,0.494,0.388,0.779c0.014,0.199-0.052,0.408-0.217,0.564c-0.186,0.176-0.592,0.41-0.955,0.684
		c-0.366,0.262-0.644,0.576-0.621,0.736l0.001,0.003v0.011c0.017,0.148,0.058,0.223,0.102,0.285
		c0.036,0.066,0.104,0.104,0.126,0.246c-0.012,0.2-0.135,0.266-0.365,0.442c-0.607,0.426-1.561,0.866-1.49,1.796
		c0.002,0.045,0.008,0.088,0.015,0.134c0.012,0.075,0.021,0.15,0.025,0.227c0.065,1.181-0.561,2.593-0.506,3.327
		c0.037,0.697-0.256,0.953-0.22,1.215c0.006,0.094,0.035,0.205,0.123,0.367c0.278,0.52,0.464,0.692,0.492,1.096
		c0.006,0.119-0.001,0.254-0.023,0.422c-0.109,0.76-1.144,2.092-1.26,2.766c-0.094,0.473-0.23,0.648-0.208,0.688
		c-0.001,0.027,0.033,0.113,0.195,0.309c0.165,0.205,0.208,0.461,0.224,0.713s0.002,0.508,0.018,0.727
		c0.016,0.275,0.074,0.465,0.215,0.553c0.373,0.244,0.702,0.467,0.732,0.934c0.011,0.192-0.027,0.411-0.114,0.685
		c-0.217,0.64-0.532,0.907-0.497,1.249c0.01,0.162,0.085,0.376,0.295,0.689c0.602,0.91,1.43,1.593,1.494,2.288
		c0.006,0.08-0.002,0.161-0.023,0.24c-0.127,0.437-0.396,0.931-0.368,1.338c0.015,0.195,0.081,0.37,0.269,0.545
		c0.686,0.64,1.093,1.896,1.14,2.541c0.001,0.026,0.001,0.048,0.002,0.073c0.005,0.283-0.023,0.437-0.018,0.523
		c0.009,0.088,0.03,0.156,0.206,0.389c0.23,0.302,0.363,0.664,0.388,1.041c0.015,0.227-0.013,0.459-0.083,0.688
		c-0.086,0.277-0.119,0.493-0.105,0.7c0.01,0.195,0.062,0.389,0.164,0.625c0.193,0.466,0.6,0.829,0.859,1.342
		c0.141,0.287,0.244,0.452,0.262,0.683c0.008,0.144-0.021,0.291-0.084,0.484c-0.077,0.23-0.1,0.998-0.053,1.722
		c0.03,0.5,0.091,0.993,0.172,1.31c0.137,0.555,0.363,0.901,0.396,1.338c0.011,0.184-0.019,0.376-0.106,0.584
		c-0.191,0.437-0.317,0.599-0.299,0.781c0.006,0.104,0.051,0.248,0.172,0.479c0.212,0.408,0.344,0.75,0.365,1.082
		c0.016,0.231-0.028,0.455-0.132,0.674c-0.1,0.21-0.222,0.318-0.282,0.396c-0.057,0.078-0.084,0.11-0.078,0.305
		c0.007,0.106,0.032,0.257,0.084,0.467c0.154,0.617,0.281,1.104,0.309,1.516c0.014,0.233-0.005,0.446-0.08,0.639
		c-0.062,0.156-0.092,0.288-0.084,0.395c0.013,0.176,0.104,0.33,0.424,0.516c0.464,0.275,1.365,0.176,2.152,0.648
		c0.326,0.199,0.596,0.248,0.88,0.23c0.307-0.019,0.63-0.125,1.012-0.217c0.765-0.182,12.727-0.965,19.879-1.51
		c7.14-0.545,96.56-8.883,105.124-9.713c1.934-0.119,3.044-0.298,3.645-0.502c0.609-0.218,0.652-0.384,0.648-0.561
		c-0.005-0.117-0.062-0.264-0.113-0.425c-0.082-0.278-0.379-0.557-0.672-0.79c-0.293-0.253-0.58-0.391-0.645-0.656
		c0,0-0.004-0.016-0.006-0.033c0.021-0.23,0.178-0.292,0.36-0.438c0.188-0.132,0.437-0.279,0.684-0.437
		c0.5-0.301,0.995-0.692,1.006-0.879c0.073-0.4,0.151-0.607,0.142-0.682c-0.006-0.039-0.009-0.059-0.084-0.133
		C140.981,56.237,140.639,55.784,140.256,55.305z"/>
	<path fill="#E0E5E5" d="M141.327,56.161c-0.096-0.09-0.461-0.566-0.838-1.041c-0.387-0.481-0.783-0.968-1.039-1.158
		c-0.17-0.122-0.362-0.217-0.502-0.303c-0.146-0.09-0.207-0.169-0.2-0.199c-0.005-0.026,0.022-0.121,0.203-0.271
		c0.282-0.242,0.532-0.378,0.729-0.576c0.202-0.197,0.317-0.477,0.286-0.891c-0.005-0.068-0.012-0.137-0.021-0.209
		c-0.127-0.988-0.41-1.354-0.812-1.584c-0.16-0.095-0.326-0.119-0.438-0.141c-0.023-0.003-0.046-0.008-0.062-0.013
		c0.023-0.038,0.066-0.099,0.13-0.173c0.219-0.255,0.513-0.555,0.753-0.837c0.238-0.288,0.443-0.531,0.438-0.81
		c-0.001-0.029-0.007-0.061-0.018-0.093c-0.145-0.38-0.544-0.683-0.58-1.302c-0.002-0.039-0.004-0.076-0.004-0.111
		c0.002-0.199,0-0.377-0.008-0.542c-0.029-0.479-0.142-0.864-0.478-1.129c-0.169-0.133-0.357-0.203-0.493-0.265
		c-0.067-0.031-0.121-0.061-0.146-0.082c-0.027-0.023-0.021-0.023-0.021-0.023c-0.004-0.002,0.011-0.073,0.127-0.195
		c0.179-0.197,0.469-0.393,0.719-0.6c0.244-0.207,0.48-0.434,0.467-0.763c-0.006-0.122-0.055-0.241-0.137-0.356
		c-0.441-0.584-1.488-1.268-1.497-1.836c-0.003-0.068,0.004-0.134,0.027-0.202c0.099-0.319,0.63-0.845,1.132-1.304
		c0.254-0.232,0.498-0.455,0.684-0.65c0.181-0.203,0.322-0.344,0.327-0.557c-0.002-0.029-0.009-0.057-0.017-0.082
		c-0.146-0.291-0.46-0.318-0.745-0.415c-0.298-0.089-0.577-0.201-0.731-0.46c-0.167-0.279-0.251-0.699-0.338-1.09
		c-0.094-0.393-0.168-0.762-0.44-0.97c-0.13-0.093-0.229-0.158-0.288-0.208c-0.059-0.053-0.059-0.067-0.061-0.079
		c-0.005-0.02,0.02-0.105,0.119-0.257c0.219-0.371,0.882-1.004,0.874-1.545c-0.004-0.069-0.024-0.141-0.062-0.204
		c-0.275-0.399-0.998-0.727-0.999-1.148c-0.004-0.051,0.001-0.102,0.017-0.157c0.068-0.281,0.49-0.863,0.904-1.387
		c0.419-0.537,0.82-0.995,0.914-1.242c0.035-0.1,0.059-0.189,0.053-0.288c-0.007-0.149-0.109-0.276-0.244-0.358
		c-0.141-0.088-0.33-0.167-0.609-0.275c-0.379-0.146-0.616-0.198-0.727-0.271c-0.104-0.068-0.158-0.145-0.218-0.479
		c-0.132-0.733-0.866-1.166-0.94-1.334c0.002-0.008,0.008-0.021,0.023-0.048c0.169-0.314,1.07-1.054,1.424-1.464
		c0.216-0.265,0.411-0.475,0.404-0.76c-0.02-0.235-0.197-0.408-0.5-0.561c-0.52-0.254-1.147-0.729-1.156-1.164
		c-0.006-0.105,0.014-0.209,0.076-0.325c0.166-0.323,0.639-0.937,1.062-1.508c0.211-0.286,0.412-0.563,0.562-0.802
		c0.146-0.242,0.254-0.411,0.253-0.6c-0.003-0.043-0.016-0.088-0.045-0.128c-0.237-0.306-1.673-1.514-2.067-1.88
		c-0.187-0.175-0.3-0.406-0.311-0.615c-0.011-0.18,0.042-0.336,0.175-0.457c0.258-0.258,0.787-0.533,0.783-1.034
		c-0.008-0.146-0.078-0.288-0.201-0.419c-0.432-0.444-1.182-1.025-1.198-1.552c-0.007-0.093,0.007-0.185,0.046-0.28
		c0.249-0.672,1.332-2.184,1.307-2.943c-0.008-0.109-0.041-0.217-0.121-0.299c-0.402-0.39-1.673-1.91-1.706-2.33
		c-0.001-0.012-0.001-0.013-0.001-0.013c-0.021-0.138,0.174-0.442,0.404-0.759c0.221-0.324,0.465-0.681,0.445-1.087
		c-0.005-0.106-0.033-0.214-0.085-0.317c-0.349-0.644-0.952-1.062-0.954-1.449c-0.004-0.086,0.011-0.172,0.06-0.273
		c0.155-0.326,0.424-0.691,0.663-1.012c0.24-0.329,0.45-0.58,0.5-0.807c0.023-0.117,0.037-0.242,0.029-0.363
		c-0.008-0.104-0.029-0.212-0.1-0.305c-0.066-0.096-0.197-0.152-0.326-0.142c-0.301,0.019-27.292,1.997-49.887,4.073
		C65.077,6,31.555,9.799,25.144,10.198c-0.483,0.03-0.815,0.04-0.956,0.031c-0.23-0.018-0.504-0.014-0.811,0.005
		c-2.77,0.175-8.498,1.628-11.937,1.976c-1.487,0.15-2.4,0.221-3.039,0.26c-0.628,0.039-0.989,0.048-1.373,0.072
		C6.8,12.555,6.563,12.575,6.258,12.61l0.018,0.146L6.25,12.612c0,0-0.883,0.152-1.808,0.354c-0.462,0.101-0.935,0.214-1.315,0.325
		c-0.385,0.122-0.658,0.205-0.805,0.366c-0.089,0.109-0.147,0.214-0.141,0.335c0.018,0.184,0.142,0.262,0.238,0.347
		c0.104,0.086,0.215,0.179,0.309,0.325c0.156,0.24,0.227,0.371,0.227,0.445c0.006,0.063-0.023,0.148-0.141,0.32
		c-0.133,0.218-0.273,0.258-0.291,0.494c0.023,0.169,0.131,0.234,0.287,0.361c0.131,0.102,0.162,0.169,0.168,0.234
		c0.014,0.099-0.094,0.301-0.315,0.578c-0.125,0.168-0.214,0.27-0.214,0.436C2.465,17.7,2.59,17.77,2.702,17.834
		c0.124,0.066,0.285,0.14,0.498,0.258c0.56,0.299,1.012,0.693,1.006,0.932c0.003,0.046-0.004,0.09-0.025,0.139
		c-0.131,0.28-0.092,0.659-0.074,1.062c0.023,0.4,0.037,0.818-0.06,1.093c-0.116,0.341-0.241,0.553-0.232,0.81
		c0.013,0.219,0.157,0.396,0.413,0.574c0.238,0.166,0.414,0.26,0.51,0.35c0.095,0.09,0.139,0.16,0.155,0.376
		c0.005,0.079,0.003,0.175-0.003,0.296c-0.011,0.115-0.011,0.225-0.006,0.328c0.036,0.623,0.342,0.984,0.634,1.281
		c0.177,0.182,0.294,0.408,0.304,0.591c0.007,0.129-0.028,0.235-0.127,0.333c-0.127,0.127-0.552,0.379-0.928,0.66
		c-0.371,0.289-0.744,0.588-0.738,0.996c0,0,0,0.012,0.003,0.03c0.022,0.192,0.089,0.325,0.149,0.413
		c0.027,0.039,0.053,0.07,0.064,0.09c-0.027,0.031-0.101,0.099-0.231,0.19c-0.536,0.392-1.675,0.876-1.614,2.056
		c0.004,0.051,0.009,0.104,0.019,0.161c0.01,0.063,0.018,0.13,0.021,0.199c0.074,1.075-0.548,2.454-0.504,3.327
		c0.044,0.593-0.229,0.749-0.222,1.215c0.009,0.146,0.06,0.303,0.161,0.488c0.303,0.555,0.441,0.686,0.455,0.973
		c0.006,0.093,0,0.211-0.02,0.367c-0.063,0.602-1.098,1.949-1.257,2.748c-0.077,0.438-0.208,0.504-0.214,0.76
		c0.016,0.158,0.098,0.273,0.262,0.479c0.1,0.121,0.145,0.312,0.158,0.545c0.015,0.227,0.001,0.481,0.015,0.726
		c0.019,0.295,0.08,0.603,0.352,0.784c0.388,0.256,0.577,0.394,0.598,0.703c0.009,0.137-0.02,0.322-0.101,0.574
		c-0.17,0.559-0.529,0.824-0.51,1.357c0.015,0.24,0.119,0.501,0.346,0.838c0.636,0.926,1.436,1.68,1.442,2.141
		c0.003,0.05-0.001,0.096-0.013,0.143c-0.104,0.383-0.406,0.898-0.379,1.436c0.016,0.258,0.123,0.523,0.366,0.744
		c0.591,0.533,1.013,1.787,1.041,2.342c0.001,0.02,0.001,0.039,0.003,0.062c0.004,0.261-0.023,0.386-0.016,0.535
		c0.008,0.17,0.084,0.315,0.265,0.549c0.193,0.255,0.307,0.562,0.325,0.88c0.014,0.191-0.008,0.389-0.068,0.582
		c-0.092,0.298-0.135,0.554-0.119,0.809c0.015,0.234,0.078,0.464,0.188,0.721c0.232,0.545,0.65,0.911,0.867,1.357
		c0.151,0.299,0.224,0.436,0.229,0.57C6.095,59.893,6.079,60,6.021,60.18c-0.103,0.335-0.112,1.078-0.066,1.83
		c0.032,0.512,0.091,1.014,0.18,1.363c0.155,0.599,0.372,0.957,0.387,1.285c0.009,0.139-0.012,0.276-0.084,0.449
		c-0.163,0.398-0.335,0.582-0.321,0.914c0.011,0.172,0.078,0.352,0.205,0.598c0.207,0.394,0.318,0.701,0.334,0.965
		c0.011,0.184-0.021,0.348-0.105,0.527C6.47,68.276,6.391,68.34,6.305,68.45c-0.092,0.106-0.162,0.271-0.143,0.508
		c0.01,0.135,0.037,0.3,0.092,0.521c0.156,0.618,0.277,1.099,0.3,1.462c0.013,0.209-0.007,0.374-0.062,0.514
		c-0.068,0.177-0.113,0.348-0.104,0.52c0.017,0.3,0.213,0.556,0.574,0.756c0.615,0.332,1.47,0.221,2.143,0.645
		c0.371,0.229,0.721,0.294,1.049,0.272l0.006,0.001c0.36-0.023,0.695-0.137,1.062-0.226c0.669-0.166,12.699-0.961,19.832-1.503
		c7.148-0.545,96.562-8.883,105.125-9.713c1.941-0.121,3.064-0.297,3.717-0.516c0.645-0.205,0.877-0.527,0.85-0.861
		c-0.012-0.186-0.083-0.347-0.127-0.492c-0.126-0.396-0.469-0.69-0.772-0.935c-0.149-0.122-0.292-0.229-0.394-0.319
		c-0.051-0.044-0.09-0.086-0.115-0.115c-0.012-0.014-0.018-0.025-0.021-0.032c0.076-0.106,0.549-0.397,0.995-0.675
		c0.472-0.314,0.949-0.615,1.043-1.019c0.064-0.384,0.15-0.546,0.146-0.752C141.496,56.366,141.427,56.251,141.327,56.161z
		 M141.064,57.19c-0.011,0.187-0.506,0.578-1.006,0.879c-0.247,0.157-0.495,0.305-0.684,0.437c-0.183,0.146-0.339,0.208-0.36,0.438
		c0.002,0.018,0.006,0.031,0.006,0.031c0.064,0.268,0.352,0.405,0.645,0.658c0.293,0.233,0.59,0.512,0.672,0.79
		c0.051,0.161,0.108,0.308,0.113,0.425c0.004,0.177-0.039,0.343-0.648,0.561c-0.601,0.204-1.711,0.383-3.645,0.502
		c-8.564,0.83-97.984,9.168-105.124,9.713c-7.152,0.545-19.114,1.328-19.879,1.51c-0.382,0.092-0.705,0.198-1.012,0.217
		c-0.284,0.018-0.554-0.031-0.88-0.23c-0.787-0.473-1.688-0.373-2.152-0.648c-0.319-0.186-0.411-0.34-0.424-0.516
		c-0.008-0.106,0.021-0.238,0.084-0.395c0.075-0.192,0.094-0.405,0.08-0.639c-0.027-0.411-0.154-0.898-0.309-1.516
		c-0.052-0.21-0.077-0.36-0.084-0.467c-0.006-0.194,0.021-0.227,0.078-0.305c0.061-0.078,0.183-0.187,0.282-0.396
		c0.104-0.219,0.147-0.442,0.132-0.674c-0.021-0.332-0.153-0.674-0.365-1.082c-0.121-0.23-0.166-0.375-0.172-0.479
		c-0.019-0.183,0.107-0.345,0.299-0.781c0.088-0.208,0.117-0.4,0.106-0.584c-0.032-0.437-0.259-0.783-0.396-1.338
		c-0.081-0.316-0.142-0.81-0.172-1.31C6.204,61.268,6.226,60.5,6.303,60.27c0.062-0.193,0.092-0.341,0.084-0.484
		c-0.018-0.23-0.121-0.396-0.262-0.683c-0.26-0.513-0.666-0.876-0.859-1.342c-0.102-0.236-0.154-0.43-0.164-0.625
		c-0.014-0.207,0.02-0.423,0.105-0.7c0.07-0.229,0.098-0.461,0.083-0.688c-0.024-0.377-0.157-0.739-0.388-1.041
		c-0.176-0.232-0.197-0.301-0.206-0.389c-0.006-0.087,0.022-0.24,0.018-0.523c-0.001-0.025-0.001-0.047-0.002-0.073
		c-0.047-0.646-0.454-1.901-1.14-2.541c-0.188-0.175-0.254-0.35-0.269-0.545c-0.028-0.407,0.241-0.901,0.368-1.338
		c0.021-0.079,0.029-0.16,0.023-0.24c-0.064-0.695-0.893-1.378-1.494-2.288c-0.21-0.313-0.285-0.527-0.295-0.689
		c-0.035-0.342,0.28-0.609,0.497-1.249c0.087-0.273,0.125-0.492,0.114-0.685c-0.03-0.467-0.359-0.689-0.732-0.934
		c-0.141-0.088-0.199-0.277-0.215-0.553c-0.016-0.219-0.002-0.475-0.018-0.727s-0.059-0.508-0.224-0.713
		c-0.162-0.195-0.196-0.281-0.195-0.309c-0.022-0.039,0.114-0.215,0.208-0.688c0.116-0.674,1.15-2.006,1.26-2.766
		c0.022-0.168,0.029-0.303,0.023-0.422c-0.028-0.403-0.214-0.576-0.492-1.096c-0.088-0.162-0.117-0.273-0.123-0.367
		c-0.036-0.262,0.257-0.518,0.22-1.215c-0.055-0.734,0.571-2.146,0.506-3.327c-0.005-0.076-0.014-0.151-0.025-0.227
		c-0.007-0.046-0.013-0.089-0.015-0.134c-0.07-0.93,0.883-1.37,1.49-1.796c0.23-0.177,0.354-0.242,0.365-0.442
		c-0.021-0.142-0.09-0.18-0.126-0.246c-0.044-0.062-0.085-0.137-0.102-0.285v-0.011l-0.001-0.003
		c-0.022-0.16,0.255-0.475,0.621-0.736c0.363-0.273,0.77-0.508,0.955-0.684c0.165-0.156,0.23-0.365,0.217-0.564
		c-0.02-0.285-0.174-0.559-0.388-0.779c-0.28-0.293-0.513-0.561-0.548-1.092c-0.007-0.09-0.005-0.186,0.002-0.293
		c0.01-0.128,0.012-0.234,0.006-0.332c-0.014-0.26-0.104-0.447-0.25-0.576c-0.146-0.13-0.318-0.217-0.539-0.373
		c-0.236-0.168-0.281-0.261-0.287-0.35c-0.016-0.117,0.087-0.338,0.214-0.694c0.122-0.364,0.097-0.802,0.075-1.206
		c-0.024-0.399-0.033-0.771,0.046-0.919c0.042-0.093,0.062-0.188,0.056-0.284c-0.053-0.491-0.588-0.844-1.158-1.172
		c-0.223-0.124-0.395-0.201-0.498-0.259c-0.053-0.028-0.085-0.052-0.098-0.063c0-0.002,0-0.004,0-0.004
		c0-0.008,0.006-0.021,0.021-0.046c0.022-0.042,0.066-0.104,0.129-0.183c0.217-0.289,0.385-0.508,0.375-0.779
		c-0.01-0.176-0.118-0.329-0.285-0.451c-0.076-0.059-0.127-0.104-0.151-0.13c-0.006-0.006-0.009-0.011-0.013-0.015
		c0.021-0.039,0.12-0.144,0.235-0.307c0.124-0.184,0.202-0.33,0.192-0.506c-0.018-0.199-0.123-0.348-0.275-0.59
		c-0.121-0.188-0.265-0.306-0.366-0.391c-0.11-0.086-0.137-0.135-0.134-0.137c0,0,0.002-0.043,0.074-0.131
		c0.012-0.03,0.299-0.167,0.66-0.268c1.075-0.319,2.966-0.65,3.084-0.672c0.297-0.035,0.527-0.055,0.752-0.068
		c0.377-0.023,0.741-0.031,1.373-0.072c0.643-0.039,1.559-0.11,3.051-0.26c3.473-0.353,9.212-1.807,11.925-1.974
		c0.298-0.019,0.559-0.022,0.772-0.007c0.173,0.012,0.504,0.002,0.994-0.029c6.435-0.401,39.941-4.197,60.938-6.127
		c22.589-2.074,49.584-4.053,49.878-4.07c0.085,0.004,0.083,0.008,0.11,0.17c0.006,0.083-0.005,0.189-0.022,0.291
		c-0.005,0.074-0.208,0.369-0.446,0.681c-0.24,0.323-0.52,0.697-0.693,1.062c-0.069,0.142-0.096,0.285-0.088,0.42
		c0.062,0.621,0.707,0.998,0.984,1.567c0.034,0.064,0.051,0.131,0.056,0.2c0.021,0.256-0.173,0.584-0.396,0.9
		c-0.215,0.321-0.463,0.609-0.455,0.945c0,0.018,0.003,0.029,0.004,0.033c0.107,0.648,1.357,2.052,1.787,2.5
		c0.016,0.015,0.031,0.045,0.035,0.107c0.055,0.523-0.999,2.11-1.287,2.817c-0.054,0.136-0.072,0.274-0.063,0.407
		c0.062,0.754,0.894,1.312,1.276,1.734c0.09,0.099,0.119,0.172,0.122,0.236c0.042,0.212-0.374,0.528-0.687,0.797
		c-0.206,0.185-0.289,0.443-0.272,0.693c0.019,0.297,0.169,0.592,0.408,0.814c0.386,0.355,1.794,1.557,2.015,1.822
		c-0.008,0.049-0.082,0.223-0.206,0.412c-0.427,0.678-1.346,1.777-1.637,2.327c-0.085,0.159-0.12,0.324-0.109,0.481
		c0.06,0.674,0.78,1.13,1.317,1.412c0.277,0.141,0.337,0.246,0.338,0.312c0.018,0.092-0.109,0.295-0.334,0.551
		c-0.18,0.211-0.556,0.547-0.882,0.861c-0.163,0.157-0.317,0.311-0.431,0.449c-0.113,0.144-0.204,0.248-0.204,0.416
		c0.001,0.029,0.009,0.057,0.019,0.08c0.183,0.35,0.828,0.678,0.926,1.281c0.057,0.344,0.149,0.557,0.352,0.679
		c0.193,0.116,0.417,0.155,0.777,0.296c0.274,0.107,0.457,0.186,0.557,0.25c0.104,0.069,0.104,0.09,0.109,0.127
		c0.002,0.029-0.008,0.088-0.039,0.174c-0.029,0.111-0.45,0.635-0.866,1.154c-0.419,0.537-0.847,1.096-0.958,1.493
		c-0.024,0.087-0.031,0.172-0.025,0.253c0.066,0.682,0.91,1.014,1.041,1.285c0.01,0.017,0.017,0.039,0.019,0.067
		c0.043,0.274-0.565,0.98-0.827,1.366c-0.105,0.166-0.171,0.289-0.164,0.436c0.036,0.262,0.234,0.33,0.473,0.51
		c0.135,0.082,0.241,0.404,0.322,0.793c0.087,0.385,0.168,0.828,0.374,1.177c0.22,0.368,0.595,0.501,0.899,0.593
		c0.296,0.08,0.521,0.162,0.551,0.231v0.001c-0.001,0.008-0.01,0.042-0.05,0.097c-0.149,0.231-0.612,0.634-1.056,1.051
		c-0.445,0.423-0.883,0.851-1.021,1.249c-0.038,0.104-0.05,0.213-0.043,0.314c0.078,0.832,1.197,1.467,1.551,1.992
		c0.059,0.08,0.08,0.145,0.084,0.201c0.016,0.141-0.123,0.322-0.362,0.519c-0.232,0.192-0.528,0.388-0.747,0.624
		c-0.132,0.145-0.211,0.266-0.205,0.416c0.025,0.219,0.205,0.287,0.343,0.355c0.147,0.066,0.31,0.133,0.429,0.227
		c0.246,0.195,0.336,0.461,0.366,0.916c0.011,0.153,0.011,0.326,0.01,0.518c-0.001,0.045,0,0.092,0.003,0.135
		c0.049,0.738,0.529,1.144,0.598,1.382c0.001,0.002,0.002,0.007,0.002,0.015c0.02,0.068-0.133,0.336-0.368,0.6
		c-0.229,0.27-0.524,0.568-0.751,0.833c-0.141,0.175-0.221,0.269-0.223,0.423c0.002,0.102,0.088,0.179,0.146,0.201
		c0.172,0.067,0.367,0.057,0.519,0.152c0.329,0.203,0.529,0.402,0.671,1.367c0.008,0.066,0.016,0.131,0.02,0.188
		c0.016,0.368-0.057,0.511-0.2,0.665c-0.149,0.153-0.405,0.299-0.712,0.558c-0.202,0.172-0.314,0.33-0.309,0.518
		c0.023,0.217,0.188,0.33,0.342,0.431c0.159,0.099,0.342,0.19,0.482,0.292c0.192,0.135,0.607,0.629,0.982,1.104
		c0.383,0.479,0.725,0.932,0.865,1.07c0.075,0.074,0.078,0.094,0.084,0.133C141.215,56.583,141.137,56.79,141.064,57.19z"/>
	
		<linearGradient id="SVGID_2_" gradientUnits="userSpaceOnUse" x1="122.8843" y1="-228.2451" x2="272.5651" y2="-263.8127" gradientTransform="matrix(0.9981 -0.0621 0.0621 0.9981 -121.8574 305.0845)">
		<stop  offset="0" style="stop-color:#FFFFFF"/>
		<stop  offset="1" style="stop-color:#4E4E4E"/>
	</linearGradient>
	<path fill="url(#SVGID_2_)" d="M11.223,73.421c-0.367,0.089-0.702,0.202-1.062,0.226l-0.006-0.001
		c-0.328,0.021-0.678-0.044-1.049-0.272c-0.673-0.424-1.527-0.312-2.143-0.645c-0.361-0.2-0.558-0.456-0.574-0.756
		c-0.01-0.172,0.035-0.343,0.104-0.52c0.055-0.14,0.074-0.305,0.062-0.514c-0.022-0.363-0.144-0.844-0.3-1.462
		c-0.055-0.221-0.082-0.386-0.092-0.521c-0.02-0.237,0.051-0.401,0.143-0.508c0.086-0.109,0.165-0.174,0.244-0.338
		c0.084-0.18,0.116-0.344,0.105-0.527c-0.016-0.264-0.127-0.571-0.334-0.965c-0.127-0.246-0.194-0.426-0.205-0.598
		c-0.014-0.332,0.158-0.516,0.321-0.914c0.072-0.173,0.093-0.311,0.084-0.449c-0.015-0.328-0.231-0.687-0.387-1.285
		c-0.089-0.35-0.147-0.852-0.18-1.363c-0.046-0.752-0.036-1.495,0.066-1.83c0.058-0.18,0.074-0.287,0.067-0.375
		c-0.005-0.135-0.077-0.271-0.229-0.57c-0.217-0.446-0.635-0.812-0.867-1.357c-0.109-0.257-0.173-0.486-0.188-0.721
		c-0.016-0.255,0.027-0.511,0.119-0.809c0.061-0.193,0.082-0.391,0.068-0.582c-0.019-0.318-0.132-0.625-0.325-0.88
		c-0.181-0.233-0.257-0.379-0.265-0.549c-0.008-0.149,0.02-0.274,0.016-0.535c-0.002-0.022-0.002-0.042-0.003-0.062
		c-0.028-0.555-0.45-1.809-1.041-2.342c-0.243-0.221-0.351-0.486-0.366-0.744c-0.027-0.537,0.275-1.053,0.379-1.436
		c0.012-0.047,0.016-0.093,0.013-0.143c-0.007-0.461-0.807-1.215-1.442-2.141c-0.227-0.337-0.331-0.598-0.346-0.838
		c-0.02-0.533,0.34-0.799,0.51-1.357c0.081-0.252,0.109-0.438,0.101-0.574c-0.021-0.31-0.21-0.447-0.598-0.703
		c-0.103-0.068-0.176-0.156-0.228-0.253C1,43.896,0.434,44.711,0.285,45.225c-0.219,0.752-0.447,0.625-0.124,1.129
		s-0.259,1.688,0.197,2.02c0.457,0.33,0.708,0.53,0.336,1.432c-0.373,0.9-0.938,1.104-0.429,2.096
		c0.513,0.991,1.288,1.711,1.054,2.336s-0.85,1.485-0.304,2.054c0.55,0.565,0.782,1.87,0.722,2.446
		c-0.061,0.574-0.184,0.566,0.085,0.99c0.268,0.423,0.305,1.009,0.072,1.582c-0.232,0.576-0.256,0.939-0.114,1.432
		c0.141,0.492,0.49,0.823,0.662,1.285c0.168,0.461,0.237,0.552,0.033,1.045c-0.203,0.494-0.365,2.316-0.266,3.123
		c0.102,0.803,0.404,1.137,0.064,1.81c-0.342,0.672-0.548,0.758-0.285,1.407c0.26,0.646,0.309,1.1,0.025,1.609
		s-0.55,0.352-0.432,1.307c0.117,0.952,0.205,1.577-0.026,2.055c-0.232,0.477-0.228,0.809,0.265,1.055
		c0.493,0.244,1.369,0.033,2.033,0.398c0.668,0.364,1.244,0.055,1.971-0.205c0.728-0.26,12.537-1.746,19.632-3.127
		C28.042,74,43.18,72.643,59.717,69.331c-14.686,1.352-26.271,2.406-28.662,2.588C23.922,72.46,11.892,73.255,11.223,73.421z"/>
</g>
</svg>
