<?xml version="1.0" encoding="utf-8"?>
<!-- Generator: Adobe Illustrator 15.1.0, SVG Export Plug-In . SVG Version: 6.00 Build 0)  -->
<!DOCTYPE svg PUBLIC "-//W3C//DTD SVG 1.1//EN" "http://www.w3.org/Graphics/SVG/1.1/DTD/svg11.dtd">
<svg version="1.1" id="Layer_1" xmlns="http://www.w3.org/2000/svg" xmlns:xlink="http://www.w3.org/1999/xlink" x="0px" y="0px"
	 width="595.28px" height="841.89px" viewBox="0 0 595.28 841.89" enable-background="new 0 0 595.28 841.89" xml:space="preserve">
<g>
	
		<linearGradient id="SVGID_1_" gradientUnits="userSpaceOnUse" x1="-1220.7148" y1="2831.9053" x2="-1190.3495" y2="2845.5908" gradientTransform="matrix(0.8915 0.4571 -0.5854 1.0527 2753.6206 -2404.5908)">
		<stop  offset="0" style="stop-color:#FFFFFF"/>
		<stop  offset="1" style="stop-color:#4E4E4E"/>
	</linearGradient>
	<path fill="url(#SVGID_1_)" d="M15.818,32.242c0.172-0.013,0.176-0.009,0.231-0.103c0.014-0.028,0.027-0.069,0.041-0.12
		c0.016-0.062,0.037-0.12,0.063-0.175c0.18-0.35,0.514-0.572,0.736-1.041c0.1-0.205,0.183-0.457,0.225-0.783
		c0.072-0.533-0.318-1.014-0.807-1.467c-0.01-0.011-0.021-0.019-0.031-0.028c-0.029,0.12-0.027,0.315,0.003,0.679
		c0.089,1.108,0.419,1.639-0.339,1.549c-0.76-0.089-1.526-0.383-1.744,0.474c-0.188,0.741,0.554,0.585,0.662,1.101
		c0.066-0.008,0.131-0.016,0.209-0.029C15.404,32.233,15.658,32.249,15.818,32.242z"/>
	
		<linearGradient id="SVGID_2_" gradientUnits="userSpaceOnUse" x1="-1214.2319" y1="2817.5312" x2="-1183.88" y2="2831.2109" gradientTransform="matrix(0.8915 0.4571 -0.5854 1.0527 2753.6206 -2404.5908)">
		<stop  offset="0" style="stop-color:#FFFFFF"/>
		<stop  offset="1" style="stop-color:#4E4E4E"/>
	</linearGradient>
	<path fill="url(#SVGID_2_)" d="M19.384,26.61c0.146-0.082,0.229-0.173,0.28-0.275c0.224-0.406-0.169-1.203-0.339-1.863
		c-0.049-0.24-0.094-0.324-0.039-0.48c0.02-0.053,0.092-0.099,0.143-0.102c0.05-0.006,0.082,0.004,0.113,0.012
		c0.057,0.018,0.111,0.041,0.181,0.062c0.136,0.045,0.313,0.086,0.56,0.037c0.282-0.057,0.377-0.135,0.414-0.209
		c0.076-0.121-0.009-0.453-0.095-0.935c-0.058-0.351-0.058-0.585,0.046-0.794c0.127-0.249,0.346-0.407,0.682-0.732
		c0.09-0.088,0.144-0.162,0.172-0.219c0.07-0.152,0.027-0.24-0.063-0.414c-0.088-0.16-0.229-0.371-0.18-0.662
		c0.021-0.125-0.029-0.182-0.161-0.284c-0.126-0.098-0.312-0.181-0.441-0.337c-0.092-0.103-0.139-0.271-0.081-0.434
		c0.011-0.032,0.021-0.059,0.033-0.084c0.149-0.299,0.485-0.307,0.774-0.24c0.306,0.066,0.651,0.206,0.986,0.312
		c0.095,0.03,0.169,0.048,0.217,0.054c0.014,0,0.024,0.002,0.031,0.002c0-0.008-0.002-0.017-0.002-0.026
		c-0.007-0.044-0.021-0.106-0.041-0.182c-0.043-0.152-0.108-0.354-0.152-0.593c-0.046-0.27-0.078-0.397-0.018-0.545
		c0.076-0.142,0.206-0.151,0.286-0.17c0.095-0.021,0.198-0.043,0.345-0.124c0.127-0.071,0.18-0.126,0.189-0.151
		c0.067-0.036-0.111-0.332-0.383-1.009c-0.082-0.232-0.117-0.397-0.047-0.556c0.155-0.258,0.43-0.203,0.692-0.168
		c0.277,0.045,0.607,0.127,0.925,0.146c0.149,0.014,0.241-0.004,0.271-0.016c-0.002-0.011-0.008-0.031-0.016-0.055
		c-0.021-0.055-0.061-0.131-0.108-0.219c-0.099-0.176-0.23-0.391-0.294-0.637c-0.096-0.377-0.097-0.663,0.042-0.941
		c0.092-0.186,0.232-0.362,0.425-0.586c0.037-0.044,0.064-0.086,0.085-0.125c0.22-0.367-0.302-0.943-0.302-1.689
		c0.004-0.082,0.021-0.164,0.057-0.232c0.193-0.358,0.632-0.391,1.079-0.395c0.455,0.004,0.96,0.071,1.315,0.086
		c0.131-0.002,0.136-0.025,0.146-0.042c0.053-0.054-0.039-0.421-0.211-0.819c-0.161-0.411-0.363-0.883-0.418-1.322
		c-0.023-0.159-0.001-0.303,0.061-0.424c0.208-0.396,0.697-0.473,1.163-0.498c0.471-0.021,0.957,0.035,1.171,0.04
		c0.025-0.001,0.037-0.005,0.037-0.005c0.025-0.037-0.036-0.346-0.189-0.668c-0.148-0.351-0.355-0.754-0.499-1.107
		c-0.133-0.318-0.132-0.587-0.03-0.792c0.189-0.368,0.604-0.472,0.848-0.54c0.068-0.018,0.107-0.035,0.121-0.043
		c0.001-0.005,0.002-0.011,0.001-0.027c-0.001-0.032-0.009-0.084-0.022-0.152c-0.021-0.137-0.061-0.34-0.084-0.634
		c-0.02-0.225,0-0.411,0.076-0.567c0.271-0.492,0.877-0.508,1.91-0.812c1.43-0.404,2.49-0.057,2.506-0.052l-0.047,0.14l0.062-0.133
		c0.343,0.158,0.581,0.212,3.43,1.446c0.109,0.046,0.377,0.177,0.811,0.388c0.301,0.147,0.686,0.338,1.141,0.563
		c-3.152-2.054-5.594-3.692-5.829-3.763c-2.999-0.89-3.241-0.879-3.616-1.008c0,0-1.092-0.151-2.638,1.006
		c-1.543,1.154-2.155,1.324-2.149,2.668c0.01,1.347,0.205,1.355-0.219,1.664c-0.422,0.31-1.176,0.892-0.879,2.082
		c0.301,1.189,0.97,2.789,0.393,2.973c-0.576,0.182-2.557,0.43-2.506,1.994c0.051,1.566,1.049,3.357,0.166,3.625
		c-0.881,0.268-2.446,0.34-2.537,1.514c-0.09,1.174,0.602,1.91,0.037,2.973c-0.564,1.057-0.706,1.473-0.59,2.392
		c0.115,0.918,0.849,1.534-0.103,1.773c-0.951,0.243-1.872-0.179-1.579,1.144c0.084,0.382,0.172,0.662,0.237,0.885
		c0.006,0,0.015,0,0.021,0.002C18.076,26.75,19.083,26.786,19.384,26.61z"/>
	
		<linearGradient id="SVGID_3_" gradientUnits="userSpaceOnUse" x1="-1225.4619" y1="3248.9072" x2="-1372.1824" y2="3246.2395" gradientTransform="matrix(0.8981 0.4398 -0.4398 0.8981 2640.3713 -2293.7344)">
		<stop  offset="0" style="stop-color:#FFFFFF"/>
		<stop  offset="1" style="stop-color:#4E4E4E"/>
	</linearGradient>
	<path fill="url(#SVGID_3_)" d="M95.383,103.542c0-0.409-0.465-0.81-0.236-1.169c0.229-0.36-0.797-0.835-0.799-1.762
		c-0.006-0.928-0.199-0.821-0.463-1.869c-0.266-1.048-0.707-1.328-0.17-2.192c0.535-0.864,0.461-0.853,0.264-1.89
		c-0.195-1.035-0.203-1.938,0.359-2.814c0.564-0.877,0.826-1.274,0.541-2.66c-0.283-1.385-0.639-1.939-0.012-3.081
		c0.623-1.141,2.193-3.976,2.057-4.437c-0.135-0.455-0.91-1.903-0.678-2.697c0.229-0.793,0.289-0.324,0.076-1.179
		c-0.213-0.857-0.77-1.366-0.438-2.183s1.182-1.668,1.141-2.644c-0.043-0.977-0.068-1.806,0.426-2.479
		c0.492-0.672,1.363-0.582,1.451-1.27c0.084-0.687,1.363-0.365,1.844-0.881c0.479-0.516,1.629,0.465,1.781-0.51
		c0.154-0.977,0.139-1.443,0.553-2.297c0.412-0.854,1.723-1.822,1.809-2.616c0.088-0.796-0.076-1.974,1.105-2.392
		c1.184-0.416,3.5-0.84,4.484-0.715c0.984,0.127,1.977,1.154,1.844-0.256c-0.119-1.248-0.59-2.185-0.293-3.117
		c-1.248,0.099-2.953,0.391-3.959,0.673c-0.701,0.197-1.012,0.547-1.209,0.944c-0.178,0.357-0.244,0.763-0.365,1.123
		c-0.012,0.033-0.023,0.068-0.043,0.105c-0.396,0.774-1.924,1.598-2.482,2.305c-0.258,0.319-0.412,0.572-0.535,0.826
		c-0.168,0.342-0.277,0.692-0.482,1.207c-0.008,0.021-0.018,0.045-0.031,0.067c-0.232,0.476-0.709,0.466-1.09,0.41
		c-0.404-0.057-0.781-0.118-1.014,0.063c-0.361,0.262-0.859,0.305-1.297,0.374c-0.443,0.058-0.789,0.159-0.861,0.339
		c-0.004,0.009-0.008,0.02-0.014,0.037c-0.01,0.025-0.021,0.051-0.033,0.08c-0.365,0.656-1.279,0.579-1.861,1.133
		c-0.23,0.209-0.391,0.435-0.508,0.676c-0.211,0.422-0.291,0.908-0.373,1.463c-0.025,0.164-0.08,0.319-0.154,0.471
		c-0.371,0.75-1.219,1.391-1.631,1.98c-0.045,0.062-0.078,0.121-0.107,0.178c-0.27,0.518,0.129,0.908,0.227,1.668
		c0.035,0.383,0.082,0.467,0.012,0.634c-0.066,0.126-0.141,0.169-0.34,0.521c-0.002,0.003-0.006,0.014-0.016,0.03
		c-0.316,0.611,0.217,1.833,0.309,2.274c0.014,0.117-0.027,0.199-0.078,0.308c-0.396,0.802-2.264,2.897-3.072,3.818
		c-0.209,0.238-0.35,0.443-0.441,0.629c-0.289,0.585-0.123,1.059-0.07,2.026c0.033,0.601-0.037,1.024-0.213,1.383
		c-0.195,0.398-0.508,0.705-0.92,1.122c-0.266,0.266-0.455,0.533-0.588,0.804c-0.246,0.501-0.303,1.024-0.283,1.614
		c0.014,0.521,0.059,0.771-0.082,1.069c-0.104,0.21-0.281,0.403-0.604,0.735c-0.164,0.168-0.264,0.305-0.32,0.423
		c-0.195,0.367,0.055,0.646,0.15,1.42c0.053,0.456,0.131,0.642,0.186,0.853c0.057,0.213,0.074,0.438-0.012,0.861
		c-0.064,0.324,0.092,0.572,0.277,0.805c0.166,0.233,0.443,0.408,0.326,0.739c-0.018,0.036-0.039,0.067-0.072,0.102
		c-0.023,0.024-0.041,0.048-0.051,0.071c-0.043,0.078-0.02,0.18,0.041,0.336c0.055,0.152,0.145,0.336,0.104,0.563
		c-0.008,0.03-0.018,0.056-0.029,0.081c-0.141,0.252-0.475,0.385-0.883,0.459c-0.406,0.07-0.893,0.047-1.311-0.157
		c-0.049-0.022-0.096-0.048-0.146-0.079c-0.043-0.029-0.098-0.059-0.162-0.091c-0.943-0.464-3.57-1.042-6.064-1.464
		c-2.123-0.357-4.125-1.172-5.646-1.918c-0.414-0.203-0.793-0.4-1.131-0.582c-0.488-0.266-13.176-6.625-30.397-15.25
		C63.801,88.961,80.529,98.68,81.096,99.032c1.557,0.971,4.006,2.33,6.486,2.871c2.482,0.542,5.111,1.276,5.918,1.847
		C94.311,104.321,95.385,103.952,95.383,103.542z"/>
	
		<linearGradient id="SVGID_4_" gradientUnits="userSpaceOnUse" x1="-1341.7988" y1="3203.0703" x2="-1231.3643" y2="3275.8335" gradientTransform="matrix(0.8981 0.4398 -0.4398 0.8981 2640.3713 -2293.7344)">
		<stop  offset="0" style="stop-color:#EFF1F0"/>
		<stop  offset="0.2441" style="stop-color:#F9FBFB"/>
		<stop  offset="0.489" style="stop-color:#FCFEFF"/>
		<stop  offset="0.7758" style="stop-color:#F7F8FA"/>
		<stop  offset="0.989" style="stop-color:#F0F1F2"/>
	</linearGradient>
	<path fill="url(#SVGID_4_)" d="M121.963,47.462c-0.045-0.065-0.137-0.141-0.254-0.199c-0.041-0.021-0.086-0.038-0.137-0.054
		c-0.035-0.014-0.074-0.034-0.176-0.084c-5.125-2.51-72.184-36.998-83.719-42.648c-0.43-0.209-0.705-0.34-0.797-0.379
		c-2.817-1.221-3.061-1.277-3.424-1.443c-0.023-0.008-0.258-0.082-0.651-0.114c-0.418-0.034-1.005-0.021-1.681,0.169
		c-1.066,0.289-1.618,0.387-1.723,0.657c-0.043,0.091-0.064,0.217-0.047,0.412c0.037,0.573,0.164,0.722,0.078,0.973
		c-0.07,0.13-0.184,0.155-0.311,0.194c-0.246,0.062-0.567,0.177-0.66,0.384c-0.055,0.115-0.072,0.278,0.039,0.552
		c0.135,0.334,0.342,0.739,0.497,1.099c0.146,0.368,0.284,0.654,0.181,0.921c-0.051,0.113-0.188,0.175-0.307,0.168
		c-0.244-0.006-0.71-0.062-1.152-0.043c-0.446,0.018-0.826,0.132-0.91,0.336c-0.033,0.064-0.047,0.143-0.035,0.256
		c0.047,0.378,0.238,0.838,0.403,1.248c0.155,0.42,0.324,0.758,0.2,1.061c-0.069,0.15-0.241,0.217-0.42,0.207
		c-0.381-0.012-0.883-0.081-1.309-0.086c-0.438-0.008-0.76,0.081-0.812,0.229c-0.014,0.029-0.023,0.065-0.025,0.114
		c-0.049,0.577,0.553,1.15,0.27,1.808c-0.03,0.066-0.072,0.127-0.123,0.189c-0.191,0.22-0.315,0.381-0.387,0.523
		c-0.1,0.209-0.105,0.381-0.019,0.738c0.047,0.186,0.161,0.387,0.263,0.564c0.09,0.184,0.217,0.328,0.135,0.552
		c-0.108,0.181-0.293,0.188-0.558,0.179c-0.522-0.039-1.046-0.205-1.258-0.174c-0.069,0.01-0.068,0.02-0.073,0.027
		c-0.012,0.012-0.021,0.12,0.057,0.324c0.227,0.654,0.502,0.87,0.372,1.24c-0.062,0.12-0.167,0.196-0.312,0.281
		c-0.248,0.139-0.456,0.155-0.51,0.173c-0.001,0.01-0.004,0.029,0,0.069c0.004,0.059,0.018,0.154,0.042,0.284
		c0.042,0.217,0.102,0.407,0.146,0.565c0.038,0.164,0.091,0.282,0.026,0.441c-0.045,0.102-0.167,0.148-0.26,0.143
		c-0.097,0-0.203-0.023-0.344-0.066c-0.35-0.112-0.695-0.25-0.961-0.306c-0.279-0.054-0.396-0.026-0.446,0.081
		c-0.007,0.016-0.011,0.026-0.017,0.041c-0.022,0.086-0.011,0.105,0.027,0.158c0.043,0.053,0.129,0.115,0.232,0.18
		c0.191,0.119,0.496,0.306,0.435,0.682c-0.03,0.157,0.046,0.289,0.146,0.467c0.095,0.167,0.208,0.412,0.069,0.687
		c-0.049,0.101-0.124,0.196-0.232,0.301c-0.35,0.335-0.551,0.496-0.621,0.65c-0.06,0.124-0.073,0.28-0.019,0.618
		c0.065,0.459,0.207,0.79,0.065,1.111c-0.099,0.197-0.307,0.309-0.619,0.37c-0.338,0.071-0.615-0.011-0.768-0.065
		c0.01,0.047,0.023,0.103,0.041,0.176c0.13,0.607,0.611,1.41,0.318,2.062c-0.08,0.159-0.215,0.302-0.406,0.405
		c-0.424,0.215-1.213,0.176-2.033,0.143c-0.813-0.04-1.65-0.087-1.992,0.02c-0.098,0.026-0.134,0.064-0.133,0.068
		c-0.002,0.004-0.005,0.004,0.004,0.041c0.1,0.318,0.635,0.737,1.137,1.195c0.495,0.461,0.984,1.01,0.899,1.719
		c-0.045,0.358-0.137,0.646-0.253,0.877c-0.262,0.531-0.622,0.796-0.737,1.044c-0.017,0.038-0.03,0.073-0.038,0.112
		c-0.02,0.066-0.039,0.129-0.065,0.182c-0.095,0.212-0.312,0.271-0.487,0.268c-0.186,0.008-0.402-0.008-0.705,0.05
		c-0.197,0.038-0.363,0.05-0.484,0.062c-0.086,0.006-0.146,0.018-0.173,0.023c0.003,0.016,0.008,0.045,0.022,0.08
		c0.03,0.082,0.096,0.209,0.195,0.383c0.198,0.35,0.402,0.613,0.539,0.862c0.139,0.243,0.209,0.519,0.066,0.799
		c-0.051,0.105-0.127,0.21-0.23,0.317c-0.62,0.657-1.099,0.607-1.883,0.657c-0.299,0.021-0.719,0.024-1.078,0.073
		c-0.367,0.039-0.652,0.159-0.687,0.26c-0.036,0.061-0.027,0.222,0.249,0.526c0.441,0.481,0.861,0.886,1.146,1.245
		c0.283,0.354,0.47,0.707,0.301,1.063c-0.049,0.103-0.13,0.196-0.232,0.282c-0.5,0.398-0.803,0.49-0.83,0.598
		c-0.022,0.044-0.035,0.131-0.003,0.314c0.056,0.372,0.095,0.678-0.013,0.914c-0.082,0.193-0.329,0.268-0.551,0.182
		c-0.335-0.104-0.713-0.125-0.817,0.127c-0.05,0.099-0.078,0.264-0.048,0.517c0.078,0.664,0.277,1.409,0.01,1.983
		c-0.141,0.289-0.422,0.504-0.853,0.59c-0.509,0.103-1.15,0.094-1.698,0.123c-0.545,0.018-0.975,0.132-1.004,0.26
		c-0.025,0.049-0.031,0.145,0.076,0.334c0.284,0.5,0.615,0.793,0.855,1.059c0.242,0.248,0.417,0.564,0.225,0.94
		c-0.018,0.034-0.035,0.062-0.055,0.097c-0.085,0.138-0.152,0.26-0.208,0.375c-0.221,0.455-0.241,0.729-0.188,1.141
		c0.035,0.279-0.005,0.564-0.122,0.807c-0.129,0.264-0.364,0.479-0.687,0.523c-0.326,0.043-0.572,0.127-0.695,0.377
		c-0.065,0.134-0.104,0.328-0.08,0.621c0.043,0.57,0.096,1.242-0.162,1.775c-0.153,0.317-0.432,0.577-0.86,0.695
		c-1.031,0.283-2.335,0.938-3.135,1.127c-0.282,0.068-0.706,0.185-1.067,0.317c-0.307,0.101-0.578,0.255-0.651,0.321
		c0.006,0.003,0.013,0.006,0.018,0.01c0.028,0.015,0.075,0.032,0.132,0.049c0.895,0.242,2.512,0.77,3.139,1.076
		c0.042,0.02,0.084,0.041,0.121,0.062c0.469,0.271,67.924,34.301,69.495,35.151c0.332,0.181,0.709,0.377,1.117,0.58
		c1.508,0.736,3.486,1.538,5.566,1.892c2.514,0.425,5.123,0.99,6.145,1.489c0.072,0.035,0.135,0.068,0.193,0.105
		c0.037,0.021,0.076,0.043,0.115,0.062c0.344,0.17,0.775,0.196,1.135,0.135c0.357-0.052,0.643-0.224,0.662-0.298
		c0.004-0.009,0.008-0.018,0.006-0.014c0.023-0.102-0.025-0.236-0.09-0.396c-0.059-0.155-0.135-0.356-0.029-0.572
		c0.025-0.053,0.061-0.106,0.107-0.15c0.008-0.009,0.014-0.017,0.016-0.022c0.004-0.006,0.012-0.026-0.045-0.114
		c-0.049-0.079-0.145-0.183-0.244-0.308c-0.199-0.244-0.432-0.594-0.338-1.051c0.078-0.406,0.059-0.549,0.014-0.729
		c-0.049-0.182-0.139-0.414-0.191-0.895c-0.066-0.676-0.387-1.019-0.125-1.582c0.078-0.156,0.197-0.318,0.375-0.5
		c0.32-0.33,0.479-0.513,0.549-0.659c0.096-0.188,0.07-0.384,0.053-0.931c-0.02-0.612,0.039-1.191,0.314-1.753
		c0.146-0.304,0.355-0.597,0.645-0.884c0.416-0.417,0.701-0.704,0.863-1.039c0.148-0.305,0.213-0.665,0.182-1.238
		c-0.041-0.916-0.24-1.466,0.102-2.174c0.107-0.216,0.262-0.441,0.484-0.694c0.801-0.907,2.688-3.044,3.031-3.753
		c0.029-0.063,0.047-0.115,0.047-0.129l0,0c-0.047-0.361-0.67-1.619-0.279-2.451c0.01-0.018,0.018-0.039,0.029-0.055
		c0.199-0.353,0.316-0.467,0.326-0.497c0.01,0,0.008-0.073-0.041-0.474c-0.049-0.623-0.537-1.104-0.197-1.828
		c0.035-0.072,0.08-0.148,0.133-0.223c0.457-0.641,1.287-1.281,1.605-1.937c0.062-0.128,0.107-0.259,0.127-0.385
		c0.086-0.553,0.164-1.073,0.396-1.548c0.135-0.275,0.32-0.532,0.58-0.768c0.713-0.615,1.623-0.613,1.791-1.043
		c0.008-0.017,0.018-0.036,0.023-0.053c0.006-0.02,0.014-0.039,0.025-0.062c0.199-0.376,0.648-0.432,1.086-0.504
		c0.441-0.062,0.908-0.125,1.162-0.318c0.387-0.277,0.848-0.162,1.227-0.121c0.4,0.045,0.641,0.051,0.785-0.244
		c0.01-0.014,0.018-0.033,0.025-0.05c0.197-0.499,0.307-0.856,0.488-1.226c0.133-0.272,0.303-0.547,0.572-0.881
		c0.627-0.768,2.158-1.634,2.445-2.25c0.012-0.025,0.023-0.052,0.033-0.074c0.109-0.32,0.178-0.744,0.377-1.154
		c0.219-0.455,0.623-0.889,1.395-1.098c1.422-0.392,4.074-0.805,5.197-0.705c0.49,0.045,0.934,0.24,1.275,0.342
		c0.359,0.096,0.494,0.105,0.59-0.086c0.037-0.078,0.07-0.201,0.084-0.373c0.096-1.018-0.236-1.836,0.18-2.708
		c0.082-0.167,0.191-0.334,0.338-0.498c0.887-0.997,1.83-1.013,2.531-1.648c0.779-0.688,1.34-0.918,2.033-1.647
		c0.707-0.725,1.021-1.545,1.615-1.793c0.107-0.041,0.145-0.085,0.158-0.111C122.006,47.565,122.008,47.534,121.963,47.462z"/>
	<path fill="#E0E5E5" d="M121.84,46.997c-0.055-0.026-0.113-0.051-0.174-0.068c0.004,0.001,0.002,0,0.002,0
		c-0.02-0.01-0.07-0.033-0.141-0.068C116.41,44.354,49.349,9.866,37.808,4.213c-0.434-0.211-0.701-0.342-0.811-0.388
		c-2.849-1.234-3.087-1.288-3.43-1.446l-0.062,0.133l0.047-0.14c-0.016-0.005-1.076-0.353-2.506,0.052
		c-1.033,0.305-1.639,0.32-1.91,0.812C29.06,3.393,29.041,3.58,29.06,3.804c0.023,0.294,0.062,0.497,0.084,0.634
		c0.014,0.068,0.021,0.12,0.022,0.152c0.001,0.017,0,0.022-0.001,0.027c-0.014,0.008-0.053,0.025-0.121,0.043
		c-0.244,0.068-0.658,0.172-0.848,0.54c-0.102,0.205-0.103,0.474,0.03,0.792c0.144,0.354,0.351,0.757,0.499,1.107
		c0.153,0.322,0.215,0.631,0.189,0.668c0,0-0.012,0.004-0.037,0.005c-0.214-0.005-0.7-0.062-1.171-0.04
		c-0.466,0.025-0.955,0.102-1.163,0.498c-0.062,0.121-0.084,0.265-0.061,0.424c0.055,0.439,0.257,0.911,0.418,1.322
		c0.172,0.398,0.264,0.766,0.211,0.819c-0.011,0.017-0.016,0.04-0.146,0.042c-0.355-0.015-0.86-0.082-1.315-0.086
		c-0.447,0.004-0.886,0.036-1.079,0.395c-0.035,0.068-0.053,0.15-0.057,0.232c0,0.746,0.521,1.322,0.302,1.689
		c-0.021,0.039-0.048,0.081-0.085,0.125c-0.192,0.224-0.333,0.4-0.425,0.586c-0.139,0.278-0.138,0.564-0.042,0.941
		c0.063,0.246,0.195,0.461,0.294,0.637c0.048,0.088,0.087,0.164,0.108,0.219c0.008,0.023,0.014,0.044,0.016,0.055
		c-0.03,0.012-0.122,0.029-0.271,0.016c-0.317-0.02-0.647-0.102-0.925-0.146c-0.263-0.035-0.537-0.09-0.692,0.168
		c-0.07,0.158-0.035,0.323,0.047,0.556c0.271,0.677,0.45,0.973,0.383,1.009c-0.01,0.025-0.062,0.08-0.189,0.151
		c-0.146,0.081-0.25,0.103-0.345,0.124c-0.08,0.019-0.21,0.028-0.286,0.17c-0.061,0.147-0.028,0.275,0.018,0.545
		c0.044,0.238,0.109,0.44,0.152,0.593c0.02,0.075,0.034,0.138,0.041,0.182c0,0.01,0.002,0.019,0.002,0.026
		c-0.007,0-0.018-0.002-0.031-0.002c-0.048-0.006-0.122-0.023-0.217-0.054c-0.335-0.105-0.681-0.245-0.986-0.312
		c-0.289-0.066-0.625-0.059-0.774,0.24c-0.012,0.025-0.022,0.052-0.033,0.084c-0.058,0.163-0.011,0.331,0.081,0.434
		c0.13,0.156,0.315,0.239,0.441,0.337c0.132,0.103,0.182,0.159,0.161,0.284c-0.049,0.291,0.092,0.502,0.18,0.662
		c0.091,0.174,0.134,0.262,0.063,0.414c-0.028,0.057-0.082,0.131-0.172,0.219c-0.336,0.325-0.555,0.483-0.682,0.732
		c-0.104,0.209-0.104,0.443-0.046,0.794c0.086,0.481,0.171,0.813,0.095,0.935c-0.037,0.074-0.132,0.152-0.414,0.209
		c-0.246,0.049-0.424,0.008-0.56-0.037c-0.069-0.021-0.124-0.045-0.181-0.062c-0.031-0.008-0.063-0.018-0.113-0.012
		c-0.051,0.003-0.123,0.049-0.143,0.102c-0.055,0.156-0.01,0.24,0.039,0.48c0.17,0.66,0.562,1.457,0.339,1.863
		c-0.052,0.103-0.134,0.193-0.28,0.275c-0.301,0.176-1.309,0.14-2.226,0.09c-0.464-0.022-0.913-0.044-1.272-0.023
		c-0.355,0.033-0.638,0.051-0.783,0.294c-0.041,0.081-0.04,0.182-0.01,0.267c0.173,0.475,0.73,0.859,1.215,1.316
		c0.488,0.453,0.879,0.934,0.807,1.467c-0.042,0.326-0.125,0.578-0.225,0.783c-0.223,0.469-0.557,0.691-0.736,1.041
		c-0.026,0.055-0.048,0.112-0.063,0.175c-0.014,0.051-0.027,0.092-0.041,0.12c-0.056,0.094-0.06,0.09-0.231,0.103
		c-0.16,0.007-0.414-0.009-0.75,0.056c-0.204,0.039-0.372,0.047-0.512,0.062c-0.129,0.019-0.268,0.019-0.363,0.175
		c-0.076,0.229,0.041,0.383,0.231,0.749c0.21,0.368,0.421,0.64,0.538,0.856c0.118,0.224,0.143,0.352,0.061,0.527
		c-0.034,0.07-0.092,0.15-0.181,0.244c-0.563,0.577-0.848,0.502-1.687,0.564c-0.284,0.02-0.713,0.025-1.098,0.074
		c-0.385,0.057-0.748,0.127-0.912,0.426c-0.115,0.25-0.001,0.531,0.295,0.855c0.447,0.488,0.867,0.895,1.134,1.23
		c0.274,0.345,0.356,0.579,0.265,0.747c-0.024,0.057-0.074,0.116-0.155,0.185c-0.454,0.386-0.732,0.398-0.905,0.695
		c-0.064,0.137-0.064,0.289-0.032,0.494c0.063,0.35,0.067,0.644,0.016,0.736c-0.036,0.049-0.023,0.066-0.197,0.029
		c-0.345-0.107-0.915-0.209-1.173,0.279c-0.082,0.171-0.107,0.395-0.07,0.684c0.088,0.682,0.242,1.408,0.033,1.813
		c-0.103,0.203-0.274,0.353-0.645,0.432c-0.459,0.095-1.096,0.089-1.655,0.118c-0.552,0.043-1.043,0.062-1.253,0.423
		c-0.088,0.179-0.045,0.39,0.085,0.611c0.309,0.542,0.669,0.864,0.894,1.112c0.225,0.265,0.289,0.355,0.176,0.609
		c-0.013,0.021-0.027,0.049-0.043,0.078c-0.086,0.141-0.158,0.271-0.218,0.396c-0.244,0.489-0.28,0.87-0.219,1.31
		c0.028,0.225-0.004,0.457-0.092,0.637c-0.101,0.199-0.249,0.33-0.46,0.357c-0.344,0.045-0.73,0.154-0.923,0.543
		c-0.097,0.197-0.135,0.449-0.108,0.776c0.046,0.567,0.077,1.198-0.133,1.621c-0.127,0.249-0.32,0.437-0.674,0.538
		c-1.069,0.297-2.388,0.955-3.125,1.127c-0.293,0.068-0.723,0.187-1.1,0.326c-0.383,0.15-0.697,0.266-0.834,0.496
		c-0.034,0.061-0.043,0.16,0.002,0.232c0.041,0.072,0.102,0.111,0.17,0.146c0.053,0.025,0.111,0.049,0.18,0.066
		c0.879,0.238,2.512,0.771,3.092,1.057c0.039,0.021,0.072,0.039,0.098,0.053c0.5,0.288,67.944,34.311,69.504,35.158
		c0.338,0.182,0.717,0.379,1.131,0.582c1.521,0.746,3.523,1.561,5.646,1.918c2.494,0.422,5.121,1,6.064,1.464
		c0.064,0.032,0.119,0.062,0.162,0.091c0.051,0.031,0.098,0.057,0.146,0.079c0.418,0.204,0.904,0.228,1.311,0.157
		c0.408-0.074,0.742-0.207,0.883-0.459c0.012-0.025,0.021-0.051,0.029-0.081c0.041-0.228-0.049-0.411-0.104-0.563
		c-0.061-0.156-0.084-0.258-0.041-0.336c0.01-0.023,0.027-0.047,0.051-0.071c0.033-0.034,0.055-0.065,0.072-0.102
		c0.117-0.331-0.16-0.506-0.326-0.739c-0.186-0.232-0.342-0.48-0.277-0.805c0.086-0.424,0.068-0.648,0.012-0.861
		c-0.055-0.211-0.133-0.396-0.186-0.853c-0.096-0.774-0.346-1.053-0.15-1.42c0.057-0.118,0.156-0.255,0.32-0.423
		c0.322-0.332,0.5-0.525,0.604-0.735c0.141-0.299,0.096-0.549,0.082-1.069c-0.02-0.59,0.037-1.113,0.283-1.614
		c0.133-0.271,0.322-0.538,0.588-0.804c0.412-0.417,0.725-0.724,0.92-1.122c0.176-0.358,0.246-0.782,0.213-1.383
		c-0.053-0.968-0.219-1.441,0.07-2.026c0.092-0.186,0.232-0.391,0.441-0.629c0.809-0.921,2.676-3.017,3.072-3.818
		c0.051-0.108,0.092-0.19,0.078-0.308c-0.092-0.441-0.625-1.663-0.309-2.274c0.01-0.017,0.014-0.027,0.016-0.03
		c0.199-0.353,0.273-0.396,0.34-0.521c0.07-0.167,0.023-0.251-0.012-0.634c-0.098-0.76-0.496-1.15-0.227-1.668
		c0.029-0.057,0.062-0.115,0.107-0.178c0.412-0.59,1.26-1.23,1.631-1.98c0.074-0.151,0.129-0.307,0.154-0.471
		c0.082-0.555,0.162-1.041,0.373-1.463c0.117-0.241,0.277-0.467,0.508-0.676c0.582-0.554,1.496-0.477,1.861-1.133
		c0.012-0.029,0.023-0.055,0.033-0.08c0.006-0.018,0.01-0.028,0.014-0.037c0.072-0.18,0.418-0.281,0.861-0.339
		c0.438-0.069,0.936-0.112,1.297-0.374c0.232-0.182,0.609-0.12,1.014-0.063c0.381,0.056,0.857,0.065,1.09-0.41
		c0.014-0.022,0.023-0.047,0.031-0.067c0.205-0.515,0.314-0.865,0.482-1.207c0.123-0.254,0.277-0.507,0.535-0.826
		c0.559-0.707,2.086-1.53,2.482-2.305c0.02-0.037,0.031-0.072,0.043-0.105c0.121-0.36,0.188-0.766,0.365-1.123
		c0.197-0.397,0.508-0.747,1.209-0.944c1.377-0.384,4.059-0.793,5.092-0.694c0.428,0.039,0.848,0.221,1.213,0.33
		c0.342,0.117,0.754,0.152,0.943-0.239c0.062-0.128,0.098-0.283,0.113-0.479c0.088-1.098-0.211-1.884,0.15-2.602
		c0.07-0.143,0.164-0.287,0.295-0.432c0.797-0.914,1.688-0.911,2.504-1.623c0.74-0.661,1.318-0.895,2.053-1.662
		c0.729-0.775,1.113-1.596,1.504-1.723c0.15-0.059,0.262-0.141,0.32-0.26C122.391,47.408,122.133,47.142,121.84,46.997z
		 M121.834,47.706c-0.594,0.248-0.908,1.068-1.615,1.793c-0.693,0.729-1.254,0.959-2.033,1.647
		c-0.701,0.636-1.645,0.651-2.531,1.648c-0.146,0.164-0.256,0.331-0.338,0.498c-0.416,0.872-0.084,1.69-0.18,2.708
		c-0.014,0.172-0.047,0.295-0.084,0.373c-0.096,0.191-0.23,0.182-0.59,0.086c-0.342-0.102-0.785-0.297-1.275-0.342
		c-1.123-0.1-3.775,0.313-5.197,0.705c-0.771,0.209-1.176,0.643-1.395,1.098c-0.199,0.41-0.268,0.834-0.377,1.154
		c-0.01,0.022-0.021,0.049-0.033,0.074c-0.287,0.616-1.818,1.482-2.445,2.25c-0.27,0.334-0.439,0.608-0.572,0.881
		c-0.182,0.369-0.291,0.727-0.488,1.226c-0.008,0.017-0.016,0.036-0.025,0.05c-0.145,0.295-0.385,0.289-0.785,0.244
		c-0.379-0.041-0.84-0.156-1.227,0.121c-0.254,0.193-0.721,0.256-1.162,0.318c-0.438,0.072-0.887,0.128-1.086,0.504
		c-0.012,0.023-0.02,0.043-0.025,0.062c-0.006,0.017-0.016,0.036-0.023,0.053c-0.168,0.43-1.078,0.428-1.791,1.043
		c-0.26,0.235-0.445,0.492-0.58,0.768c-0.232,0.475-0.311,0.995-0.396,1.548c-0.02,0.126-0.064,0.257-0.127,0.385
		c-0.318,0.655-1.148,1.296-1.605,1.937c-0.053,0.074-0.098,0.15-0.133,0.223c-0.34,0.725,0.148,1.205,0.197,1.828
		c0.049,0.4,0.051,0.474,0.041,0.474c-0.01,0.03-0.127,0.145-0.326,0.497c-0.012,0.016-0.02,0.037-0.029,0.055
		c-0.391,0.832,0.232,2.09,0.279,2.451l0,0c0,0.014-0.018,0.065-0.047,0.129c-0.344,0.709-2.23,2.846-3.031,3.753
		c-0.223,0.253-0.377,0.479-0.484,0.694c-0.342,0.708-0.143,1.258-0.102,2.174c0.031,0.573-0.033,0.934-0.182,1.238
		c-0.162,0.335-0.447,0.622-0.863,1.039c-0.289,0.287-0.498,0.58-0.645,0.884c-0.275,0.562-0.334,1.141-0.314,1.753
		c0.018,0.547,0.043,0.743-0.053,0.931c-0.07,0.146-0.229,0.329-0.549,0.659c-0.178,0.182-0.297,0.344-0.375,0.5
		c-0.262,0.563,0.059,0.906,0.125,1.582c0.053,0.48,0.143,0.713,0.191,0.895c0.045,0.18,0.064,0.322-0.014,0.729
		c-0.094,0.457,0.139,0.807,0.338,1.051c0.1,0.125,0.195,0.229,0.244,0.308c0.057,0.088,0.049,0.108,0.045,0.114
		c-0.002,0.006-0.008,0.014-0.016,0.022c-0.047,0.044-0.082,0.098-0.107,0.15c-0.105,0.216-0.029,0.417,0.029,0.572
		c0.064,0.159,0.113,0.294,0.09,0.396c0.002-0.004-0.002,0.005-0.006,0.014c-0.02,0.074-0.305,0.246-0.662,0.298
		c-0.359,0.062-0.791,0.035-1.135-0.135c-0.039-0.019-0.078-0.04-0.115-0.062c-0.059-0.037-0.121-0.07-0.193-0.105
		c-1.021-0.499-3.631-1.064-6.145-1.489c-2.08-0.354-4.059-1.155-5.566-1.892c-0.408-0.203-0.785-0.399-1.117-0.58
		c-1.57-0.851-69.026-34.881-69.495-35.151c-0.037-0.021-0.079-0.042-0.121-0.062c-0.627-0.307-2.244-0.834-3.139-1.076
		c-0.057-0.017-0.104-0.034-0.132-0.049c-0.005-0.004-0.012-0.007-0.018-0.01c0.073-0.066,0.345-0.221,0.651-0.321
		c0.361-0.133,0.785-0.249,1.067-0.317c0.8-0.188,2.104-0.844,3.135-1.127c0.429-0.118,0.707-0.378,0.86-0.695
		c0.258-0.533,0.205-1.205,0.162-1.775c-0.023-0.293,0.015-0.487,0.08-0.621c0.123-0.25,0.369-0.334,0.695-0.377
		c0.322-0.044,0.558-0.26,0.687-0.523c0.117-0.242,0.157-0.527,0.122-0.807c-0.053-0.411-0.032-0.686,0.188-1.141
		c0.056-0.115,0.123-0.237,0.208-0.375c0.02-0.035,0.037-0.062,0.055-0.097c0.192-0.376,0.018-0.692-0.225-0.94
		c-0.24-0.266-0.571-0.559-0.855-1.059c-0.107-0.189-0.102-0.285-0.076-0.334c0.029-0.128,0.459-0.242,1.004-0.26
		c0.548-0.029,1.189-0.021,1.698-0.123c0.431-0.086,0.712-0.301,0.853-0.59c0.268-0.574,0.068-1.319-0.01-1.983
		c-0.03-0.253-0.002-0.418,0.048-0.517c0.104-0.252,0.482-0.23,0.817-0.127c0.222,0.086,0.469,0.012,0.551-0.182
		c0.107-0.236,0.068-0.542,0.013-0.914c-0.032-0.184-0.02-0.271,0.003-0.314c0.027-0.107,0.33-0.199,0.83-0.598
		c0.103-0.086,0.184-0.18,0.232-0.282c0.169-0.356-0.018-0.71-0.301-1.063c-0.285-0.359-0.705-0.764-1.146-1.245
		c-0.276-0.305-0.285-0.466-0.249-0.526c0.034-0.101,0.319-0.221,0.687-0.26c0.359-0.049,0.779-0.053,1.078-0.073
		c0.784-0.05,1.263,0,1.883-0.657c0.104-0.107,0.18-0.212,0.23-0.317c0.143-0.28,0.072-0.556-0.066-0.799
		c-0.137-0.249-0.341-0.513-0.539-0.862c-0.1-0.174-0.165-0.301-0.195-0.383c-0.015-0.035-0.02-0.064-0.022-0.08
		c0.026-0.006,0.087-0.018,0.173-0.023c0.121-0.012,0.287-0.023,0.484-0.062c0.303-0.058,0.52-0.042,0.705-0.05
		c0.176,0.004,0.393-0.056,0.487-0.268c0.026-0.053,0.046-0.115,0.065-0.182c0.008-0.039,0.021-0.074,0.038-0.112
		c0.115-0.248,0.476-0.513,0.737-1.044c0.116-0.231,0.208-0.519,0.253-0.877c0.085-0.709-0.404-1.258-0.899-1.719
		c-0.502-0.458-1.037-0.877-1.137-1.195c-0.009-0.037-0.006-0.037-0.004-0.041c-0.001-0.004,0.035-0.042,0.133-0.068
		c0.342-0.106,1.179-0.06,1.992-0.02c0.82,0.033,1.609,0.072,2.033-0.143c0.191-0.104,0.326-0.246,0.406-0.405
		c0.293-0.651-0.188-1.454-0.318-2.062c-0.018-0.073-0.031-0.129-0.041-0.176c0.152,0.055,0.43,0.137,0.768,0.065
		c0.312-0.062,0.521-0.173,0.619-0.37c0.142-0.321,0-0.652-0.065-1.111c-0.055-0.338-0.041-0.494,0.019-0.618
		c0.07-0.154,0.271-0.315,0.621-0.65c0.108-0.104,0.184-0.2,0.232-0.301c0.139-0.274,0.025-0.52-0.069-0.687
		c-0.101-0.178-0.177-0.31-0.146-0.467c0.062-0.376-0.243-0.562-0.435-0.682c-0.104-0.064-0.189-0.127-0.232-0.18
		c-0.038-0.053-0.05-0.072-0.027-0.158c0.006-0.015,0.01-0.025,0.017-0.041c0.05-0.107,0.167-0.135,0.446-0.081
		c0.266,0.056,0.611,0.193,0.961,0.306c0.141,0.043,0.247,0.066,0.344,0.066c0.093,0.006,0.215-0.041,0.26-0.143
		c0.064-0.159,0.012-0.277-0.026-0.441c-0.045-0.158-0.104-0.349-0.146-0.565c-0.024-0.13-0.038-0.226-0.042-0.284
		c-0.004-0.04-0.001-0.06,0-0.069c0.054-0.018,0.262-0.034,0.51-0.173c0.145-0.085,0.25-0.161,0.312-0.281
		c0.13-0.37-0.146-0.586-0.372-1.24c-0.078-0.204-0.068-0.312-0.057-0.324c0.005-0.008,0.004-0.018,0.073-0.027
		c0.212-0.031,0.735,0.135,1.258,0.174c0.265,0.01,0.449,0.002,0.558-0.179c0.082-0.224-0.045-0.368-0.135-0.552
		c-0.102-0.178-0.216-0.379-0.263-0.564c-0.087-0.357-0.081-0.529,0.019-0.738c0.071-0.143,0.195-0.304,0.387-0.523
		c0.051-0.062,0.093-0.123,0.123-0.189c0.283-0.657-0.318-1.23-0.27-1.808c0.002-0.049,0.012-0.085,0.025-0.114
		c0.053-0.147,0.375-0.236,0.812-0.229c0.426,0.005,0.928,0.074,1.309,0.086c0.179,0.01,0.351-0.057,0.42-0.207
		c0.124-0.303-0.045-0.641-0.2-1.061c-0.165-0.41-0.356-0.87-0.403-1.248c-0.012-0.113,0.002-0.191,0.035-0.256
		c0.084-0.204,0.464-0.318,0.91-0.336c0.442-0.02,0.908,0.037,1.152,0.043c0.119,0.007,0.256-0.055,0.307-0.168
		c0.104-0.267-0.035-0.553-0.181-0.921c-0.155-0.359-0.362-0.765-0.497-1.099c-0.111-0.273-0.094-0.437-0.039-0.552
		c0.093-0.207,0.414-0.321,0.66-0.384c0.127-0.039,0.24-0.064,0.311-0.194c0.086-0.251-0.041-0.399-0.078-0.973
		c-0.018-0.195,0.004-0.321,0.047-0.412c0.104-0.271,0.656-0.368,1.723-0.657c0.676-0.19,1.263-0.203,1.681-0.169
		c0.394,0.032,0.628,0.106,0.651,0.114c0.363,0.166,0.606,0.223,3.424,1.443c0.092,0.039,0.367,0.17,0.797,0.379
		c11.535,5.65,78.594,40.139,83.719,42.648c0.102,0.05,0.141,0.07,0.176,0.084c0.051,0.016,0.096,0.033,0.137,0.054
		c0.117,0.059,0.209,0.134,0.254,0.199c0.045,0.071,0.043,0.103,0.029,0.132C121.979,47.621,121.941,47.665,121.834,47.706z"/>
</g>
</svg>
