<?xml version="1.0" encoding="utf-8"?>
<!-- Generator: Adobe Illustrator 15.1.0, SVG Export Plug-In . SVG Version: 6.00 Build 0)  -->
<!DOCTYPE svg PUBLIC "-//W3C//DTD SVG 1.1//EN" "http://www.w3.org/Graphics/SVG/1.1/DTD/svg11.dtd">
<svg version="1.1" id="Layer_1" xmlns="http://www.w3.org/2000/svg" xmlns:xlink="http://www.w3.org/1999/xlink" x="0px" y="0px"
	 width="595.28px" height="841.89px" viewBox="0 0 595.28 841.89" enable-background="new 0 0 595.28 841.89" xml:space="preserve">
<g>
	
		<linearGradient id="SVGID_1_" gradientUnits="userSpaceOnUse" x1="-204.2974" y1="-153.3374" x2="-23.4509" y2="-153.3374" gradientTransform="matrix(0.8865 -0.4628 0.4628 0.8865 269.5635 147.4438)">
		<stop  offset="0" style="stop-color:#EFF1F0"/>
		<stop  offset="0.2441" style="stop-color:#F9FBFB"/>
		<stop  offset="0.489" style="stop-color:#FCFEFF"/>
		<stop  offset="0.7758" style="stop-color:#F7F8FA"/>
		<stop  offset="0.989" style="stop-color:#F0F1F2"/>
	</linearGradient>
	<path fill="url(#SVGID_1_)" d="M12.875,71.317c0.835,0.33,1.727,0.708,2.23,1.16c0.913,0.822,2.787,1.826,3.246,1.967
		c0.604,0.209,1.067,1.093,1.52,1.776c0.363,0.597,1.544,0.739,2.252,0.572c0.836-0.185,1.465,0.345,2.064,0.86
		c0.215,0.193,0.692,0.251,1.183,0.341c0.483,0.095,1.009,0.239,1.276,0.742c0.046,0.09,0.082,0.188,0.109,0.298
		c0.068,0.287,0.179,0.572,0.318,0.836c0.396,0.787,1.07,1.373,1.415,1.359c0.488,0.043,2.614-0.902,3.366,0.448
		c0.049,0.093,0.088,0.196,0.122,0.311c0.261,0.95,0.289,1.454,0.351,1.553c0.002,0.003,0.002,0.006,0.002,0.006h0.005
		c0.024,0.002,0.107-0.019,0.23-0.061c0.255-0.086,0.537-0.234,0.854-0.241c0.322-0.012,0.649,0.173,0.888,0.645
		c0.072,0.138,0.141,0.304,0.206,0.5c0.157,0.471,0.358,0.952,0.58,1.374c0.228,0.437,0.477,0.812,0.707,1.049
		c0.234,0.245,0.432,0.319,0.54,0.275c0.613-0.202,1.765-0.548,2.302,0.292c0.427,0.699,0.778,0.927,1.453,1.006
		c0.594,0.064,1.351,0.318,1.718,1.02c0.09,0.168,0.152,0.361,0.186,0.579c0.089,0.636,0.104,1.102,0.246,1.364
		c0.093,0.17,0.215,0.277,0.494,0.355c0.732,0.208,2.468,0.392,3.015,1.391c0.017,0.031,0.032,0.066,0.048,0.102l-0.138,0.056l0,0
		l0.141-0.05c0.005,0.016,0.014,0.033,0.021,0.05c0.152,0.313,0.577,0.344,1.126,0.411c0.532,0.067,1.17,0.217,1.537,0.927
		c0.027,0.054,0.054,0.11,0.081,0.171c0.32,0.777,0.506,1.209,0.662,1.506c0.154,0.297,0.28,0.462,0.505,0.734
		c0.019,0.021,0.034,0.049,0.049,0.076c0.207,0.461-0.079,1.25-0.473,2.587c-0.401,1.323-0.955,3.14-1.395,5.445
		c-0.884,4.622-1.057,10.304,0.936,15.999c7.447-3.365,30.532-13.675,46.357-21.346c17.884-8.667,66.64-30.665,74.751-34.343
		c8.109-3.676,16.062-7.748,17.359-8.393c0.158-0.079,0.299-0.151,0.422-0.216c0.326-0.17,0.539-0.302,0.637-0.395
		c0.096-0.109,0.08-0.096,0.061-0.152c-0.021-0.047-0.1-0.131-0.221-0.229c-0.516-0.419-1.611-0.951-2.199-1.239
		c-0.34-0.163-0.465-0.42-0.576-0.614c-0.111-0.199-0.201-0.348-0.512-0.47c-0.137-0.052-0.238-0.106-0.299-0.218
		c-0.074-0.143-0.004-0.283,0.068-0.369c0.078-0.094,0.184-0.18,0.301-0.274c0.234-0.187,0.52-0.404,0.697-0.649
		c0.211-0.304,0.188-0.514,0.072-0.751c-0.115-0.221-0.34-0.438-0.566-0.637c-0.387-0.37-1.271-0.316-1.818-0.776
		c-0.041-0.036-0.074-0.079-0.1-0.126c-0.156-0.395,0.197-0.699,0.557-1.044c0.381-0.34,0.861-0.698,1.16-0.994
		c0.064-0.076,0.068-0.114,0.01-0.249c-0.309-0.634-2.439-1.714-3.125-2.16c-0.178-0.118-0.305-0.244-0.377-0.384
		c-0.15-0.289-0.047-0.582,0.113-0.834c0.164-0.258,0.398-0.515,0.607-0.795c0.104-0.15,0.098-0.229,0.049-0.339
		c-0.166-0.356-1.127-0.715-1.605-1c-0.234-0.156-0.34-0.174-0.438-0.319c-0.037-0.064-0.027-0.153-0.002-0.201
		c0.021-0.049,0.049-0.087,0.082-0.135c0.064-0.094,0.158-0.221,0.277-0.438c0.377-0.699,0.596-1.504,1.59-2.024
		c0.023-0.012,0.047-0.024,0.072-0.036c0.02-0.009,0.037-0.018,0.059-0.028c0.174-0.091,0.273-0.175,0.311-0.227
		c0.035-0.057,0.023-0.048,0.02-0.066c-0.012-0.085-0.449-0.254-0.887-0.272c-0.881-0.082-2.42-1.284-3.152-1.67
		c-0.148-0.08-0.258-0.173-0.318-0.291c-0.141-0.289,0.021-0.551,0.188-0.801c0.174-0.26,0.396-0.539,0.535-0.851
		c0.092-0.216,0.068-0.382-0.02-0.558c-0.199-0.396-0.818-0.74-1.219-0.963c-0.256-0.155-0.352-0.155-0.453-0.304
		c-0.072-0.223,0.031-0.254,0.039-0.601c0.053-0.739,0.59-1.137,1.459-1.969c0.125-0.113,0.205-0.207,0.252-0.27
		c-0.057,0.004-0.135,0.014-0.219,0.027c-0.213,0.031-0.482,0.088-0.727,0.103c-0.768,0.038-1.332-0.562-1.666-1.2
		c-0.25-0.497-0.9-0.807-1.156-1.262c-0.031-0.061-0.057-0.123-0.066-0.192c-0.051-0.307,0.1-0.698,0.244-1.113
		c0.145-0.407,0.287-0.829,0.277-1.034c-0.004-0.025-0.01-0.051-0.025-0.081c-0.066-0.144-0.377-0.326-0.725-0.504
		c-0.344-0.187-0.727-0.384-0.945-0.702c-0.012-0.018-0.023-0.038-0.035-0.06c-0.201-0.433,0.08-0.918,0.371-1.409
		c0.299-0.486,0.658-0.99,0.746-1.304c0.053-0.192,0.035-0.302,0.006-0.358c-0.035-0.068-0.109-0.105-0.227-0.113
		c-0.113-0.009-0.252,0.025-0.34,0.072c-0.391,0.205-0.807,0.062-1.184-0.232c-0.342-0.266-0.795-0.927-1.084-1.474
		c-0.059-0.115-0.111-0.226-0.152-0.325c-0.121-0.284-0.129-0.507-0.053-0.728c0.072-0.222,0.203-0.452,0.359-0.891
		c0.145-0.384,0.137-0.52,0.115-0.543c-0.004-0.052-0.24-0.141-0.529-0.462c-0.371-0.445-1.238-0.663-1.529-1.166
		c-0.033-0.063-0.057-0.136-0.062-0.21c-0.012-0.381,0.387-0.934,0.783-1.577c0.398-0.62,0.803-1.295,0.818-1.579
		c0.006-0.062-0.004-0.094-0.014-0.111c-0.012-0.025-0.053-0.058-0.186-0.062c-0.127-0.005-0.307,0.024-0.504,0.071
		c-0.4,0.093-0.871,0.25-1.246,0.299c-0.492,0.062-0.775-0.298-0.955-0.656c-0.115-0.216-0.209-0.45-0.312-0.648
		c-0.074-0.139-0.15-0.261-0.232-0.348c-0.068-0.07-0.125-0.146-0.168-0.229c-0.297-0.6,0.053-1.288,0.414-2.06
		c0.059-0.129,0.053-0.203,0.01-0.29c-0.094-0.2-0.508-0.41-0.955-0.558c-0.447-0.157-0.902-0.268-1.145-0.423
		c-0.152-0.103-0.24-0.16-0.303-0.271c-0.07-0.138-0.004-0.259,0.035-0.339c0.043-0.092,0.098-0.2,0.139-0.392
		c0.133-0.615,0.475-1.605,0.355-2.395c-0.014-0.091-0.051-0.189-0.104-0.293c-0.346-0.688-1.562-1.473-1.896-1.568
		c-0.23-0.072-0.395-0.229-0.49-0.414c-0.125-0.242-0.146-0.525-0.111-0.779c-0.004-0.001-0.01-0.002-0.016-0.002
		c-0.043-0.011-0.121-0.015-0.217-0.008c-0.193,0.014-0.461,0.065-0.768,0.146c-0.609,0.159-1.361,0.435-1.971,0.738
		c-1.332,0.664-16.055,7.081-27.881,12.616S71.84,42.173,60.821,47.287c-9.835,4.564-43.145,19.55-50.214,22.729
		c0.13,0.207,0.274,0.394,0.448,0.528C11.255,70.708,12.047,70.993,12.875,71.317z"/>
	
		<linearGradient id="SVGID_2_" gradientUnits="userSpaceOnUse" x1="-198.4722" y1="-158.0195" x2="-165.8059" y2="-175.2032" gradientTransform="matrix(0.8865 -0.4628 0.4628 0.8865 269.5635 147.4438)">
		<stop  offset="0" style="stop-color:#E8EAEA"/>
		<stop  offset="0.0895" style="stop-color:#EFF0F1"/>
		<stop  offset="0.2888" style="stop-color:#F9FBFC"/>
		<stop  offset="0.489" style="stop-color:#FCFEFF"/>
		<stop  offset="0.6545" style="stop-color:#F7F9FB"/>
		<stop  offset="0.8831" style="stop-color:#E8EDEF"/>
		<stop  offset="0.989" style="stop-color:#DFE5E7"/>
	</linearGradient>
	<path fill="url(#SVGID_2_)" d="M47.625,105.055c0.445-2.323,1.001-4.153,1.405-5.478c0.411-1.312,0.623-2.176,0.491-2.361
		c-0.005-0.011-0.01-0.021-0.016-0.026c-0.227-0.272-0.375-0.469-0.539-0.785c-0.166-0.316-0.35-0.752-0.672-1.531
		c-0.022-0.052-0.046-0.101-0.069-0.147c-0.313-0.586-0.791-0.695-1.314-0.769c-0.505-0.072-1.072-0.062-1.351-0.569
		c-0.013-0.024-0.025-0.051-0.034-0.078c-0.011-0.028-0.022-0.053-0.035-0.08c-0.384-0.781-2.06-1.048-2.831-1.24
		c-0.33-0.086-0.555-0.261-0.677-0.503c-0.19-0.371-0.188-0.841-0.28-1.459c-0.027-0.187-0.081-0.348-0.152-0.485
		c-0.293-0.567-0.942-0.803-1.487-0.861c-0.743-0.072-1.24-0.403-1.677-1.147c-0.329-0.604-1.334-0.384-1.95-0.165
		c-0.306,0.097-0.592-0.084-0.851-0.349c-0.262-0.271-0.52-0.665-0.756-1.118c-0.23-0.438-0.438-0.932-0.598-1.419
		c-0.062-0.185-0.125-0.335-0.188-0.456c-0.225-0.412-0.41-0.483-0.62-0.485c-0.217,0.001-0.482,0.127-0.764,0.226
		c-0.13,0.044-0.224,0.074-0.325,0.075c-0.104,0.01-0.229-0.069-0.269-0.164c-0.118-0.249-0.111-0.663-0.375-1.61
		c-0.027-0.095-0.061-0.18-0.1-0.253c-0.501-1.056-2.443-0.31-3.108-0.288c-0.582-0.029-1.226-0.686-1.673-1.519
		c-0.148-0.284-0.269-0.589-0.343-0.904c-0.021-0.087-0.052-0.163-0.084-0.229c-0.188-0.363-0.595-0.498-1.071-0.588
		c-0.471-0.096-0.977-0.126-1.316-0.409c-0.61-0.525-1.149-0.946-1.81-0.796c-0.788,0.168-2.042,0.078-2.565-0.701
		c-0.434-0.693-0.962-1.549-1.357-1.654c-0.543-0.174-2.381-1.159-3.354-2.027c-0.439-0.396-1.319-0.783-2.143-1.105
		c-0.833-0.331-1.592-0.586-1.893-0.813c-0.225-0.175-0.395-0.403-0.537-0.64h-0.005l-0.067-0.117
		c-0.027-0.053-0.058-0.107-0.087-0.16c-0.109-0.21-0.201-0.414-0.288-0.591c-0.021-0.044-0.043-0.089-0.062-0.128
		c-0.218-0.405-0.676-0.682-1.412-0.499c-0.663,0.164-1.094-0.367-1.357-0.883l-0.001-0.001l0,0c-0.054-0.102-0.1-0.207-0.145-0.308
		c-0.005-0.012-0.011-0.022-0.017-0.034c-0.006-0.016-0.01-0.03-0.019-0.045c-0.039-0.098-0.078-0.191-0.112-0.278
		c-0.022-0.058-0.046-0.106-0.066-0.149c-0.185-0.301-0.234-0.259-0.42-0.189c-0.061,0.031-0.129,0.078-0.195,0.134
		c-0.062,0.05-0.125,0.091-0.186,0.123l0,0l0,0c-0.013,0.007-0.023,0.01-0.036,0.016c-0.284,0.134-0.556,0.081-0.827,0.012
		c-0.301-0.081-0.986-0.084-1.519-0.006c-0.361,0.046-0.699-0.161-1.015-0.37c-0.113-0.078-0.227-0.156-0.33-0.229
		c-0.184-0.126-0.344-0.231-0.446-0.26c-0.015-0.005-0.024-0.013-0.038-0.019c-0.211-0.081-0.371-0.251-0.508-0.405
		c-0.089-0.106-0.174-0.21-0.23-0.271c-0.118,0.233-0.343,0.886-0.375,1.354c-0.048,0.58-0.042,1.507-0.199,2.207
		c-0.06,0.24-0.081,0.553-0.076,0.875c0.007,0.521,0.086,1.066,0.213,1.367c0.135,0.327,0.23,0.851,0.334,1.399
		c0.08,0.428,0.163,0.87,0.273,1.248c0.144,0.5,0.275,0.884,0.362,1.125l46.948,45.738
		C46.564,115.175,46.755,109.602,47.625,105.055z"/>
	<path fill="#E0E5E5" d="M171.295,11.382c-0.414,0.098-0.889,0.253-1.215,0.293c-0.307,0.039-0.471-0.152-0.656-0.498
		c-0.104-0.199-0.199-0.433-0.312-0.648c-0.078-0.152-0.168-0.295-0.281-0.416c-0.051-0.053-0.09-0.107-0.117-0.161
		c-0.217-0.384,0.041-1.022,0.418-1.796c0.096-0.191,0.09-0.395,0.004-0.554c-0.197-0.356-0.662-0.535-1.119-0.701
		c-0.457-0.156-0.93-0.287-1.08-0.39c-0.123-0.079-0.186-0.136-0.199-0.153c0.008-0.043,0.131-0.22,0.197-0.538
		c0.123-0.584,0.49-1.603,0.359-2.502c-0.02-0.133-0.068-0.262-0.135-0.385c-0.439-0.816-1.627-1.565-2.07-1.716
		c-0.15-0.049-0.246-0.14-0.314-0.267c-0.09-0.173-0.113-0.418-0.076-0.631c0.01-0.052,0-0.11-0.025-0.156
		c-0.127-0.188-0.309-0.164-0.527-0.16c-0.662,0.048-1.896,0.44-2.848,0.914c-1.311,0.652-16.049,7.078-27.873,12.612
		c-11.826,5.535-61.706,28.375-72.729,33.49c-9.843,4.565-43.22,19.583-50.236,22.738c-0.006-0.01-0.012-0.022-0.018-0.032H10.44
		c-0.13-0.25-0.239-0.504-0.352-0.718c0,0,0,0,0-0.001v-0.001c-0.023-0.044-0.052-0.087-0.081-0.129
		c-0.013-0.019-0.021-0.04-0.038-0.059c-0.312-0.417-0.894-0.654-1.626-0.461c-0.273,0.074-0.501-0.035-0.697-0.251
		c-0.119-0.129-0.226-0.295-0.325-0.482c-0.087-0.168-0.16-0.34-0.227-0.504c-0.017-0.044-0.036-0.091-0.053-0.133
		c-0.01-0.028-0.022-0.051-0.036-0.076c-0.014-0.035-0.028-0.072-0.045-0.102c-0.051-0.099-0.107-0.18-0.172-0.243
		s-0.135-0.109-0.213-0.134c-0.156-0.049-0.312-0.006-0.435,0.061c-0.087,0.045-0.168,0.104-0.244,0.166
		c-0.048,0.04-0.095,0.068-0.139,0.092c-0.026,0.015-0.054,0.02-0.081,0.03c-0.133,0.046-0.268,0.038-0.44,0.001
		c-0.042-0.009-0.081-0.018-0.128-0.027c-0.032-0.01-0.07-0.017-0.108-0.022c-0.393-0.073-1.007-0.064-1.528,0.01
		c-0.196,0.035-0.506-0.116-0.807-0.324c-0.307-0.201-0.59-0.438-0.854-0.524c-0.143-0.041-0.321-0.224-0.465-0.4
		c-0.066-0.08-0.126-0.154-0.187-0.219c-0.005-0.008-0.011-0.016-0.018-0.02v-0.001c-0.062-0.053-0.138-0.159-0.311-0.095
		c-0.02,0.01-0.043,0.031-0.063,0.056c-0.003,0.006-0.008,0.01-0.012,0.015c-0.012,0.015-0.023,0.037-0.035,0.056
		c-0.158,0.257-0.39,0.938-0.443,1.526l-0.001,0.002c0,0.013-0.001,0.029-0.003,0.045c-0.045,0.6-0.047,1.485-0.191,2.117
		c-0.158,0.72-0.083,1.835,0.154,2.422c0.209,0.497,0.34,1.721,0.595,2.615c0.128,0.444,0.247,0.801,0.334,1.049l-0.061,0.033
		l-0.003,0.002l0.085,0.086l0.06,0.061l6.377,6.214l41.096,40.039l0.104-0.049l0.062-0.029c7.354-3.323,30.559-13.683,46.454-21.388
		c17.874-8.663,66.633-30.662,74.743-34.341c8.117-3.679,16.076-7.754,17.371-8.399c0.156-0.078,0.301-0.151,0.428-0.217
		c0.334-0.175,0.559-0.305,0.703-0.442c0.15-0.124,0.215-0.341,0.119-0.505c-0.062-0.117-0.164-0.211-0.299-0.32
		c-0.568-0.459-1.662-0.984-2.256-1.273c-0.252-0.127-0.324-0.284-0.443-0.496c-0.113-0.207-0.281-0.459-0.674-0.599
		c-0.088-0.032-0.123-0.064-0.135-0.075c0.016-0.045,0.178-0.197,0.379-0.35c0.215-0.172,0.475-0.378,0.662-0.636
		c0.277-0.374,0.262-0.764,0.096-1.062c-0.15-0.286-0.402-0.519-0.629-0.723c-0.551-0.461-1.432-0.409-1.82-0.779
		c-0.02-0.016-0.029-0.028-0.033-0.039c-0.021-0.031-0.018-0.104,0.07-0.238c0.262-0.397,1.109-0.978,1.59-1.453
		c0.174-0.162,0.17-0.413,0.064-0.596c-0.447-0.816-2.562-1.818-3.223-2.269c-0.15-0.102-0.236-0.194-0.277-0.274
		c-0.078-0.153-0.041-0.308,0.102-0.539c0.141-0.223,0.375-0.481,0.594-0.775c0.164-0.21,0.178-0.463,0.072-0.653
		c-0.307-0.543-1.285-0.839-1.711-1.115c-0.119-0.075-0.211-0.128-0.268-0.165c-0.016-0.007-0.025-0.017-0.035-0.022
		c0.049-0.071,0.178-0.237,0.328-0.514c0.4-0.751,0.578-1.437,1.467-1.901c0.02-0.012,0.041-0.022,0.061-0.03
		c0.027-0.013,0.049-0.024,0.068-0.035c0.195-0.103,0.328-0.199,0.412-0.311c0.086-0.108,0.111-0.267,0.045-0.381
		c-0.189-0.301-0.65-0.382-1.125-0.433c-0.691-0.039-2.285-1.223-3.037-1.634c-0.117-0.063-0.174-0.124-0.195-0.169
		c-0.055-0.083-0.002-0.247,0.17-0.498c0.164-0.242,0.4-0.538,0.561-0.896c0.129-0.291,0.096-0.58-0.029-0.813
		c-0.279-0.522-0.941-0.855-1.336-1.084c-0.131-0.075-0.227-0.123-0.283-0.156c-0.018-0.011-0.033-0.02-0.043-0.025
		c0.008-0.056,0.049-0.203,0.062-0.446c0.027-0.561,0.473-0.927,1.367-1.771c0.146-0.14,0.244-0.246,0.309-0.34
		c0.059-0.089,0.117-0.182,0.059-0.312c-0.082-0.129-0.189-0.124-0.275-0.132c-0.266,0.001-0.684,0.115-1.006,0.13
		c-0.578,0.039-1.076-0.443-1.387-1.038c-0.324-0.601-1.006-0.943-1.154-1.265c-0.021-0.039-0.035-0.072-0.039-0.103
		c-0.035-0.155,0.086-0.565,0.232-0.967c0.141-0.413,0.301-0.825,0.291-1.144c-0.002-0.074-0.023-0.145-0.057-0.206
		c-0.158-0.284-0.502-0.44-0.846-0.63c-0.346-0.181-0.689-0.379-0.84-0.607c-0.008-0.009-0.012-0.018-0.018-0.028
		c-0.119-0.187,0.057-0.643,0.359-1.118c0.291-0.48,0.656-0.968,0.777-1.376c0.066-0.233,0.062-0.427-0.016-0.578
		c-0.225-0.375-0.699-0.3-0.965-0.167c-0.25,0.13-0.512,0.062-0.867-0.205c-0.264-0.197-0.736-0.86-1.002-1.374
		c-0.055-0.109-0.105-0.21-0.139-0.298c-0.102-0.263-0.098-0.352-0.047-0.526c0.059-0.177,0.195-0.43,0.357-0.883
		c0.137-0.392,0.189-0.585,0.098-0.78c-0.145-0.229-0.328-0.229-0.568-0.518c-0.469-0.518-1.352-0.792-1.49-1.11
		c-0.018-0.034-0.025-0.066-0.029-0.097c-0.037-0.132,0.336-0.783,0.738-1.395c0.398-0.637,0.818-1.272,0.865-1.713
		c0.008-0.099-0.004-0.193-0.047-0.272C172.1,11.198,171.703,11.302,171.295,11.382z M48.429,120.796L1.481,75.058
		c-0.087-0.241-0.219-0.625-0.362-1.125c-0.11-0.378-0.193-0.82-0.273-1.248c-0.104-0.549-0.199-1.072-0.334-1.399
		c-0.127-0.301-0.206-0.847-0.213-1.367c-0.005-0.322,0.017-0.635,0.076-0.875c0.157-0.7,0.151-1.627,0.199-2.207
		c0.032-0.468,0.257-1.12,0.375-1.354c0.057,0.061,0.142,0.164,0.23,0.271c0.137,0.154,0.297,0.324,0.508,0.405
		c0.014,0.006,0.023,0.014,0.038,0.019c0.103,0.028,0.263,0.134,0.446,0.26c0.104,0.072,0.217,0.15,0.33,0.229
		c0.315,0.209,0.653,0.416,1.015,0.37c0.532-0.078,1.218-0.075,1.519,0.006c0.271,0.069,0.543,0.122,0.827-0.012
		c0.013-0.006,0.023-0.009,0.036-0.016c0.061-0.032,0.123-0.073,0.186-0.123c0.066-0.056,0.135-0.103,0.195-0.134
		c0.186-0.069,0.235-0.111,0.42,0.189c0.021,0.043,0.044,0.092,0.066,0.149c0.034,0.087,0.073,0.181,0.112,0.278
		c0.009,0.015,0.013,0.029,0.019,0.045c0.006,0.012,0.012,0.022,0.017,0.034c0.045,0.101,0.091,0.206,0.145,0.308l0.001,0.001
		c0.264,0.516,0.694,1.047,1.357,0.883c0.736-0.183,1.194,0.094,1.412,0.499c0.02,0.039,0.041,0.084,0.062,0.128
		c0.087,0.177,0.179,0.381,0.288,0.591c0.029,0.053,0.06,0.107,0.087,0.16l0.067,0.117h0.005c0.143,0.236,0.312,0.465,0.537,0.64
		c0.301,0.228,1.06,0.482,1.893,0.813c0.823,0.322,1.703,0.71,2.143,1.105c0.973,0.868,2.811,1.854,3.354,2.027
		c0.396,0.105,0.924,0.961,1.357,1.654c0.523,0.779,1.777,0.869,2.565,0.701c0.66-0.15,1.199,0.271,1.81,0.796
		c0.34,0.283,0.846,0.313,1.316,0.409c0.477,0.09,0.884,0.225,1.071,0.588c0.032,0.066,0.062,0.143,0.084,0.229
		c0.074,0.315,0.194,0.62,0.343,0.904c0.447,0.833,1.091,1.489,1.673,1.519c0.665-0.021,2.607-0.768,3.108,0.288
		c0.039,0.073,0.072,0.158,0.1,0.253c0.264,0.947,0.257,1.361,0.375,1.61c0.039,0.095,0.164,0.174,0.269,0.164
		c0.102-0.001,0.195-0.031,0.325-0.075c0.281-0.099,0.547-0.225,0.764-0.226c0.21,0.002,0.396,0.073,0.62,0.485
		c0.063,0.121,0.126,0.271,0.188,0.456c0.16,0.487,0.367,0.98,0.598,1.419c0.236,0.453,0.494,0.847,0.756,1.118
		c0.259,0.265,0.545,0.445,0.851,0.349c0.616-0.219,1.621-0.439,1.95,0.165c0.437,0.744,0.934,1.075,1.677,1.147
		c0.545,0.059,1.194,0.294,1.487,0.861c0.071,0.138,0.125,0.299,0.152,0.485c0.093,0.618,0.09,1.088,0.28,1.459
		c0.122,0.242,0.347,0.417,0.677,0.503c0.771,0.192,2.447,0.459,2.831,1.24c0.013,0.027,0.024,0.052,0.035,0.08
		c0.009,0.027,0.021,0.054,0.034,0.078c0.278,0.508,0.846,0.497,1.351,0.569c0.523,0.073,1.001,0.183,1.314,0.769
		c0.023,0.047,0.047,0.096,0.069,0.147c0.322,0.779,0.506,1.215,0.672,1.531c0.164,0.316,0.312,0.513,0.539,0.785
		c0.006,0.006,0.011,0.016,0.016,0.026c0.132,0.186-0.08,1.049-0.491,2.361c-0.404,1.324-0.96,3.154-1.405,5.478
		C46.755,109.602,46.564,115.175,48.429,120.796z M172.066,11.773c-0.016,0.284-0.42,0.959-0.818,1.579
		c-0.396,0.644-0.795,1.196-0.783,1.577c0.006,0.074,0.029,0.146,0.062,0.21c0.291,0.503,1.158,0.721,1.529,1.166
		c0.289,0.321,0.525,0.41,0.529,0.462c0.021,0.023,0.029,0.159-0.115,0.543c-0.156,0.438-0.287,0.669-0.359,0.891
		c-0.076,0.221-0.068,0.443,0.053,0.728c0.041,0.1,0.094,0.21,0.152,0.325c0.289,0.547,0.742,1.208,1.084,1.474
		c0.377,0.294,0.793,0.438,1.184,0.232c0.088-0.047,0.227-0.081,0.34-0.072c0.117,0.008,0.191,0.045,0.227,0.113
		c0.029,0.057,0.047,0.166-0.006,0.358c-0.088,0.313-0.447,0.817-0.746,1.304c-0.291,0.491-0.572,0.977-0.371,1.409
		c0.012,0.021,0.023,0.042,0.035,0.06c0.219,0.318,0.602,0.516,0.945,0.702c0.348,0.178,0.658,0.36,0.725,0.504
		c0.016,0.03,0.021,0.056,0.025,0.081c0.01,0.205-0.133,0.627-0.277,1.034c-0.145,0.415-0.295,0.807-0.244,1.113
		c0.01,0.069,0.035,0.132,0.066,0.192c0.256,0.455,0.906,0.765,1.156,1.262c0.334,0.639,0.898,1.238,1.666,1.2
		c0.244-0.015,0.514-0.071,0.727-0.103c0.084-0.014,0.162-0.023,0.219-0.027c-0.047,0.062-0.127,0.156-0.252,0.27
		c-0.869,0.832-1.406,1.229-1.459,1.969c-0.008,0.347-0.111,0.378-0.039,0.601c0.102,0.148,0.197,0.148,0.453,0.304
		c0.4,0.223,1.02,0.567,1.219,0.963c0.088,0.176,0.111,0.342,0.02,0.558c-0.139,0.312-0.361,0.591-0.535,0.851
		c-0.166,0.25-0.328,0.512-0.188,0.801c0.061,0.118,0.17,0.211,0.318,0.291c0.732,0.386,2.271,1.588,3.152,1.67
		c0.438,0.019,0.875,0.188,0.887,0.272c0.004,0.019,0.016,0.01-0.02,0.066c-0.037,0.052-0.137,0.136-0.311,0.227
		c-0.021,0.011-0.039,0.02-0.059,0.028c-0.025,0.012-0.049,0.024-0.072,0.036c-0.994,0.521-1.213,1.325-1.59,2.024
		c-0.119,0.217-0.213,0.344-0.277,0.438c-0.033,0.048-0.061,0.086-0.082,0.135c-0.025,0.048-0.035,0.137,0.002,0.201
		c0.098,0.146,0.203,0.163,0.438,0.319c0.479,0.285,1.439,0.644,1.605,1c0.049,0.11,0.055,0.188-0.049,0.339
		c-0.209,0.28-0.443,0.537-0.607,0.795c-0.16,0.252-0.264,0.545-0.113,0.834c0.072,0.14,0.199,0.266,0.377,0.384
		c0.686,0.446,2.816,1.526,3.125,2.16c0.059,0.135,0.055,0.173-0.01,0.249c-0.299,0.296-0.779,0.654-1.16,0.994
		c-0.359,0.345-0.713,0.649-0.557,1.044c0.025,0.047,0.059,0.09,0.1,0.126c0.547,0.46,1.432,0.406,1.818,0.776
		c0.227,0.198,0.451,0.416,0.566,0.637c0.115,0.237,0.139,0.447-0.072,0.751c-0.178,0.245-0.463,0.463-0.697,0.649
		c-0.117,0.095-0.223,0.181-0.301,0.274c-0.072,0.086-0.143,0.227-0.068,0.369c0.061,0.111,0.162,0.166,0.299,0.218
		c0.311,0.122,0.4,0.271,0.512,0.47c0.111,0.194,0.236,0.451,0.576,0.614c0.588,0.288,1.684,0.82,2.199,1.239
		c0.121,0.098,0.199,0.182,0.221,0.229c0.02,0.057,0.035,0.043-0.061,0.152c-0.098,0.093-0.311,0.225-0.637,0.395
		c-0.123,0.064-0.264,0.137-0.422,0.216c-1.297,0.645-9.25,4.717-17.359,8.393c-8.111,3.678-56.867,25.676-74.751,34.343
		c-15.825,7.671-38.91,17.98-46.357,21.346c-1.992-5.695-1.819-11.377-0.936-15.999c0.439-2.306,0.993-4.122,1.395-5.445
		c0.394-1.337,0.68-2.126,0.473-2.587c-0.015-0.027-0.03-0.055-0.049-0.076c-0.225-0.272-0.351-0.438-0.505-0.734
		c-0.156-0.297-0.342-0.729-0.662-1.506c-0.027-0.061-0.054-0.117-0.081-0.171c-0.367-0.71-1.005-0.859-1.537-0.927
		c-0.549-0.067-0.974-0.098-1.126-0.411c-0.007-0.017-0.016-0.034-0.021-0.05l-0.141,0.05l0.138-0.056
		c-0.016-0.035-0.031-0.07-0.048-0.102c-0.547-0.999-2.282-1.183-3.015-1.391c-0.279-0.078-0.401-0.186-0.494-0.355
		c-0.142-0.263-0.157-0.729-0.246-1.364c-0.033-0.218-0.096-0.411-0.186-0.579c-0.367-0.701-1.124-0.955-1.718-1.02
		c-0.675-0.079-1.026-0.307-1.453-1.006c-0.537-0.84-1.688-0.494-2.302-0.292c-0.108,0.044-0.306-0.03-0.54-0.275
		c-0.23-0.237-0.479-0.612-0.707-1.049c-0.222-0.422-0.423-0.903-0.58-1.374c-0.065-0.196-0.134-0.362-0.206-0.5
		c-0.238-0.472-0.565-0.656-0.888-0.645c-0.316,0.007-0.599,0.155-0.854,0.241c-0.123,0.042-0.206,0.062-0.23,0.061h-0.002
		c0,0-0.003-0.003-0.005-0.006c-0.062-0.099-0.09-0.603-0.351-1.553c-0.034-0.114-0.073-0.218-0.122-0.311
		c-0.752-1.351-2.878-0.405-3.366-0.448c-0.345,0.014-1.019-0.572-1.415-1.359c-0.14-0.264-0.25-0.549-0.318-0.836
		c-0.027-0.109-0.063-0.208-0.109-0.298c-0.268-0.503-0.793-0.647-1.276-0.742c-0.49-0.09-0.968-0.147-1.183-0.341
		c-0.6-0.516-1.229-1.045-2.064-0.86c-0.708,0.167-1.889,0.024-2.252-0.572c-0.452-0.684-0.916-1.567-1.52-1.776
		c-0.459-0.141-2.333-1.145-3.246-1.967c-0.504-0.452-1.396-0.83-2.23-1.16c-0.827-0.324-1.619-0.609-1.819-0.772
		c-0.174-0.135-0.318-0.321-0.448-0.528c7.069-3.18,40.379-18.165,50.214-22.729c11.02-5.114,60.9-27.954,72.726-33.489
		s26.549-11.952,27.881-12.616c0.609-0.304,1.361-0.579,1.971-0.738c0.307-0.08,0.574-0.132,0.768-0.146
		c0.096-0.007,0.174-0.003,0.217,0.008c0.006,0,0.012,0.001,0.016,0.002c-0.035,0.254-0.014,0.537,0.111,0.779
		c0.096,0.186,0.26,0.342,0.49,0.414c0.334,0.096,1.551,0.88,1.896,1.568c0.053,0.104,0.09,0.202,0.104,0.293
		c0.119,0.789-0.223,1.779-0.355,2.395c-0.041,0.191-0.096,0.3-0.139,0.392c-0.039,0.08-0.105,0.201-0.035,0.339
		c0.062,0.11,0.15,0.168,0.303,0.271c0.242,0.155,0.697,0.266,1.145,0.423c0.447,0.147,0.861,0.357,0.955,0.558
		c0.043,0.087,0.049,0.161-0.01,0.29c-0.361,0.771-0.711,1.46-0.414,2.06c0.043,0.083,0.1,0.159,0.168,0.229
		c0.082,0.087,0.158,0.209,0.232,0.348c0.104,0.198,0.197,0.433,0.312,0.648c0.18,0.358,0.463,0.719,0.955,0.656
		c0.375-0.049,0.846-0.206,1.246-0.299c0.197-0.047,0.377-0.076,0.504-0.071c0.133,0.005,0.174,0.037,0.186,0.062
		C172.062,11.68,172.072,11.712,172.066,11.773z"/>
	
		<linearGradient id="SVGID_3_" gradientUnits="userSpaceOnUse" x1="63.4419" y1="-82.8198" x2="19.8141" y2="-133.2133" gradientTransform="matrix(0.8727 -0.4883 0.5014 0.8961 189.2168 135.6914)">
		<stop  offset="0" style="stop-color:#FFFFFF"/>
		<stop  offset="1" style="stop-color:#4E4E4E"/>
	</linearGradient>
	<path fill="url(#SVGID_3_)" d="M172.439,18.819c0.033,0.088,0.084,0.188,0.139,0.298c0.266,0.514,0.738,1.177,1.002,1.374
		c0.039,0.03,0.078,0.058,0.115,0.082c-0.023-0.253,0.117-0.47,0.27-1.062c0.217-0.852-0.047-0.585-0.586-1.104
		c-0.219-0.211-0.521-0.374-0.816-0.527c-0.076,0.178-0.137,0.311-0.17,0.413C172.342,18.468,172.338,18.557,172.439,18.819z"/>
	
		<linearGradient id="SVGID_4_" gradientUnits="userSpaceOnUse" x1="59.5796" y1="-79.4551" x2="15.9298" y2="-129.874" gradientTransform="matrix(0.8727 -0.4883 0.5014 0.8961 189.2168 135.6914)">
		<stop  offset="0" style="stop-color:#FFFFFF"/>
		<stop  offset="1" style="stop-color:#4E4E4E"/>
	</linearGradient>
	<path fill="url(#SVGID_4_)" d="M174.291,23.936c0.006,0.011,0.01,0.02,0.018,0.028c0.15,0.229,0.494,0.427,0.84,0.607
		c0.344,0.189,0.688,0.346,0.846,0.63c0.033,0.062,0.055,0.132,0.057,0.206c0.01,0.318-0.15,0.73-0.291,1.144
		c-0.146,0.401-0.268,0.812-0.232,0.967c0.004,0.03,0.018,0.063,0.039,0.103c0.148,0.321,0.83,0.664,1.154,1.265
		c0.311,0.595,0.809,1.077,1.387,1.038c0.127-0.005,0.27-0.026,0.412-0.052c-0.273-0.203-0.51-0.392-0.576-0.604
		c-0.135-0.439,0.383-1.525,0.303-2.025c-0.082-0.499-1.422-0.741-1.908-1.321c-0.482-0.579,0.688-1.816,0.818-2.521
		c0.127-0.706-0.545-0.711-0.852-0.554c-0.305,0.156-0.664,0.053-1.066-0.217c-0.09-0.059-0.193-0.151-0.305-0.26
		c-0.094,0.15-0.193,0.299-0.283,0.449C174.348,23.293,174.172,23.749,174.291,23.936z"/>
	
		<linearGradient id="SVGID_5_" gradientUnits="userSpaceOnUse" x1="36.8198" y1="-59.7529" x2="-6.8284" y2="-110.1701" gradientTransform="matrix(0.8727 -0.4883 0.5014 0.8961 189.2168 135.6914)">
		<stop  offset="0" style="stop-color:#FFFFFF"/>
		<stop  offset="1" style="stop-color:#4E4E4E"/>
	</linearGradient>
	<path fill="url(#SVGID_5_)" d="M177.654,32.348c-0.014,0.243-0.055,0.391-0.062,0.446c0.01,0.006,0.025,0.015,0.043,0.025
		c0.057,0.033,0.152,0.081,0.283,0.156c0.395,0.229,1.057,0.562,1.336,1.084c0.125,0.233,0.158,0.522,0.029,0.813
		c-0.16,0.357-0.396,0.653-0.561,0.896c-0.172,0.251-0.225,0.415-0.17,0.498c0.021,0.045,0.078,0.105,0.195,0.169
		c0.752,0.411,2.346,1.595,3.037,1.634c0.475,0.051,0.936,0.132,1.125,0.433c0.066,0.114,0.041,0.272-0.045,0.381
		c-0.084,0.111-0.217,0.208-0.412,0.311c-0.02,0.011-0.041,0.022-0.068,0.035c-0.02,0.008-0.041,0.019-0.061,0.03
		c-0.889,0.465-1.066,1.15-1.467,1.901c-0.15,0.276-0.279,0.442-0.328,0.514c0.01,0.006,0.02,0.016,0.035,0.022
		c0.057,0.037,0.148,0.09,0.268,0.165c0.426,0.276,1.404,0.572,1.711,1.115c0.105,0.19,0.092,0.443-0.072,0.653
		c-0.219,0.294-0.453,0.553-0.594,0.775c-0.143,0.231-0.18,0.386-0.102,0.539c0.041,0.08,0.127,0.173,0.277,0.274
		c0.66,0.45,2.775,1.452,3.223,2.269c0.105,0.183,0.109,0.434-0.064,0.596c-0.48,0.476-1.328,1.056-1.59,1.453
		c-0.088,0.134-0.092,0.207-0.07,0.238c0.004,0.011,0.014,0.023,0.033,0.039c0.389,0.37,1.27,0.318,1.82,0.779
		c0.227,0.204,0.479,0.437,0.629,0.723c0.166,0.298,0.182,0.688-0.096,1.062c-0.188,0.258-0.447,0.464-0.662,0.636
		c-0.201,0.152-0.363,0.305-0.379,0.35c0.012,0.011,0.047,0.043,0.135,0.075c0.393,0.14,0.561,0.392,0.674,0.599
		c0.119,0.212,0.191,0.369,0.443,0.496c0.594,0.289,1.688,0.814,2.256,1.273c0.135,0.109,0.236,0.203,0.299,0.32
		c0.096,0.164,0.031,0.381-0.119,0.505c-0.145,0.138-0.369,0.268-0.703,0.442c-0.127,0.065-0.271,0.139-0.428,0.217
		c-1.295,0.646-9.254,4.721-17.371,8.399c-3.145,1.427-12.408,5.61-23.611,10.703c13.498-5.335,25.186-9.896,28.855-11.327
		c8.393-3.264,16.604-6.9,17.945-7.476c1.338-0.575,1.512-0.716,0.893-1.144c-0.617-0.43-1.828-0.957-2.482-1.245
		c-0.652-0.287-0.494-0.791-1.264-1.055c-0.768-0.266,0.336-0.586,0.789-1.195c0.449-0.608-0.146-1.11-0.68-1.513
		c-0.533-0.404-1.465-0.373-1.996-0.776c-0.529-0.403,0.908-1.198,1.551-1.808c0.643-0.61-2.631-2.031-3.543-2.563
		c-0.91-0.533-0.26-1.028,0.236-1.701c0.496-0.672-1.15-1.136-1.818-1.503c-0.668-0.368-0.461-0.156-0.113-0.852
		c0.348-0.699,0.48-1.42,1.48-1.869c0.998-0.448,0.164-0.769-0.662-0.842c-0.826-0.07-2.576-1.23-3.387-1.621
		c-0.809-0.391,0.02-0.889,0.311-1.66c0.291-0.771-0.889-1.327-1.521-1.646c-0.631-0.317-0.4-0.118-0.426-0.734
		c-0.027-0.617,0.439-0.975,1.262-1.763c0.818-0.786-0.184-0.415-0.873-0.39c-0.689,0.028-1.295-0.493-1.691-1.085
		c-0.049-0.07-0.102-0.138-0.162-0.202c-0.043,0.048-0.094,0.098-0.152,0.153C178.127,31.421,177.682,31.787,177.654,32.348z"/>
	
		<linearGradient id="SVGID_6_" gradientUnits="userSpaceOnUse" x1="66.2666" y1="-85.2632" x2="22.635" y2="-135.6611" gradientTransform="matrix(0.8727 -0.4883 0.5014 0.8961 189.2168 135.6914)">
		<stop  offset="0" style="stop-color:#FFFFFF"/>
		<stop  offset="1" style="stop-color:#4E4E4E"/>
	</linearGradient>
	<path fill="url(#SVGID_6_)" d="M170.76,14.905c0.004,0.03,0.012,0.062,0.029,0.097c0.125,0.284,0.842,0.535,1.328,0.957
		c0.354-0.663,0.773-1.405,0.758-1.796c-0.025-0.598-0.99-0.219-1.76-0.039C170.893,14.504,170.736,14.817,170.76,14.905z"/>
	
		<linearGradient id="SVGID_7_" gradientUnits="userSpaceOnUse" x1="-171.2197" y1="-144.8066" x2="-191.2758" y2="-119.0108" gradientTransform="matrix(0.8865 -0.4628 0.4628 0.8865 269.5635 147.4438)">
		<stop  offset="0" style="stop-color:#F3F4F6"/>
		<stop  offset="1" style="stop-color:#4E4E4E"/>
	</linearGradient>
	<path fill="url(#SVGID_7_)" d="M51.746,100.44c-0.365-0.523-0.435-0.686-0.889-2.109c-0.189-0.591-0.589-0.826-1.011-0.964
		c0.033,0.481-0.214,1.203-0.535,2.297c-0.401,1.323-0.955,3.14-1.395,5.445c-0.821,4.287-1.026,9.484,0.537,14.759
		c-0.909-4.703-0.253-9.13,0.875-12.716C50.595,103.126,52.114,100.963,51.746,100.44z"/>
</g>
</svg>
