<?xml version="1.0" encoding="utf-8"?>
<!-- Generator: Adobe Illustrator 16.0.0, SVG Export Plug-In . SVG Version: 6.00 Build 0)  -->
<!DOCTYPE svg PUBLIC "-//W3C//DTD SVG 1.1//EN" "http://www.w3.org/Graphics/SVG/1.1/DTD/svg11.dtd">
<svg version="1.1" id="Layer_1" xmlns="http://www.w3.org/2000/svg" xmlns:xlink="http://www.w3.org/1999/xlink" x="0px" y="0px"
	 width="595.28px" height="841.89px" viewBox="0 0 595.28 841.89" enable-background="new 0 0 595.28 841.89" xml:space="preserve">
<g>
	<path fill="none" stroke="#F1BCCF" stroke-width="3" stroke-miterlimit="10" d="M438.44,116.431
		c0,0,70.497,298.827-105.548,540.259C213.845,819.955,2.28,934.921,2.28,934.921"/>
	<path fill="#ED206B" d="M342.697,323.796c0,0-0.028-94.331-2.321-146.019c-2.722-61.347-10.801-123.983-10.801-123.983
		s35.797-6.413,74.746-20.915s72.047-33.738,72.047-33.738s20.23,31.321,34.075,73.875c12.642,38.854,30.612,76.19,30.612,76.19
		s-47.942,39.78-80.271,72.109C425.41,256.689,342.697,323.796,342.697,323.796z"/>
	<path fill="none" stroke="#F1BCCF" stroke-width="3" stroke-miterlimit="10" d="M342.697,323.796c0,0,10.604,57.383-26.131,79.152
		c-24.059,14.258-63.93,59.328-77.731,86.584c-20.228,39.946-77.371,87.564-95.738,93.688"/>
	<polygon fill="#ED1F76" points="362.719,355.302 323.604,366.015 325.613,350.498 360.622,371.494 	"/>
	<polygon fill="#11A64A" points="313.584,428.318 276.928,410.969 288.561,400.503 301.446,439.238 	"/>
	<polygon fill="#5F2A78" points="271.979,473.746 232.335,465.204 241.276,452.364 262.648,487.144 	"/>
	<polygon fill="#F1702B" points="235.446,530.297 199.657,511.225 211.773,501.324 222.803,540.627 	"/>
	<polygon fill="#1DBCBD" points="203.182,562.479 165.856,546.623 177.056,535.697 191.494,573.879 	"/>
	<polygon fill="#F4C227" points="160.991,593.541 125.202,574.469 137.317,564.568 148.348,603.871 	"/>
	<path fill="none" stroke="#F1BCCF" stroke-width="3" stroke-miterlimit="10" d="M472.349,18.594c0,0-20.561,106.579-112.925,274.15
		"/>
	<path fill="none" stroke="#F1BCCF" stroke-width="3" stroke-miterlimit="10" d="M344.118,67.574c0,0,69.046,52.381,181.972,78.912"
		/>
</g>
</svg>
